<?xml version="1.0" encoding="utf-8"?>
<!-- Generator: Adobe Illustrator 16.0.0, SVG Export Plug-In . SVG Version: 6.00 Build 0)  -->
<!DOCTYPE svg PUBLIC "-//W3C//DTD SVG 1.1//EN" "http://www.w3.org/Graphics/SVG/1.1/DTD/svg11.dtd">
<svg version="1.1" id="Gray_with_tag" xmlns="http://www.w3.org/2000/svg" xmlns:xlink="http://www.w3.org/1999/xlink" x="0px"
	 y="0px" width="469.9px" height="108px" viewBox="0 0 469.9 108" enable-background="new 0 0 469.9 108" xml:space="preserve">
<path fill="#FFFFFF" d="M162.236,87.029h-3.751l-0.576,1.949h-2.003l3.375-9.988h2.125l3.409,9.988h-1.995L162.236,87.029z
	 M161.741,85.398l-1.371-4.598l-1.388,4.598H161.741z M166.807,78.99h3.585c0.86,0.009,1.902,0.029,2.956,0.779
	c1.67,1.172,1.921,3.179,1.921,4.303c0,1.707-0.58,3.453-2.051,4.304c-0.99,0.578-2.037,0.591-3.21,0.604h-3.202L166.807,78.99
	L166.807,78.99z M168.676,80.684v6.61h0.794c1.413,0,1.913-0.069,2.331-0.228c0.726-0.279,1.488-0.904,1.488-2.988
	c0-0.93-0.14-2.455-1.527-3.125c-0.538-0.239-0.835-0.253-2.096-0.27H168.676L168.676,80.684z M184.81,78.99l-2.841,9.988h-2.522
	l-2.943-9.988h1.968l2.232,7.883l2.168-7.883H184.81z M188.726,80.658v2.344h4.817v1.619h-4.817v2.673h5.628v1.687h-7.467v-9.99
	h7.109v1.668H188.726z M196.627,78.99h3.186c1.326,0.009,2.217,0.009,3.1,0.719c0.621,0.514,1.103,1.297,1.103,2.459
	c0,1.91-1.399,2.583-1.969,2.752l2.227,4.061h-2.138l-1.986-3.711h-1.666v3.711h-1.856L196.627,78.99L196.627,78.99z
	 M198.483,80.604v3.129h0.646c0.644,0,0.885-0.02,1.234-0.025c0.408-0.02,1.752-0.092,1.752-1.545c0-0.215-0.011-0.954-0.788-1.352
	c-0.404-0.201-0.879-0.207-1.979-0.207H198.483z M212.848,80.684h-2.765v8.297h-1.864v-8.297h-2.706V78.99h7.335V80.684z
	 M216.964,78.99v9.988h-1.836V78.99H216.964z M221.158,86.006c0.236,0.37,0.986,1.52,3.096,1.52c0.351,0,0.715-0.034,1.076-0.176
	c0.726-0.295,0.851-0.802,0.851-1.145c0-0.639-0.438-0.861-0.759-0.99c-0.219-0.082-0.248-0.099-1.157-0.31l-1.201-0.251
	c-0.638-0.158-0.948-0.231-1.256-0.359c-0.457-0.18-1.685-0.79-1.685-2.449c0-1.895,1.596-3.113,3.945-3.113
	c2.146,0,3.309,1.06,4.018,2.02l-1.528,1.146c-0.343-0.487-0.986-1.479-2.591-1.479c-1,0-1.881,0.453-1.881,1.218
	c0,0.854,0.937,1.021,1.845,1.188l1.03,0.23c1.343,0.278,3.234,0.836,3.234,2.969c0,2.297-2.115,3.211-4.238,3.211
	c-0.559,0-1.174-0.057-1.785-0.221c-0.666-0.199-1.844-0.686-2.592-1.899L221.158,86.006z M232.798,78.99v9.988h-1.838V78.99
	H232.798z M242.128,78.99h1.834v9.988h-1.627l-4.373-7.004l0.115,7.004h-1.826V78.99h1.685l4.414,7.056L242.128,78.99z
	 M255.658,83.516v5.465h-1.604v-0.854c-0.89,0.885-1.896,1.105-2.729,1.105c-3.082,0-4.709-2.459-4.709-5.154
	c0-3.137,2.077-5.348,4.823-5.348c2.076,0,3.606,1.278,4.222,2.947l-1.785,0.719c-0.189-0.552-0.726-1.979-2.424-1.979
	c-1.877,0-2.8,1.641-2.8,3.605c0,2.195,1.203,3.457,2.828,3.457c1.049,0,2.297-0.554,2.463-2.321h-2.491v-1.646h4.207V83.516z
	 M262.992,86.925h-1.156v-2.058h-2.062v-1.146h2.062V81.66h1.156v2.061h2.045v1.146h-2.045V86.925z M277.486,86.191
	c-0.127,0.322-0.369,0.901-0.855,1.5c-0.707,0.822-1.83,1.541-3.461,1.541c-2.643,0-4.666-1.938-4.666-5.271
	c0-3.398,2.193-5.229,4.742-5.229c3.111,0,3.846,2.396,4.076,3.086l-1.869,0.496c-0.029-0.185-0.115-0.606-0.367-0.994
	c-0.215-0.313-0.77-0.877-1.803-0.877c-1.627,0-2.756,1.346-2.756,3.484c0,2.277,1.203,3.539,2.771,3.539
	c0.94,0,1.502-0.453,1.91-0.978c0.326-0.443,0.455-0.804,0.524-1.034L277.486,86.191z M279.71,78.99h3.187
	c1.332,0.009,2.226,0.009,3.103,0.719c0.623,0.514,1.104,1.297,1.104,2.459c0,1.91-1.406,2.583-1.971,2.752l2.217,4.061h-2.133
	l-1.98-3.711h-1.668v3.711h-1.855v-9.99H279.71z M281.566,80.604v3.129h0.646c0.643,0,0.879-0.02,1.233-0.025
	c0.416-0.02,1.755-0.092,1.755-1.545c0-0.215-0.015-0.954-0.789-1.352c-0.398-0.201-0.877-0.207-1.986-0.207H281.566z
	 M291.498,80.658v2.344h4.812v1.619h-4.812v2.673h5.621v1.687h-7.459v-9.99h7.105v1.668H291.498z M304.669,87.029h-3.748
	l-0.58,1.949h-1.991l3.366-9.988h2.123l3.408,9.988h-1.992L304.669,87.029z M304.178,85.398l-1.367-4.598l-1.392,4.598H304.178z
	 M315.042,80.684h-2.754v8.297h-1.871v-8.297h-2.699V78.99h7.324V80.684z M319.164,78.99v9.988h-1.838V78.99H319.164z
	 M329.597,78.99l-2.844,9.988h-2.516l-2.947-9.988h1.965l2.236,7.883l2.166-7.883H329.597z M333.511,80.658v2.344h4.816v1.619
	h-4.816v2.673h5.627v1.687h-7.459v-9.99h7.104v1.668H333.511z M346.001,86.006c0.24,0.37,0.992,1.52,3.1,1.52
	c0.352,0,0.729-0.034,1.076-0.176c0.729-0.295,0.848-0.802,0.848-1.145c0-0.639-0.439-0.861-0.75-0.99
	c-0.227-0.082-0.26-0.099-1.154-0.31l-1.205-0.251c-0.639-0.158-0.947-0.231-1.264-0.359c-0.453-0.18-1.684-0.79-1.684-2.449
	c0-1.895,1.602-3.113,3.943-3.113c2.152,0,3.324,1.06,4.023,2.02l-1.529,1.146c-0.342-0.487-0.99-1.479-2.584-1.479
	c-1.01,0-1.891,0.453-1.891,1.218c0,0.854,0.941,1.021,1.844,1.188l1.037,0.23c1.34,0.278,3.232,0.836,3.232,2.969
	c0,2.297-2.115,3.211-4.24,3.211c-0.549,0-1.17-0.057-1.785-0.221c-0.666-0.199-1.838-0.686-2.588-1.899L346.001,86.006z
	 M362.05,80.684h-2.758v8.297h-1.867v-8.297h-2.705V78.99h7.33V80.684z M368.765,87.029h-3.746l-0.578,1.949h-1.996l3.365-9.988
	h2.131l3.404,9.988h-1.998L368.765,87.029z M368.273,85.398l-1.375-4.598l-1.387,4.598H368.273z M375.337,83.148h4.178v1.603h-4.178
	v4.229h-1.85v-9.99h6.607v1.668h-4.758V83.148L375.337,83.148z M384.14,83.148h4.178v1.603h-4.178v4.229h-1.852v-9.99h6.607v1.668
	h-4.756V83.148L384.14,83.148z M393.201,78.99v9.988h-1.848V78.99H393.201z M402.519,78.99h1.844v9.988h-1.629l-4.361-7.004
	l0.109,7.004h-1.822V78.99h1.678l4.412,7.056L402.519,78.99z M416.058,83.516v5.465h-1.605v-0.854
	c-0.887,0.885-1.896,1.105-2.73,1.105c-3.084,0-4.711-2.459-4.711-5.154c0-3.137,2.08-5.348,4.82-5.348
	c2.092,0,3.611,1.278,4.229,2.947l-1.785,0.719c-0.191-0.552-0.725-1.979-2.424-1.979c-1.879,0-2.801,1.641-2.801,3.605
	c0,2.195,1.203,3.457,2.824,3.457c1.049,0,2.299-0.554,2.469-2.321h-2.492v-1.646h4.207V83.516z"/>
<path fill="#FFFFFF" d="M317.128,48.224c-1.969-2.461-4.986-3.94-8.305-3.94c-5.914,0-10.707,4.801-10.707,10.711
	c0,5.843,4.793,10.646,10.707,10.646c2.701,0,5.223-1.051,7.195-2.771c1.414-1.416,3.756-1.541,5.291-0.244
	c-2.646,4.244-7.32,6.951-12.486,6.951c-8.066,0-14.648-6.521-14.648-14.581c0-8.064,6.582-14.647,14.648-14.647
	c5.84,0,10.951,3.383,13.291,8.489C320.515,49.822,318.48,49.577,317.128,48.224z M347.355,45.148
	c-0.922-0.556-2.092-0.865-3.262-0.865c-3.629,0-6.65,2.953-6.65,6.585v14.956c0,2.094-1.717,3.752-3.812,3.752h-0.123V50.869
	c0-5.785,4.74-10.521,10.588-10.521c3.32,0,6.334,1.537,8.246,3.999C351.105,45.763,349.015,46.13,347.355,45.148z M326.652,36.388
	c1.17,0,2.15-0.926,2.15-2.093s-0.98-2.15-2.15-2.15s-2.096,0.983-2.096,2.15S325.482,36.388,326.652,36.388z M324.738,40.348
	h-0.053v25.414c0,2.094,1.725,3.814,3.875,3.814h0.121V44.165C328.681,42.009,326.839,40.348,324.738,40.348z M384.341,69.576
	c-2.146,0-3.875-1.723-3.875-3.814V28.533h0.129c2.152,0,3.812,1.782,3.812,3.876v37.167H384.341z M412.892,56.963
	c-5.225,0-19.195,0-22.15,0c0.98,4.92,5.537,8.678,11.014,8.678c2.834,0,5.537-1.051,7.568-2.771
	c1.477-1.416,3.752-1.541,5.418-0.307c-2.709,4.246-7.631,7.014-12.986,7.014c-8.369,0-15.141-6.521-15.141-14.581
	c0-8.124,6.771-14.647,15.141-14.647c7.756,0,14.281,5.598,15.016,12.858C417.019,55.361,414.982,56.902,412.892,56.963z
	 M401.755,44.284c-5.479,0-10.033,3.754-11.016,8.74h21.164c0.375,0,0.74-0.309,0.68-0.681
	C411.357,47.731,406.986,44.284,401.755,44.284z M372.888,48.224c-1.971-2.461-4.984-3.94-8.309-3.94
	c-5.908,0-10.701,4.801-10.701,10.711c0,5.843,4.793,10.646,10.701,10.646c2.707,0,5.229-1.051,7.203-2.771
	c1.414-1.416,3.752-1.541,5.285-0.244c-2.643,4.244-7.318,6.951-12.488,6.951c-8.062,0-14.643-6.521-14.643-14.581
	c0-8.064,6.58-14.647,14.643-14.647c5.846,0,10.955,3.383,13.293,8.489C376.277,49.822,374.242,49.577,372.888,48.224z"/>
<path fill="#FFFFFF" d="M132.111,48.224c-1.969-2.461-4.99-3.94-8.309-3.94c-5.91,0-10.706,4.801-10.706,10.711
	c0,5.843,4.796,10.646,10.706,10.646c2.706,0,5.229-1.051,7.198-2.771c1.422-1.416,3.754-1.541,5.291-0.244
	c-2.64,4.244-7.322,6.951-12.488,6.951c-8.066,0-14.644-6.521-14.644-14.581c0-8.064,6.578-14.647,14.644-14.647
	c5.848,0,10.952,3.383,13.291,8.489C135.495,49.822,133.459,49.577,132.111,48.224z M153.523,45.148
	c-0.928-0.556-2.094-0.865-3.267-0.865c-3.63,0-6.647,2.953-6.647,6.585v14.956c0,2.094-1.72,3.752-3.813,3.752h-0.125V50.869
	c0-5.785,4.741-10.521,10.585-10.521c3.322,0,6.339,1.537,8.25,3.999C157.271,45.763,155.18,46.13,153.523,45.148z M182.194,56.963
	c-5.232,0-19.202,0-22.157,0c0.986,4.92,5.544,8.678,11.022,8.678c2.827,0,5.532-1.051,7.564-2.771
	c1.485-1.416,3.75-1.541,5.412-0.307c-2.703,4.246-7.63,7.014-12.976,7.014c-8.375,0-15.147-6.521-15.147-14.581
	c0-8.124,6.772-14.647,15.147-14.647c7.747,0,14.274,5.598,15.014,12.858C186.311,55.361,184.284,56.902,182.194,56.963z
	 M171.059,44.284c-5.478,0-10.036,3.754-11.022,8.74h21.171c0.37,0,0.737-0.309,0.679-0.681
	C180.653,47.731,176.283,44.284,171.059,44.284z M217.802,69.576c-2.154,0-3.944-1.723-3.944-3.814V54.995
	c0-6.65-4.308-10.711-11.197-10.711c-5.907,0-10.707,4.801-10.707,10.711c0,5.843,4.8,10.646,10.707,10.646
	c3.266,0,6.339-1.354,8.432-3.63c0.121,0.183,0.247,0.367,0.371,0.554c1.046,1.905,0.308,4.306-1.606,5.354
	c-2.147,1.107-4.674,1.658-7.196,1.658c-8.063,0-14.645-6.521-14.645-14.581c0-8.124,6.582-14.647,14.645-14.647
	c9.049,0,15.142,5.846,15.142,14.647v14.581H217.802z M288.1,56.963c-5.229,0-19.197,0-22.153,0
	c0.982,4.92,5.539,8.678,11.016,8.678c2.834,0,5.537-1.051,7.574-2.771c1.475-1.416,3.744-1.541,5.408-0.307
	c-2.711,4.246-7.631,7.014-12.982,7.014c-8.366,0-15.137-6.521-15.137-14.581c0-8.124,6.771-14.647,15.137-14.647
	c7.758,0,14.277,5.598,15.02,12.858C292.225,55.361,290.19,56.902,288.1,56.963z M276.962,44.284c-5.478,0-10.033,3.754-11.017,8.74
	h21.169c0.372,0,0.742-0.309,0.678-0.681C286.56,47.731,282.192,44.284,276.962,44.284z M262.957,40.532
	c-2.031-0.678-4.344,0.367-5.022,2.4l-5.397,15.757h0.006l-2.182,6.334c0,0.062,0,0.062,0,0.123
	c-0.059,0.061-0.059,0.185-0.124,0.244c0-0.061-0.057-0.185-0.057-0.244c0-0.061,0-0.061-0.063-0.123l-7.568-22.091
	c-0.674-2.034-2.957-3.079-4.981-2.4c0,0,0,0,8.856,25.782c0-0.058-0.059-0.058-0.059-0.121c0.612,2.093,2.153,3.383,3.872,3.383
	c1.785,0,3.324-1.29,3.882-3.383c0,0.063,0,0.063,0,0.121l2.598-7.625h0.008C262.951,40.55,262.957,40.532,262.957,40.532z
	 M213.703,40.348v0.121c0,2.091,1.78,3.814,3.879,3.814h5.045v25.292h0.062c2.153,0,3.876-1.722,3.876-3.814V27.875h-0.125
	c-2.093,0-3.812,1.726-3.812,3.754v8.719H213.703z M231.438,40.348h-0.062v25.414c0,2.094,1.721,3.814,3.871,3.814h0.127V44.165
	C235.376,42.009,233.529,40.348,231.438,40.348z M233.346,36.388c1.168,0,2.151-0.926,2.151-2.093s-0.983-2.15-2.151-2.15
	c-1.169,0-2.093,0.983-2.093,2.15S232.177,36.388,233.346,36.388z"/>
<g>
	<path fill="#FFFFFF" d="M93.649,31.317C86.51,19.486,75.436,11.353,61.689,8.942C47.56,6.463,32.856,11.446,22.584,21.28
		C11.564,31.829,6.855,47.699,9.104,62.619c1.538,10.199,5.652,20.419,13.444,27.398c1.278,1.144,5.471,5.098,6.98,4.047
		c0.704-0.488-1.559-3.492-1.908-3.846c-2.685-2.725-5.167-5.671-7.502-8.699c-6.934-8.992-8.963-19.127-7.4-30.241
		c1.942-13.793,9.24-25.545,21.332-32.662c12.695-7.473,28.517-7.704,41.651-1.279c7.75,3.792,14.649,10.186,18.156,18.131
		c3.007,6.815,3.918,14.403,3.06,21.771c-1.7,14.557-11.555,27.181-25.046,32.66C57.69,95.664,41.009,92.189,30,81.699
		c-12.053-11.484-12.126-30.838-3.677-44.37c7.651-12.253,22.479-18.233,36.529-15.813c3.613,0.623,7.07,1.942,10.312,3.626
		c0.937,0.488,3.537,2.645,3.563,0.662c0.032-2.42-5.688-5.396-7.048-6.024c-3.604-1.661-7.507-2.589-11.436-3.021
		C46.566,15.47,34.887,20.299,27.01,28.86c-8.436,9.17-11.43,22.244-8.942,34.294c1.892,9.164,7.538,18.152,14.576,24.232
		c9.594,8.295,22.858,11.221,35.151,8.678c13.974-3.494,24.87-12.842,30.024-26.395C102.653,56.966,100.572,42.793,93.649,31.317z"
		/>
</g>
<rect x="413.06" y="39.342" fill="none" width="29.166" height="30.467"/>
<text transform="matrix(1 0 0 1 415.0435 68.7422)" fill="#FFFFFF" font-family="'PTMono-Regular'" font-size="42">’</text>
<rect x="419.392" y="38.343" fill="none" width="37.298" height="40.406"/>
<text transform="matrix(1 0 0 1 427.2407 66.7109)" fill="#FFFFFF" font-family="'Ayuthaya'" font-size="36">s</text>
</svg>
