<?xml version="1.0" encoding="utf-8"?>
<!-- Generator: Adobe Illustrator 16.0.0, SVG Export Plug-In . SVG Version: 6.00 Build 0)  -->
<!DOCTYPE svg PUBLIC "-//W3C//DTD SVG 1.1//EN" "http://www.w3.org/Graphics/SVG/1.1/DTD/svg11.dtd">
<svg version="1.1" id="teal_with_tag" xmlns="http://www.w3.org/2000/svg" xmlns:xlink="http://www.w3.org/1999/xlink" x="0px"
	 y="0px" width="424.8px" height="108px" viewBox="0 0 424.8 108" enable-background="new 0 0 424.8 108" xml:space="preserve">
<path fill="#949CA1" d="M162.237,87.03h-3.75l-0.576,1.949h-2.003l3.375-9.988h2.125l3.409,9.988h-1.996L162.237,87.03z
	 M161.742,85.4l-1.371-4.598l-1.387,4.598H161.742z M166.808,78.991h3.584c0.861,0.011,1.903,0.029,2.956,0.778
	c1.671,1.173,1.923,3.179,1.923,4.304c0,1.707-0.58,3.452-2.052,4.304c-0.99,0.576-2.037,0.59-3.21,0.603h-3.202V78.991z
	 M168.678,80.685v6.611h0.794c1.413,0,1.912-0.072,2.331-0.228c0.725-0.281,1.487-0.904,1.487-2.988c0-0.931-0.14-2.456-1.527-3.127
	c-0.539-0.239-0.836-0.253-2.095-0.269H168.678z M184.812,78.991l-2.841,9.988h-2.523l-2.942-9.988h1.967l2.232,7.882l2.168-7.882
	H184.812z M188.727,80.659v2.344h4.816v1.62h-4.816v2.673h5.628v1.684h-7.467v-9.988h7.108v1.668H188.727z M196.628,78.991h3.185
	c1.326,0.011,2.218,0.011,3.1,0.718c0.621,0.515,1.103,1.299,1.103,2.46c0,1.911-1.399,2.583-1.969,2.752l2.226,4.059h-2.137
	l-1.986-3.708h-1.665v3.708h-1.856V78.991z M198.485,80.604v3.127h0.646c0.644,0,0.884-0.018,1.234-0.024
	c0.408-0.02,1.752-0.092,1.752-1.544c0-0.215-0.01-0.953-0.787-1.352c-0.404-0.201-0.88-0.207-1.979-0.207H198.485z M212.848,80.685
	h-2.764v8.295h-1.863v-8.295h-2.707v-1.693h7.333V80.685z M216.966,78.991v9.988h-1.837v-9.988H216.966z M221.157,86.007
	c0.237,0.37,0.988,1.519,3.097,1.519c0.349,0,0.718-0.034,1.077-0.175c0.723-0.296,0.849-0.802,0.849-1.146
	c0-0.637-0.438-0.859-0.757-0.988c-0.219-0.084-0.247-0.1-1.16-0.311l-1.201-0.251c-0.636-0.158-0.948-0.232-1.256-0.359
	c-0.457-0.179-1.682-0.791-1.682-2.45c0-1.894,1.594-3.113,3.943-3.113c2.15,0,3.311,1.059,4.02,2.02l-1.528,1.146
	c-0.341-0.488-0.988-1.48-2.591-1.48c-1.002,0-1.881,0.454-1.881,1.219c0,0.854,0.936,1.02,1.843,1.187l1.033,0.229
	c1.341,0.28,3.234,0.838,3.234,2.97c0,2.297-2.116,3.21-4.241,3.21c-0.558,0-1.174-0.056-1.784-0.222
	c-0.666-0.198-1.844-0.683-2.592-1.898L221.157,86.007z M232.8,78.991v9.988h-1.839v-9.988H232.8z M242.129,78.991h1.835v9.988
	h-1.626l-4.374-7.005l0.116,7.005h-1.828v-9.988h1.686l4.412,7.057L242.129,78.991z M255.659,83.515v5.465h-1.605v-0.853
	c-0.89,0.884-1.897,1.105-2.73,1.105c-3.081,0-4.708-2.458-4.708-5.152c0-3.138,2.077-5.348,4.823-5.348
	c2.076,0,3.604,1.278,4.221,2.945l-1.786,0.721c-0.188-0.553-0.724-1.98-2.424-1.98c-1.877,0-2.799,1.641-2.799,3.607
	c0,2.195,1.204,3.457,2.83,3.457c1.047,0,2.295-0.556,2.461-2.321h-2.492v-1.646H255.659z M262.994,86.924h-1.155v-2.056h-2.064
	v-1.146h2.064v-2.06h1.155v2.06h2.046v1.146h-2.046V86.924z M277.489,86.193c-0.13,0.321-0.372,0.901-0.86,1.498
	c-0.706,0.823-1.829,1.541-3.458,1.541c-2.643,0-4.666-1.937-4.666-5.27c0-3.399,2.194-5.23,4.742-5.23
	c3.112,0,3.845,2.396,4.076,3.087l-1.869,0.495c-0.031-0.184-0.115-0.607-0.367-0.994c-0.217-0.312-0.769-0.876-1.802-0.876
	c-1.627,0-2.757,1.344-2.757,3.483c0,2.277,1.204,3.539,2.771,3.539c0.941,0,1.5-0.453,1.909-0.977
	c0.329-0.442,0.456-0.805,0.526-1.034L277.489,86.193z M279.713,78.991h3.185c1.33,0.011,2.223,0.011,3.099,0.718
	c0.624,0.515,1.104,1.299,1.104,2.46c0,1.911-1.405,2.583-1.97,2.752l2.216,4.059h-2.133l-1.98-3.708h-1.667v3.708h-1.854V78.991z
	 M281.566,80.604v3.127h0.646c0.643,0,0.878-0.018,1.233-0.024c0.416-0.02,1.755-0.092,1.755-1.544c0-0.215-0.014-0.953-0.79-1.352
	c-0.398-0.201-0.878-0.207-1.984-0.207H281.566z M291.497,80.659v2.344h4.813v1.62h-4.813v2.673h5.624v1.684h-7.461v-9.988h7.106
	v1.668H291.497z M304.671,87.03h-3.748l-0.578,1.949h-1.993l3.365-9.988h2.124l3.406,9.988h-1.991L304.671,87.03z M304.18,85.4
	l-1.368-4.598l-1.391,4.598H304.18z M315.043,80.685h-2.753v8.295h-1.87v-8.295h-2.701v-1.693h7.324V80.685z M319.166,78.991v9.988
	h-1.841v-9.988H319.166z M329.599,78.991l-2.846,9.988h-2.515l-2.947-9.988h1.966l2.235,7.882l2.166-7.882H329.599z M333.515,80.659
	v2.344h4.812v1.62h-4.812v2.673h5.625v1.684h-7.458v-9.988h7.102v1.668H333.515z M346.004,86.007c0.239,0.37,0.99,1.519,3.098,1.519
	c0.35,0,0.725-0.034,1.076-0.175c0.726-0.296,0.845-0.802,0.845-1.146c0-0.637-0.436-0.859-0.751-0.988
	c-0.223-0.084-0.257-0.1-1.153-0.311l-1.203-0.251c-0.64-0.158-0.947-0.232-1.265-0.359c-0.451-0.179-1.681-0.791-1.681-2.45
	c0-1.894,1.597-3.113,3.942-3.113c2.152,0,3.324,1.059,4.022,2.02l-1.529,1.146c-0.341-0.488-0.989-1.48-2.584-1.48
	c-1.009,0-1.89,0.454-1.89,1.219c0,0.854,0.94,1.02,1.844,1.187l1.036,0.229c1.34,0.28,3.233,0.838,3.233,2.97
	c0,2.297-2.117,3.21-4.241,3.21c-0.548,0-1.169-0.056-1.784-0.222c-0.665-0.198-1.837-0.683-2.587-1.898L346.004,86.007z
	 M362.049,80.685h-2.756v8.295h-1.869v-8.295h-2.704v-1.693h7.329V80.685z M368.768,87.03h-3.746l-0.582,1.949h-1.997l3.371-9.988
	h2.127l3.407,9.988h-1.998L368.768,87.03z M368.274,85.4l-1.375-4.598l-1.386,4.598H368.274z M375.339,83.149h4.177v1.603h-4.177
	v4.228h-1.851v-9.988h6.608v1.668h-4.758V83.149z M384.141,83.149h4.177v1.603h-4.177v4.228h-1.852v-9.988h6.608v1.668h-4.757
	V83.149z M393.198,78.991v9.988h-1.844v-9.988H393.198z M402.521,78.991h1.841v9.988h-1.628l-4.362-7.005l0.11,7.005h-1.825v-9.988
	h1.68l4.414,7.057L402.521,78.991z M416.059,83.515v5.465h-1.605v-0.853c-0.889,0.884-1.896,1.105-2.733,1.105
	c-3.082,0-4.708-2.458-4.708-5.152c0-3.138,2.08-5.348,4.818-5.348c2.093,0,3.611,1.278,4.229,2.945l-1.786,0.721
	c-0.189-0.553-0.725-1.98-2.423-1.98c-1.877,0-2.802,1.641-2.802,3.607c0,2.195,1.206,3.457,2.826,3.457
	c1.05,0,2.297-0.556,2.469-2.321h-2.493v-1.646H416.059z"/>
<path fill="#F05133" d="M317.129,48.224c-1.97-2.461-4.987-3.94-8.306-3.94c-5.914,0-10.707,4.801-10.707,10.711
	c0,5.843,4.793,10.645,10.707,10.645c2.701,0,5.224-1.05,7.197-2.771c1.414-1.416,3.755-1.541,5.291-0.244
	c-2.648,4.244-7.321,6.951-12.488,6.951c-8.066,0-14.647-6.521-14.647-14.581c0-8.064,6.581-14.647,14.647-14.647
	c5.84,0,10.952,3.383,13.292,8.489C320.516,49.822,318.481,49.577,317.129,48.224z M347.356,45.148
	c-0.923-0.556-2.093-0.865-3.262-0.865c-3.63,0-6.652,2.953-6.652,6.585v14.956c0,2.094-1.715,3.752-3.812,3.752h-0.123V50.869
	c0-5.785,4.741-10.521,10.588-10.521c3.321,0,6.334,1.537,8.246,3.999C351.106,45.763,349.015,46.13,347.356,45.148z
	 M326.651,36.388c1.17,0,2.152-0.926,2.152-2.093c0-1.167-0.982-2.15-2.152-2.15c-1.169,0-2.095,0.983-2.095,2.15
	C324.557,35.462,325.482,36.388,326.651,36.388z M324.737,40.348h-0.051v25.414c0,2.093,1.723,3.814,3.875,3.814h0.12V44.165
	C328.682,42.009,326.839,40.348,324.737,40.348z M384.342,69.576c-2.147,0-3.875-1.722-3.875-3.814V28.533h0.128
	c2.152,0,3.812,1.782,3.812,3.876v37.167H384.342z M412.893,56.963c-5.226,0-19.197,0-22.152,0c0.982,4.92,5.537,8.677,11.015,8.677
	c2.834,0,5.537-1.05,7.568-2.771c1.477-1.416,3.751-1.541,5.417-0.306c-2.708,4.246-7.631,7.013-12.985,7.013
	c-8.37,0-15.141-6.521-15.141-14.581c0-8.124,6.771-14.647,15.141-14.647c7.755,0,14.281,5.598,15.015,12.858
	C417.019,55.361,414.982,56.902,412.893,56.963z M401.755,44.284c-5.478,0-10.032,3.754-11.015,8.74h21.164
	c0.374,0,0.74-0.309,0.68-0.681C411.357,47.731,406.985,44.284,401.755,44.284z M372.888,48.224c-1.971-2.461-4.984-3.94-8.308-3.94
	c-5.909,0-10.701,4.801-10.701,10.711c0,5.843,4.792,10.645,10.701,10.645c2.707,0,5.229-1.05,7.202-2.771
	c1.414-1.416,3.752-1.541,5.286-0.244c-2.643,4.244-7.319,6.951-12.488,6.951c-8.062,0-14.643-6.521-14.643-14.581
	c0-8.064,6.581-14.647,14.643-14.647c5.846,0,10.954,3.383,13.292,8.489C376.276,49.822,374.242,49.577,372.888,48.224z
	 M414.296,38.879l-0.608-1.215h-0.547v1.215h-0.438v-2.883h1.118c0.547,0,0.895,0.353,0.895,0.842c0,0.414-0.251,0.676-0.574,0.766
	l0.664,1.275H414.296z M413.789,36.389h-0.648v0.903h0.648c0.292,0,0.49-0.166,0.49-0.449
	C414.279,36.559,414.081,36.389,413.789,36.389z M411.205,37.437c0-1.337,1.085-2.42,2.423-2.42l0,0c1.336,0,2.42,1.083,2.422,2.42
	l0,0c-0.002,1.337-1.086,2.422-2.422,2.422l0,0C412.29,39.859,411.205,38.774,411.205,37.437L411.205,37.437z M411.611,37.437
	c0.002,1.114,0.902,2.014,2.017,2.018l0,0c1.111-0.003,2.014-0.903,2.015-2.018l0,0c-0.001-1.112-0.903-2.014-2.015-2.016l0,0
	C412.514,35.423,411.613,36.325,411.611,37.437L411.611,37.437z"/>
<path fill="#8AD4DF" d="M132.111,48.224c-1.969-2.461-4.99-3.94-8.309-3.94c-5.91,0-10.706,4.801-10.706,10.711
	c0,5.843,4.796,10.645,10.706,10.645c2.706,0,5.229-1.05,7.198-2.771c1.422-1.416,3.754-1.541,5.291-0.244
	c-2.64,4.244-7.322,6.951-12.488,6.951c-8.066,0-14.644-6.521-14.644-14.581c0-8.064,6.578-14.647,14.644-14.647
	c5.848,0,10.952,3.383,13.291,8.489C135.495,49.822,133.459,49.577,132.111,48.224z M153.523,45.148
	c-0.928-0.556-2.094-0.865-3.267-0.865c-3.63,0-6.647,2.953-6.647,6.585v14.956c0,2.094-1.72,3.752-3.813,3.752h-0.125V50.869
	c0-5.785,4.741-10.521,10.585-10.521c3.322,0,6.339,1.537,8.25,3.999C157.271,45.763,155.18,46.13,153.523,45.148z M182.194,56.963
	c-5.232,0-19.202,0-22.157,0c0.986,4.92,5.544,8.677,11.022,8.677c2.827,0,5.532-1.05,7.564-2.771
	c1.485-1.416,3.75-1.541,5.412-0.306c-2.703,4.246-7.63,7.013-12.976,7.013c-8.375,0-15.147-6.521-15.147-14.581
	c0-8.124,6.772-14.647,15.147-14.647c7.747,0,14.274,5.598,15.014,12.858C186.311,55.361,184.284,56.902,182.194,56.963z
	 M171.059,44.284c-5.478,0-10.036,3.754-11.022,8.74h21.171c0.37,0,0.737-0.309,0.679-0.681
	C180.653,47.731,176.283,44.284,171.059,44.284z M217.803,69.576c-2.155,0-3.945-1.722-3.945-3.814V54.995
	c0-6.65-4.308-10.711-11.197-10.711c-5.907,0-10.707,4.801-10.707,10.711c0,5.843,4.8,10.645,10.707,10.645
	c3.266,0,6.339-1.354,8.432-3.629c0.121,0.182,0.247,0.367,0.371,0.553c1.046,1.906,0.308,4.306-1.606,5.354
	c-2.147,1.107-4.674,1.658-7.196,1.658c-8.063,0-14.645-6.521-14.645-14.581c0-8.124,6.582-14.647,14.645-14.647
	c9.049,0,15.142,5.846,15.142,14.647V69.576z M288.1,56.963c-5.23,0-19.197,0-22.153,0c0.982,4.92,5.539,8.677,11.016,8.677
	c2.834,0,5.537-1.05,7.573-2.771c1.475-1.416,3.745-1.541,5.409-0.306c-2.711,4.246-7.631,7.013-12.982,7.013
	c-8.367,0-15.137-6.521-15.137-14.581c0-8.124,6.77-14.647,15.137-14.647c7.757,0,14.276,5.598,15.019,12.858
	C292.225,55.361,290.19,56.902,288.1,56.963z M276.962,44.284c-5.477,0-10.033,3.754-11.016,8.74h21.169
	c0.372,0,0.742-0.309,0.677-0.681C286.56,47.731,282.192,44.284,276.962,44.284z M262.957,40.532
	c-2.032-0.678-4.344,0.367-5.023,2.4l-5.397,15.757h0.006l-2.182,6.335c0,0.062,0,0.062,0,0.123
	c-0.059,0.06-0.059,0.184-0.124,0.244c0-0.061-0.057-0.185-0.057-0.244c0-0.061,0-0.061-0.063-0.123l-7.568-22.092
	c-0.674-2.034-2.958-3.079-4.982-2.4c0,0,0,0,8.857,25.783c0-0.058-0.059-0.058-0.059-0.121c0.612,2.092,2.153,3.382,3.872,3.382
	c1.785,0,3.324-1.29,3.882-3.382c0,0.063,0,0.063,0,0.121l2.597-7.626h0.008C262.951,40.55,262.957,40.532,262.957,40.532z
	 M213.702,40.348v0.121c0,2.091,1.781,3.814,3.879,3.814h5.045v25.292h0.062c2.154,0,3.876-1.722,3.876-3.814V27.875h-0.125
	c-2.093,0-3.812,1.726-3.812,3.754v8.719H213.702z M231.438,40.348h-0.062v25.414c0,2.093,1.721,3.814,3.871,3.814h0.128V44.165
	C235.376,42.009,233.529,40.348,231.438,40.348z M233.346,36.388c1.168,0,2.152-0.926,2.152-2.093c0-1.167-0.984-2.15-2.152-2.15
	c-1.169,0-2.092,0.983-2.092,2.15C231.254,35.462,232.177,36.388,233.346,36.388z"/>
<g>
	<path opacity="0.3" fill="#949CA1" d="M93.226,32.728C86.087,20.897,74.89,14.086,61.142,11.675
		C47.013,9.2,32.309,14.181,22.038,24.013C11.019,34.564,6.308,50.435,8.558,65.354c1.537,10.2,5.767,20.337,13.558,27.315
		c1.278,1.145,5.147,4.254,6.657,3.205c0.703-0.489-1.351-2.564-1.7-2.921c-2.685-2.724-5.167-5.67-7.502-8.696
		c-6.933-8.994-8.964-19.129-7.399-30.243c1.941-13.795,9.239-25.546,21.33-32.662c12.695-7.473,28.518-7.705,41.652-1.279
		c7.75,3.791,14.65,10.186,18.156,18.131c3.007,6.815,3.919,14.404,3.059,21.771c-1.698,14.554-11.554,27.18-25.044,32.662
		c-14.181,5.761-30.863,2.286-41.871-8.203c-12.052-11.486-12.126-30.839-3.677-44.37c7.652-12.253,22.479-18.233,36.529-15.813
		c3.613,0.621,7.07,1.941,10.312,3.627c0.938,0.486,3.538,2.644,3.564,0.659c0.032-2.418-5.687-5.395-7.048-6.022
		c-3.603-1.661-7.506-2.589-11.437-3.021c-11.676-1.286-23.355,3.54-31.232,12.1c-8.436,9.172-11.431,22.245-8.942,34.295
		c1.891,9.164,7.538,18.152,14.576,24.236c9.593,8.292,22.858,11.221,35.152,8.673c13.974-3.492,24.869-12.837,30.023-26.393
		C102.106,59.699,100.148,44.202,93.226,32.728z"/>
	<path fill="#F05133" d="M93.649,31.317c-7.139-11.831-18.213-19.964-31.96-22.375C47.56,6.463,32.856,11.446,22.584,21.28
		C11.564,31.829,6.855,47.699,9.104,62.619c1.538,10.199,5.652,20.419,13.444,27.398c1.278,1.144,5.471,5.098,6.98,4.048
		c0.704-0.489-1.559-3.493-1.908-3.846c-2.685-2.725-5.167-5.671-7.502-8.7c-6.934-8.991-8.963-19.126-7.4-30.24
		c1.942-13.793,9.24-25.545,21.332-32.662c12.695-7.473,28.517-7.704,41.651-1.279c7.75,3.792,14.649,10.186,18.156,18.131
		c3.007,6.815,3.918,14.403,3.06,21.771C95.217,71.797,85.362,84.421,71.871,89.9C57.69,95.664,41.009,92.189,30,81.699
		c-12.053-11.484-12.126-30.838-3.677-44.37c7.651-12.253,22.479-18.233,36.529-15.813c3.613,0.623,7.07,1.942,10.312,3.626
		c0.937,0.488,3.537,2.645,3.563,0.662c0.032-2.42-5.688-5.396-7.048-6.024c-3.604-1.661-7.507-2.589-11.436-3.021
		c-11.677-1.289-23.356,3.54-31.233,12.101c-8.436,9.17-11.43,22.244-8.942,34.294c1.892,9.165,7.538,18.153,14.576,24.233
		c9.594,8.295,22.858,11.221,35.151,8.677c13.974-3.493,24.87-12.841,30.024-26.394C102.653,56.966,100.572,42.793,93.649,31.317z"
		/>
</g>
</svg>
