<?xml version="1.0" encoding="utf-8"?>
<!-- Generator: Adobe Illustrator 16.0.0, SVG Export Plug-In . SVG Version: 6.00 Build 0)  -->
<!DOCTYPE svg PUBLIC "-//W3C//DTD SVG 1.1//EN" "http://www.w3.org/Graphics/SVG/1.1/DTD/svg11.dtd">
<svg version="1.1" id="icon" xmlns="http://www.w3.org/2000/svg" xmlns:xlink="http://www.w3.org/1999/xlink" x="0px" y="0px"
	 width="1000px" height="476px" viewBox="0 260.5 1000 476" enable-background="new 0 260.5 1000 476" xml:space="preserve">
<g>
	<g>
		<g>
			<g>
				
					<path fill="#FFFFFF" stroke="#E5615B" stroke-width="2" stroke-linecap="round" stroke-linejoin="round" stroke-miterlimit="10" d="
					M504.291,374.655v162.137c0,1.313-1.066,2.378-2.379,2.378c-1.313,0-2.378-1.064-2.378-2.378V374.655"/>
			</g>
		</g>
	</g>
	<g>
		
			<circle fill="#FFFFFF" stroke="#E5615B" stroke-width="6" stroke-linecap="round" stroke-miterlimit="10" cx="502.086" cy="438.554" r="46.632"/>
		
			<circle fill="#FFFFFF" stroke="#E5615B" stroke-width="4.0827" stroke-linecap="round" stroke-miterlimit="10" cx="502.085" cy="438.554" r="15.3"/>
		<circle fill="#FFFFFF" cx="502.086" cy="438.554" r="4.9"/>
		
			<path fill="#FFFFFF" stroke="#E5615B" stroke-width="2.3074" stroke-linecap="round" stroke-linejoin="round" stroke-miterlimit="10" d="
			M487.087,474.246c-13.927-5.859-23.706-19.633-23.706-35.692c0-7.074,1.898-13.706,5.211-19.411"/>
		
			<path fill="#FFFFFF" stroke="#E5615B" stroke-width="2.3074" stroke-linecap="round" stroke-linejoin="round" stroke-miterlimit="10" d="
			M520.083,404.28c12.312,6.479,20.708,19.396,20.708,34.274c0,5.344-1.086,10.436-3.044,15.065"/>
	</g>
	<g>
		<g>
			<g>
				
					<path fill="#FFFFFF" stroke="#E5615B" stroke-width="2" stroke-linecap="round" stroke-linejoin="round" stroke-miterlimit="10" d="
					M504.291,355.629v82.864c0,1.313-1.066,2.378-2.379,2.378c-1.313,0-2.378-1.064-2.378-2.378v-82.864"/>
			</g>
			<g>
				<g>
					
						<path fill="#FFFFFF" stroke="#E5615B" stroke-width="2.3074" stroke-linecap="round" stroke-linejoin="round" stroke-miterlimit="10" d="
						M503.992,293.303v-15.864c0-1.147-0.933-1.62-2.08-1.62c-1.15,0-2.083,0.473-2.083,1.62v15.866
						c0.613,0.021,1.294,0.075,2.026,0.075C502.633,293.381,503.352,293.321,503.992,293.303z"/>
					
						<path fill="#FFFFFF" stroke="#E5615B" stroke-width="2.3074" stroke-linecap="round" stroke-linejoin="round" stroke-miterlimit="10" d="
						M506.4,296.158v-0.957c0-2.51-2.033-1.82-4.545-1.82c-2.508,0-4.546-0.69-4.546,1.82v0.957H506.4z"/>
					
						<path fill="#FFFFFF" stroke="#E5615B" stroke-width="2.3074" stroke-linecap="round" stroke-linejoin="round" stroke-miterlimit="10" d="
						M501.912,275.819c0.547,0,1.037,0.117,1.408,0.355v-3.945c0-0.778-0.458-2.308-1.408-2.308c-0.953,0-1.412,1.53-1.412,2.308
						v3.945C500.872,275.937,501.362,275.819,501.912,275.819z"/>
					
						<line fill="#FFFFFF" stroke="#E5615B" stroke-width="2.3074" stroke-linecap="round" stroke-linejoin="round" stroke-miterlimit="10" x1="503.992" y1="278.503" x2="499.83" y2="278.503"/>
					
						<line fill="#FFFFFF" stroke="#E5615B" stroke-width="2.3074" stroke-linecap="round" stroke-linejoin="round" stroke-miterlimit="10" x1="503.992" y1="281.765" x2="499.83" y2="281.765"/>
				</g>
				<g>
					
						<rect x="495.723" y="308.992" fill="#FFFFFF" stroke="#E5615B" stroke-width="2.3074" stroke-linecap="round" stroke-linejoin="round" stroke-miterlimit="10" width="12.267" height="1.865"/>
					
						<rect x="495.723" y="314.676" fill="#FFFFFF" stroke="#E5615B" stroke-width="2.3074" stroke-linecap="round" stroke-linejoin="round" stroke-miterlimit="10" width="12.267" height="1.68"/>
					
						<path fill="#FFFFFF" stroke="#E5615B" stroke-width="2.3074" stroke-linecap="round" stroke-linejoin="round" stroke-miterlimit="10" d="
						M501.855,295.384c-3.386,0-6.133-0.928-6.133,2.458v7.329h12.267v-7.329C507.989,294.456,505.244,295.384,501.855,295.384z"/>
					
						<path fill="#FFFFFF" stroke="#E5615B" stroke-width="2.3074" stroke-linecap="round" stroke-linejoin="round" stroke-miterlimit="10" d="
						M495.723,338.021c0,2.25,1.215,4.212,3.021,5.28l1.438,9.39h3.459l1.448-9.464c1.739-1.083,2.9-3.006,2.9-5.207v-12.833
						h-12.267V338.021z"/>
					
						<rect x="495.723" y="320.178" fill="#FFFFFF" stroke="#E5615B" stroke-width="2.3074" stroke-linecap="round" stroke-linejoin="round" stroke-miterlimit="10" width="12.267" height="1.19"/>
				</g>
			</g>
		</g>
	</g>
</g>
<g>
	<g>
		<g>
			
				<rect x="440.13" y="610.01" fill="#FFFFFF" stroke="#E5615B" stroke-width="2.048" stroke-linecap="round" stroke-linejoin="round" stroke-miterlimit="10" width="3.225" height="59.649"/>
		</g>
		<g>
			
				<rect x="500.604" y="610.01" fill="#FFFFFF" stroke="#E5615B" stroke-width="2.048" stroke-linecap="round" stroke-linejoin="round" stroke-miterlimit="10" width="3.225" height="59.649"/>
		</g>
		<g>
			
				<rect x="561.078" y="610.01" fill="#FFFFFF" stroke="#E5615B" stroke-width="2.048" stroke-linecap="round" stroke-linejoin="round" stroke-miterlimit="10" width="3.226" height="59.649"/>
		</g>
		<g>
			<g>
				
					<rect x="434.696" y="643.62" transform="matrix(0.7881 0.6156 -0.6156 0.7881 496.6401 -153.9994)" fill="#FFFFFF" width="74.542" height="1.259"/>
			</g>
		</g>
		<g>
			<g>
				
					<rect x="471.34" y="606.979" transform="matrix(0.6179 0.7862 -0.7862 0.6179 686.8623 -124.9288)" fill="#FFFFFF" width="1.262" height="74.543"/>
			</g>
		</g>
		<g>
			<g>
				
					<rect x="495.279" y="643.62" transform="matrix(0.788 0.6156 -0.6156 0.788 509.4839 -191.2949)" fill="#FFFFFF" width="74.541" height="1.261"/>
			</g>
		</g>
		<g>
			<g>
				
					<rect x="531.921" y="606.979" transform="matrix(0.6172 0.7868 -0.7868 0.6172 710.7546 -172.3971)" fill="#FFFFFF" width="1.261" height="74.543"/>
			</g>
		</g>
		<g>
			<g>
				<g>
					<path fill="#FFFFFF" d="M577.318,616.127c0,2.75-2.25,5-5,5H432.116c-2.75,0-5-2.25-5-5v-64.733c0-2.75,2.25-5,5-5h140.203
						c2.75,0,5,2.25,5,5V616.127z"/>
					<path fill="none" stroke="#E5615B" stroke-width="4.7523" stroke-linecap="round" stroke-miterlimit="10" d="M577.318,616.127
						c0,2.75-2.25,5-5,5H432.116c-2.75,0-5-2.25-5-5v-64.733c0-2.75,2.25-5,5-5h140.203c2.75,0,5,2.25,5,5V616.127z"/>
				</g>
			</g>
		</g>
	</g>
	<g>
		<g>
			<g>
				<g>
					<g>
						<g>
							<path fill="#FFFFFF" d="M443.134,554.224c-2.663,0-4.845,0.019-4.849,0.042s-0.006,3.4-0.006,7.451v42.845
								c0,4.05,0.062,7.505,0.139,7.676c0.077,0.172,2.389,0.312,4.715,0.312c2.327,0,4.371-0.063,4.543-0.14
								c0.172-0.078,0.313-3.799,0.313-7.849v-42.845c0-4.051-0.001-7.384-0.002-7.408
								C447.986,554.285,445.797,554.224,443.134,554.224z"/>
							<path fill="none" stroke="#E5615B" stroke-linecap="round" stroke-linejoin="round" stroke-miterlimit="10" d="
								M443.134,554.224c-2.663,0-4.845,0.019-4.849,0.042s-0.006,3.4-0.006,7.451v42.845c0,4.05,0.062,7.505,0.139,7.676
								c0.077,0.172,2.389,0.312,4.715,0.312c2.327,0,4.371-0.063,4.543-0.14c0.172-0.078,0.313-3.799,0.313-7.849v-42.845
								c0-4.051-0.001-7.384-0.002-7.408C447.986,554.285,445.797,554.224,443.134,554.224z"/>
						</g>
						<g>
							<path fill="#FFFFFF" d="M443.135,554.224c-2.52,0-4.587,0.019-4.594,0.042c-0.007,0.022-0.012,3.4-0.012,7.451v42.625
								c0,4.05,0.038,7.447,0.083,7.55s2.195,0.187,4.521,0.187c2.327,0,4.314-0.037,4.418-0.084
								c0.104-0.046,0.188-3.603,0.188-7.652v-42.625c0-4.051-0.002-7.385-0.005-7.408
								C447.732,554.284,445.655,554.224,443.135,554.224z"/>
							<path fill="none" stroke="#E5615B" stroke-linecap="round" stroke-linejoin="round" stroke-miterlimit="10" d="
								M443.135,554.224c-2.52,0-4.587,0.019-4.594,0.042c-0.007,0.022-0.012,3.4-0.012,7.451v42.625c0,4.05,0.038,7.447,0.083,7.55
								s2.195,0.187,4.521,0.187c2.327,0,4.314-0.037,4.418-0.084c0.104-0.046,0.188-3.603,0.188-7.652v-42.625
								c0-4.051-0.002-7.385-0.005-7.408C447.732,554.284,445.655,554.224,443.135,554.224z"/>
						</g>
					</g>
					<g>
						<g>
							<path fill="#FFFFFF" d="M453.02,554.224c-2.663,0-4.845,0.019-4.849,0.042c-0.003,0.023-0.006,3.4-0.006,7.451v42.845
								c0,4.05,0.063,7.505,0.14,7.676c0.077,0.172,2.388,0.312,4.715,0.312c2.327,0,4.372-0.063,4.544-0.14
								c0.172-0.078,0.312-3.799,0.312-7.849v-42.845c0-4.051-0.001-7.384-0.002-7.408
								C457.873,554.285,455.683,554.224,453.02,554.224z"/>
							<path fill="none" stroke="#E5615B" stroke-linecap="round" stroke-linejoin="round" stroke-miterlimit="10" d="
								M453.02,554.224c-2.663,0-4.845,0.019-4.849,0.042c-0.003,0.023-0.006,3.4-0.006,7.451v42.845c0,4.05,0.063,7.505,0.14,7.676
								c0.077,0.172,2.388,0.312,4.715,0.312c2.327,0,4.372-0.063,4.544-0.14c0.172-0.078,0.312-3.799,0.312-7.849v-42.845
								c0-4.051-0.001-7.384-0.002-7.408C457.873,554.285,455.683,554.224,453.02,554.224z"/>
						</g>
						<g>
							<path fill="#FFFFFF" d="M453.02,554.224c-2.52,0-4.586,0.019-4.593,0.042c-0.007,0.022-0.013,3.4-0.013,7.451v42.625
								c0,4.05,0.038,7.447,0.084,7.55c0.046,0.103,2.195,0.187,4.521,0.187c2.327,0,4.315-0.037,4.418-0.084
								c0.103-0.046,0.188-3.603,0.188-7.652v-42.625c0-4.051-0.002-7.385-0.005-7.408
								C457.618,554.284,455.539,554.224,453.02,554.224z"/>
							<path fill="none" stroke="#E5615B" stroke-linecap="round" stroke-linejoin="round" stroke-miterlimit="10" d="
								M453.02,554.224c-2.52,0-4.586,0.019-4.593,0.042c-0.007,0.022-0.013,3.4-0.013,7.451v42.625c0,4.05,0.038,7.447,0.084,7.55
								c0.046,0.103,2.195,0.187,4.521,0.187c2.327,0,4.315-0.037,4.418-0.084c0.103-0.046,0.188-3.603,0.188-7.652v-42.625
								c0-4.051-0.002-7.385-0.005-7.408C457.618,554.284,455.539,554.224,453.02,554.224z"/>
						</g>
					</g>
					<g>
						<g>
							<path fill="#FFFFFF" d="M462.907,554.224c-2.663,0-4.845,0.019-4.849,0.042s-0.007,3.4-0.007,7.451v42.845
								c0,4.05,0.063,7.505,0.14,7.676c0.077,0.172,2.388,0.312,4.714,0.312s4.372-0.063,4.544-0.14
								c0.172-0.078,0.314-3.799,0.314-7.849v-42.845c0-4.051-0.001-7.384-0.002-7.408
								C467.759,554.285,465.57,554.224,462.907,554.224z"/>
							<path fill="none" stroke="#E5615B" stroke-linecap="round" stroke-linejoin="round" stroke-miterlimit="10" d="
								M462.907,554.224c-2.663,0-4.845,0.019-4.849,0.042s-0.007,3.4-0.007,7.451v42.845c0,4.05,0.063,7.505,0.14,7.676
								c0.077,0.172,2.388,0.312,4.714,0.312s4.372-0.063,4.544-0.14c0.172-0.078,0.314-3.799,0.314-7.849v-42.845
								c0-4.051-0.001-7.384-0.002-7.408C467.759,554.285,465.57,554.224,462.907,554.224z"/>
						</g>
						<g>
							<path fill="#FFFFFF" d="M462.906,554.224c-2.52,0-4.587,0.019-4.594,0.042c-0.006,0.022-0.011,3.4-0.011,7.451v42.625
								c0,4.05,0.038,7.447,0.083,7.55c0.046,0.103,2.193,0.187,4.52,0.187s4.315-0.037,4.418-0.084
								c0.104-0.046,0.188-3.603,0.188-7.652v-42.625c0-4.051-0.002-7.385-0.004-7.408
								C467.504,554.284,465.426,554.224,462.906,554.224z"/>
							<path fill="none" stroke="#E5615B" stroke-linecap="round" stroke-linejoin="round" stroke-miterlimit="10" d="
								M462.906,554.224c-2.52,0-4.587,0.019-4.594,0.042c-0.006,0.022-0.011,3.4-0.011,7.451v42.625c0,4.05,0.038,7.447,0.083,7.55
								c0.046,0.103,2.193,0.187,4.52,0.187s4.315-0.037,4.418-0.084c0.104-0.046,0.188-3.603,0.188-7.652v-42.625
								c0-4.051-0.002-7.385-0.004-7.408C467.504,554.284,465.426,554.224,462.906,554.224z"/>
						</g>
					</g>
					<g>
						<g>
							<path fill="#FFFFFF" d="M472.791,554.224c-2.664,0-4.845,0.019-4.849,0.042s-0.006,3.4-0.006,7.451v42.845
								c0,4.05,0.063,7.505,0.14,7.676c0.077,0.172,2.389,0.312,4.716,0.312s4.372-0.063,4.543-0.14
								c0.171-0.078,0.312-3.799,0.312-7.849v-42.845c0-4.051-0.001-7.384-0.002-7.408
								C477.644,554.285,475.454,554.224,472.791,554.224z"/>
							<path fill="none" stroke="#E5615B" stroke-linecap="round" stroke-linejoin="round" stroke-miterlimit="10" d="
								M472.791,554.224c-2.664,0-4.845,0.019-4.849,0.042s-0.006,3.4-0.006,7.451v42.845c0,4.05,0.063,7.505,0.14,7.676
								c0.077,0.172,2.389,0.312,4.716,0.312s4.372-0.063,4.543-0.14c0.171-0.078,0.312-3.799,0.312-7.849v-42.845
								c0-4.051-0.001-7.384-0.002-7.408C477.644,554.285,475.454,554.224,472.791,554.224z"/>
						</g>
						<g>
							<path fill="#FFFFFF" d="M472.791,554.224c-2.52,0-4.586,0.019-4.593,0.042c-0.007,0.022-0.012,3.4-0.012,7.451v42.625
								c0,4.05,0.038,7.447,0.084,7.55c0.046,0.103,2.194,0.187,4.521,0.187s4.314-0.037,4.417-0.084
								c0.104-0.046,0.188-3.603,0.188-7.652v-42.625c0-4.051-0.002-7.385-0.004-7.408
								C477.391,554.284,475.311,554.224,472.791,554.224z"/>
							<path fill="none" stroke="#E5615B" stroke-linecap="round" stroke-linejoin="round" stroke-miterlimit="10" d="
								M472.791,554.224c-2.52,0-4.586,0.019-4.593,0.042c-0.007,0.022-0.012,3.4-0.012,7.451v42.625c0,4.05,0.038,7.447,0.084,7.55
								c0.046,0.103,2.194,0.187,4.521,0.187s4.314-0.037,4.417-0.084c0.104-0.046,0.188-3.603,0.188-7.652v-42.625
								c0-4.051-0.002-7.385-0.004-7.408C477.391,554.284,475.311,554.224,472.791,554.224z"/>
						</g>
					</g>
					<g>
						<g>
							<path fill="#FFFFFF" d="M482.678,554.224c-2.664,0-4.846,0.019-4.85,0.042s-0.007,3.4-0.007,7.451v42.845
								c0,4.05,0.063,7.505,0.14,7.676c0.077,0.172,2.39,0.312,4.716,0.312c2.327,0,4.371-0.063,4.542-0.14
								c0.172-0.078,0.312-3.799,0.312-7.849v-42.845c0-4.051-0.001-7.384-0.002-7.408
								C487.53,554.285,485.341,554.224,482.678,554.224z"/>
							<path fill="none" stroke="#E5615B" stroke-linecap="round" stroke-linejoin="round" stroke-miterlimit="10" d="
								M482.678,554.224c-2.664,0-4.846,0.019-4.85,0.042s-0.007,3.4-0.007,7.451v42.845c0,4.05,0.063,7.505,0.14,7.676
								c0.077,0.172,2.39,0.312,4.716,0.312c2.327,0,4.371-0.063,4.542-0.14c0.172-0.078,0.312-3.799,0.312-7.849v-42.845
								c0-4.051-0.001-7.384-0.002-7.408C487.53,554.285,485.341,554.224,482.678,554.224z"/>
						</g>
						<g>
							<path fill="#FFFFFF" d="M482.676,554.224c-2.519,0-4.585,0.019-4.592,0.042c-0.006,0.022-0.012,3.4-0.012,7.451v42.625
								c0,4.05,0.038,7.447,0.084,7.55c0.046,0.103,2.193,0.187,4.521,0.187s4.315-0.037,4.419-0.084
								c0.104-0.046,0.188-3.603,0.188-7.652v-42.625c0-4.051-0.002-7.385-0.005-7.408
								C487.276,554.284,485.195,554.224,482.676,554.224z"/>
							<path fill="none" stroke="#E5615B" stroke-linecap="round" stroke-linejoin="round" stroke-miterlimit="10" d="
								M482.676,554.224c-2.519,0-4.585,0.019-4.592,0.042c-0.006,0.022-0.012,3.4-0.012,7.451v42.625
								c0,4.05,0.038,7.447,0.084,7.55c0.046,0.103,2.193,0.187,4.521,0.187s4.315-0.037,4.419-0.084
								c0.104-0.046,0.188-3.603,0.188-7.652v-42.625c0-4.051-0.002-7.385-0.005-7.408
								C487.276,554.284,485.195,554.224,482.676,554.224z"/>
						</g>
					</g>
					<g>
						<g>
							<path fill="#FFFFFF" d="M492.562,554.224c-2.663,0-4.845,0.019-4.849,0.042c-0.004,0.023-0.007,3.4-0.007,7.451v42.845
								c0,4.05,0.063,7.505,0.14,7.676c0.077,0.172,2.389,0.312,4.716,0.312c2.327,0,4.372-0.063,4.544-0.14
								c0.173-0.078,0.314-3.799,0.314-7.849v-42.845c0-4.051-0.001-7.384-0.003-7.408
								C497.416,554.285,495.226,554.224,492.562,554.224z"/>
							<path fill="none" stroke="#E5615B" stroke-linecap="round" stroke-linejoin="round" stroke-miterlimit="10" d="
								M492.562,554.224c-2.663,0-4.845,0.019-4.849,0.042c-0.004,0.023-0.007,3.4-0.007,7.451v42.845
								c0,4.05,0.063,7.505,0.14,7.676c0.077,0.172,2.389,0.312,4.716,0.312c2.327,0,4.372-0.063,4.544-0.14
								c0.173-0.078,0.314-3.799,0.314-7.849v-42.845c0-4.051-0.001-7.384-0.003-7.408
								C497.416,554.285,495.226,554.224,492.562,554.224z"/>
						</g>
						<g>
							<path fill="#FFFFFF" d="M492.562,554.224c-2.52,0-4.587,0.019-4.593,0.042c-0.006,0.022-0.012,3.4-0.012,7.451v42.625
								c0,4.05,0.038,7.447,0.084,7.55c0.046,0.103,2.193,0.187,4.521,0.187c2.327,0,4.315-0.037,4.419-0.084
								c0.104-0.046,0.188-3.603,0.188-7.652v-42.625c0-4.051-0.002-7.385-0.005-7.408
								C497.162,554.284,495.083,554.224,492.562,554.224z"/>
							<path fill="none" stroke="#E5615B" stroke-linecap="round" stroke-linejoin="round" stroke-miterlimit="10" d="
								M492.562,554.224c-2.52,0-4.587,0.019-4.593,0.042c-0.006,0.022-0.012,3.4-0.012,7.451v42.625c0,4.05,0.038,7.447,0.084,7.55
								c0.046,0.103,2.193,0.187,4.521,0.187c2.327,0,4.315-0.037,4.419-0.084c0.104-0.046,0.188-3.603,0.188-7.652v-42.625
								c0-4.051-0.002-7.385-0.005-7.408C497.162,554.284,495.083,554.224,492.562,554.224z"/>
						</g>
					</g>
					<g>
						<g>
							<path fill="#FFFFFF" d="M502.449,554.224c-2.664,0-4.845,0.019-4.849,0.042s-0.007,3.4-0.007,7.451v42.845
								c0,4.05,0.063,7.505,0.14,7.676c0.077,0.172,2.39,0.312,4.717,0.312s4.371-0.063,4.543-0.14
								c0.172-0.078,0.312-3.799,0.312-7.849v-42.845c0-4.051-0.001-7.384-0.003-7.408
								C507.302,554.285,505.112,554.224,502.449,554.224z"/>
							<path fill="none" stroke="#E5615B" stroke-linecap="round" stroke-linejoin="round" stroke-miterlimit="10" d="
								M502.449,554.224c-2.664,0-4.845,0.019-4.849,0.042s-0.007,3.4-0.007,7.451v42.845c0,4.05,0.063,7.505,0.14,7.676
								c0.077,0.172,2.39,0.312,4.717,0.312s4.371-0.063,4.543-0.14c0.172-0.078,0.312-3.799,0.312-7.849v-42.845
								c0-4.051-0.001-7.384-0.003-7.408C507.302,554.285,505.112,554.224,502.449,554.224z"/>
						</g>
						<g>
							<path fill="#FFFFFF" d="M502.449,554.224c-2.519,0-4.586,0.019-4.593,0.042c-0.007,0.022-0.012,3.4-0.012,7.451v42.625
								c0,4.05,0.038,7.447,0.084,7.55c0.046,0.103,2.194,0.187,4.521,0.187c2.327,0,4.314-0.037,4.418-0.084
								c0.104-0.046,0.188-3.603,0.188-7.652v-42.625c0-4.051-0.002-7.385-0.005-7.408
								C507.047,554.284,504.969,554.224,502.449,554.224z"/>
							<path fill="none" stroke="#E5615B" stroke-linecap="round" stroke-linejoin="round" stroke-miterlimit="10" d="
								M502.449,554.224c-2.519,0-4.586,0.019-4.593,0.042c-0.007,0.022-0.012,3.4-0.012,7.451v42.625
								c0,4.05,0.038,7.447,0.084,7.55c0.046,0.103,2.194,0.187,4.521,0.187c2.327,0,4.314-0.037,4.418-0.084
								c0.104-0.046,0.188-3.603,0.188-7.652v-42.625c0-4.051-0.002-7.385-0.005-7.408
								C507.047,554.284,504.969,554.224,502.449,554.224z"/>
						</g>
					</g>
				</g>
			</g>
			<g>
				<g>
					<rect x="443.855" y="554.224" fill="#FFFFFF" width="6.217" height="38.738"/>
				</g>
				<g>
					<rect x="455.948" y="554.224" fill="#FFFFFF" width="6.217" height="38.738"/>
				</g>
				<g>
					<rect x="472.851" y="554.224" fill="#FFFFFF" width="6.218" height="38.738"/>
				</g>
				<g>
					<rect x="484.502" y="554.224" fill="#FFFFFF" width="6.217" height="38.738"/>
				</g>
				<g>
					<rect x="496.154" y="554.224" fill="#FFFFFF" width="6.217" height="38.738"/>
				</g>
			</g>
		</g>
		<g>
			<g>
				<g>
					<g>
						<g>
							<path fill="#FFFFFF" d="M512.336,554.224c-2.664,0-4.847,0.019-4.85,0.042c-0.004,0.023-0.007,3.4-0.007,7.451v42.845
								c0,4.05,0.062,7.505,0.14,7.676c0.077,0.172,2.39,0.312,4.716,0.312s4.37-0.063,4.542-0.14
								c0.172-0.078,0.312-3.799,0.312-7.849v-42.845c0-4.051-0.001-7.384-0.002-7.408
								C517.188,554.285,514.999,554.224,512.336,554.224z"/>
							<path fill="none" stroke="#E5615B" stroke-linecap="round" stroke-linejoin="round" stroke-miterlimit="10" d="
								M512.336,554.224c-2.664,0-4.847,0.019-4.85,0.042c-0.004,0.023-0.007,3.4-0.007,7.451v42.845c0,4.05,0.062,7.505,0.14,7.676
								c0.077,0.172,2.39,0.312,4.716,0.312s4.37-0.063,4.542-0.14c0.172-0.078,0.312-3.799,0.312-7.849v-42.845
								c0-4.051-0.001-7.384-0.002-7.408C517.188,554.285,514.999,554.224,512.336,554.224z"/>
						</g>
						<g>
							<path fill="#FFFFFF" d="M512.336,554.224c-2.521,0-4.588,0.019-4.594,0.042c-0.007,0.022-0.013,3.4-0.013,7.451v42.625
								c0,4.05,0.038,7.447,0.085,7.55c0.046,0.103,2.194,0.187,4.521,0.187s4.314-0.037,4.418-0.084
								c0.104-0.046,0.188-3.603,0.188-7.652v-42.625c0-4.051-0.002-7.385-0.006-7.408
								C516.934,554.284,514.855,554.224,512.336,554.224z"/>
							<path fill="none" stroke="#E5615B" stroke-linecap="round" stroke-linejoin="round" stroke-miterlimit="10" d="
								M512.336,554.224c-2.521,0-4.588,0.019-4.594,0.042c-0.007,0.022-0.013,3.4-0.013,7.451v42.625
								c0,4.05,0.038,7.447,0.085,7.55c0.046,0.103,2.194,0.187,4.521,0.187s4.314-0.037,4.418-0.084
								c0.104-0.046,0.188-3.603,0.188-7.652v-42.625c0-4.051-0.002-7.385-0.006-7.408
								C516.934,554.284,514.855,554.224,512.336,554.224z"/>
						</g>
					</g>
					<g>
						<g>
							<path fill="#FFFFFF" d="M522.221,554.224c-2.664,0-4.846,0.019-4.85,0.042c-0.003,0.023-0.006,3.4-0.006,7.451v42.845
								c0,4.05,0.063,7.505,0.141,7.676c0.076,0.172,2.388,0.312,4.715,0.312s4.371-0.063,4.543-0.14
								c0.172-0.078,0.312-3.799,0.312-7.849v-42.845c0-4.051-0.001-7.384-0.002-7.408
								C527.072,554.285,524.884,554.224,522.221,554.224z"/>
							<path fill="none" stroke="#E5615B" stroke-linecap="round" stroke-linejoin="round" stroke-miterlimit="10" d="
								M522.221,554.224c-2.664,0-4.846,0.019-4.85,0.042c-0.003,0.023-0.006,3.4-0.006,7.451v42.845
								c0,4.05,0.063,7.505,0.141,7.676c0.076,0.172,2.388,0.312,4.715,0.312s4.371-0.063,4.543-0.14
								c0.172-0.078,0.312-3.799,0.312-7.849v-42.845c0-4.051-0.001-7.384-0.002-7.408
								C527.072,554.285,524.884,554.224,522.221,554.224z"/>
						</g>
						<g>
							<path fill="#FFFFFF" d="M522.221,554.224c-2.52,0-4.586,0.019-4.593,0.042c-0.007,0.022-0.012,3.4-0.012,7.451v42.625
								c0,4.05,0.037,7.447,0.083,7.55s2.194,0.187,4.521,0.187s4.314-0.037,4.418-0.084c0.104-0.046,0.188-3.603,0.188-7.652
								v-42.625c0-4.051-0.002-7.385-0.004-7.408C526.82,554.284,524.739,554.224,522.221,554.224z"/>
							<path fill="none" stroke="#E5615B" stroke-linecap="round" stroke-linejoin="round" stroke-miterlimit="10" d="
								M522.221,554.224c-2.52,0-4.586,0.019-4.593,0.042c-0.007,0.022-0.012,3.4-0.012,7.451v42.625c0,4.05,0.037,7.447,0.083,7.55
								s2.194,0.187,4.521,0.187s4.314-0.037,4.418-0.084c0.104-0.046,0.188-3.603,0.188-7.652v-42.625
								c0-4.051-0.002-7.385-0.004-7.408C526.82,554.284,524.739,554.224,522.221,554.224z"/>
						</g>
					</g>
					<g>
						<g>
							<path fill="#FFFFFF" d="M532.105,554.224c-2.663,0-4.845,0.019-4.848,0.042c-0.004,0.023-0.007,3.4-0.007,7.451v42.845
								c0,4.05,0.063,7.505,0.14,7.676c0.077,0.172,2.39,0.312,4.717,0.312c2.326,0,4.371-0.063,4.543-0.14
								c0.172-0.078,0.312-3.799,0.312-7.849v-42.845c0-4.051-0.001-7.384-0.003-7.408
								C536.958,554.285,534.77,554.224,532.105,554.224z"/>
							<path fill="none" stroke="#E5615B" stroke-linecap="round" stroke-linejoin="round" stroke-miterlimit="10" d="
								M532.105,554.224c-2.663,0-4.845,0.019-4.848,0.042c-0.004,0.023-0.007,3.4-0.007,7.451v42.845
								c0,4.05,0.063,7.505,0.14,7.676c0.077,0.172,2.39,0.312,4.717,0.312c2.326,0,4.371-0.063,4.543-0.14
								c0.172-0.078,0.312-3.799,0.312-7.849v-42.845c0-4.051-0.001-7.384-0.003-7.408
								C536.958,554.285,534.77,554.224,532.105,554.224z"/>
						</g>
						<g>
							<path fill="#FFFFFF" d="M532.107,554.224c-2.521,0-4.587,0.019-4.594,0.042c-0.007,0.022-0.012,3.4-0.012,7.451v42.625
								c0,4.05,0.037,7.447,0.084,7.55c0.045,0.103,2.193,0.187,4.52,0.187s4.314-0.037,4.418-0.084
								c0.104-0.046,0.189-3.603,0.189-7.652v-42.625c0-4.051-0.002-7.385-0.005-7.408
								C536.705,554.284,534.627,554.224,532.107,554.224z"/>
							<path fill="none" stroke="#E5615B" stroke-linecap="round" stroke-linejoin="round" stroke-miterlimit="10" d="
								M532.107,554.224c-2.521,0-4.587,0.019-4.594,0.042c-0.007,0.022-0.012,3.4-0.012,7.451v42.625
								c0,4.05,0.037,7.447,0.084,7.55c0.045,0.103,2.193,0.187,4.52,0.187s4.314-0.037,4.418-0.084
								c0.104-0.046,0.189-3.603,0.189-7.652v-42.625c0-4.051-0.002-7.385-0.005-7.408
								C536.705,554.284,534.627,554.224,532.107,554.224z"/>
						</g>
					</g>
					<g>
						<g>
							<path fill="#FFFFFF" d="M541.992,554.224c-2.663,0-4.845,0.019-4.849,0.042s-0.007,3.4-0.007,7.451v42.845
								c0,4.05,0.062,7.505,0.14,7.676c0.077,0.172,2.389,0.312,4.716,0.312s4.371-0.063,4.543-0.14
								c0.173-0.078,0.313-3.799,0.313-7.849v-42.845c0-4.051-0.001-7.384-0.003-7.408
								C546.845,554.285,544.656,554.224,541.992,554.224z"/>
							<path fill="none" stroke="#E5615B" stroke-linecap="round" stroke-linejoin="round" stroke-miterlimit="10" d="
								M541.992,554.224c-2.663,0-4.845,0.019-4.849,0.042s-0.007,3.4-0.007,7.451v42.845c0,4.05,0.062,7.505,0.14,7.676
								c0.077,0.172,2.389,0.312,4.716,0.312s4.371-0.063,4.543-0.14c0.173-0.078,0.313-3.799,0.313-7.849v-42.845
								c0-4.051-0.001-7.384-0.003-7.408C546.845,554.285,544.656,554.224,541.992,554.224z"/>
						</g>
						<g>
							<path fill="#FFFFFF" d="M541.993,554.224c-2.52,0-4.587,0.019-4.594,0.042c-0.007,0.022-0.013,3.4-0.013,7.451v42.625
								c0,4.05,0.038,7.447,0.084,7.55s2.194,0.187,4.521,0.187s4.314-0.037,4.418-0.084c0.104-0.046,0.188-3.603,0.188-7.652
								v-42.625c0-4.051-0.002-7.385-0.004-7.408C546.592,554.284,544.513,554.224,541.993,554.224z"/>
							<path fill="none" stroke="#E5615B" stroke-linecap="round" stroke-linejoin="round" stroke-miterlimit="10" d="
								M541.993,554.224c-2.52,0-4.587,0.019-4.594,0.042c-0.007,0.022-0.013,3.4-0.013,7.451v42.625c0,4.05,0.038,7.447,0.084,7.55
								s2.194,0.187,4.521,0.187s4.314-0.037,4.418-0.084c0.104-0.046,0.188-3.603,0.188-7.652v-42.625
								c0-4.051-0.002-7.385-0.004-7.408C546.592,554.284,544.513,554.224,541.993,554.224z"/>
						</g>
					</g>
					<g>
						<g>
							<path fill="#FFFFFF" d="M551.879,554.224c-2.663,0-4.846,0.019-4.85,0.042c-0.003,0.023-0.006,3.4-0.006,7.451v42.845
								c0,4.05,0.062,7.505,0.139,7.676c0.077,0.172,2.39,0.312,4.717,0.312c2.326,0,4.37-0.063,4.541-0.14
								c0.172-0.078,0.312-3.799,0.312-7.849v-42.845c0-4.051-0.001-7.384-0.002-7.408
								C556.73,554.285,554.542,554.224,551.879,554.224z"/>
							<path fill="none" stroke="#E5615B" stroke-linecap="round" stroke-linejoin="round" stroke-miterlimit="10" d="
								M551.879,554.224c-2.663,0-4.846,0.019-4.85,0.042c-0.003,0.023-0.006,3.4-0.006,7.451v42.845
								c0,4.05,0.062,7.505,0.139,7.676c0.077,0.172,2.39,0.312,4.717,0.312c2.326,0,4.37-0.063,4.541-0.14
								c0.172-0.078,0.312-3.799,0.312-7.849v-42.845c0-4.051-0.001-7.384-0.002-7.408
								C556.73,554.285,554.542,554.224,551.879,554.224z"/>
						</g>
						<g>
							<path fill="#FFFFFF" d="M551.879,554.224c-2.52,0-4.587,0.019-4.594,0.042c-0.006,0.022-0.012,3.4-0.012,7.451v42.625
								c0,4.05,0.038,7.447,0.084,7.55s2.194,0.187,4.521,0.187c2.326,0,4.313-0.037,4.417-0.084
								c0.104-0.046,0.188-3.603,0.188-7.652v-42.625c0-4.051-0.002-7.385-0.003-7.408
								C556.479,554.284,554.398,554.224,551.879,554.224z"/>
							<path fill="none" stroke="#E5615B" stroke-linecap="round" stroke-linejoin="round" stroke-miterlimit="10" d="
								M551.879,554.224c-2.52,0-4.587,0.019-4.594,0.042c-0.006,0.022-0.012,3.4-0.012,7.451v42.625c0,4.05,0.038,7.447,0.084,7.55
								s2.194,0.187,4.521,0.187c2.326,0,4.313-0.037,4.417-0.084c0.104-0.046,0.188-3.603,0.188-7.652v-42.625
								c0-4.051-0.002-7.385-0.003-7.408C556.479,554.284,554.398,554.224,551.879,554.224z"/>
						</g>
					</g>
					<g>
						<g>
							<path fill="#FFFFFF" d="M561.764,554.224c-2.664,0-4.847,0.019-4.85,0.042c-0.004,0.023-0.007,3.4-0.007,7.451v42.845
								c0,4.05,0.063,7.505,0.141,7.676c0.077,0.172,2.389,0.312,4.716,0.312s4.371-0.063,4.544-0.14
								c0.173-0.078,0.313-3.799,0.313-7.849v-42.845c0-4.051-0.001-7.384-0.002-7.408
								C566.618,554.285,564.428,554.224,561.764,554.224z"/>
							<path fill="none" stroke="#E5615B" stroke-linecap="round" stroke-linejoin="round" stroke-miterlimit="10" d="
								M561.764,554.224c-2.664,0-4.847,0.019-4.85,0.042c-0.004,0.023-0.007,3.4-0.007,7.451v42.845
								c0,4.05,0.063,7.505,0.141,7.676c0.077,0.172,2.389,0.312,4.716,0.312s4.371-0.063,4.544-0.14
								c0.173-0.078,0.313-3.799,0.313-7.849v-42.845c0-4.051-0.001-7.384-0.002-7.408
								C566.618,554.285,564.428,554.224,561.764,554.224z"/>
						</g>
						<g>
							<path fill="#FFFFFF" d="M561.765,554.224c-2.52,0-4.587,0.019-4.594,0.042c-0.007,0.022-0.013,3.4-0.013,7.451v42.625
								c0,4.05,0.038,7.447,0.084,7.55s2.194,0.187,4.521,0.187s4.315-0.037,4.418-0.084c0.104-0.046,0.188-3.603,0.188-7.652
								v-42.625c0-4.051-0.003-7.385-0.005-7.408C566.361,554.284,564.284,554.224,561.765,554.224z"/>
							<path fill="none" stroke="#E5615B" stroke-linecap="round" stroke-linejoin="round" stroke-miterlimit="10" d="
								M561.765,554.224c-2.52,0-4.587,0.019-4.594,0.042c-0.007,0.022-0.013,3.4-0.013,7.451v42.625c0,4.05,0.038,7.447,0.084,7.55
								s2.194,0.187,4.521,0.187s4.315-0.037,4.418-0.084c0.104-0.046,0.188-3.603,0.188-7.652v-42.625
								c0-4.051-0.003-7.385-0.005-7.408C566.361,554.284,564.284,554.224,561.765,554.224z"/>
						</g>
					</g>
				</g>
			</g>
			<g>
				<g>
					<rect x="513.443" y="554.224" fill="#FFFFFF" width="6.216" height="38.738"/>
				</g>
				<g>
					<rect x="525.149" y="554.224" fill="#FFFFFF" width="6.217" height="38.738"/>
				</g>
				<g>
					<rect x="542.824" y="554.224" fill="#FFFFFF" width="6.217" height="38.738"/>
				</g>
				<g>
					<rect x="553.702" y="554.224" fill="#FFFFFF" width="6.218" height="38.738"/>
				</g>
			</g>
		</g>
	</g>
</g>
<g>
	<circle fill="#FFFFFF" cx="654.188" cy="564.367" r="81.562"/>
	
		<line fill="none" stroke="#F3816F" stroke-width="2" stroke-miterlimit="10" x1="654.189" y1="645.929" x2="654.189" y2="482.804"/>
	<line fill="none" stroke="#F3816F" stroke-width="2" stroke-miterlimit="10" x1="684.742" y1="639.99" x2="623.636" y2="488.744"/>
	<line fill="none" stroke="#F3816F" stroke-width="2" stroke-miterlimit="10" x1="622.321" y1="639.445" x2="686.058" y2="489.29"/>
	<line fill="none" stroke="#F3816F" stroke-width="2" stroke-miterlimit="10" x1="578.566" y1="594.92" x2="729.812" y2="533.813"/>
	<line fill="none" stroke="#F3816F" stroke-width="2" stroke-miterlimit="10" x1="579.11" y1="532.5" x2="729.267" y2="596.236"/>
	<line fill="none" stroke="#F3816F" stroke-width="2" stroke-miterlimit="10" x1="596.516" y1="622.04" x2="711.862" y2="506.693"/>
	<line fill="none" stroke="#F3816F" stroke-width="2" stroke-miterlimit="10" x1="572.627" y1="564.367" x2="735.75" y2="564.367"/>
	
		<line fill="none" stroke="#F3816F" stroke-width="3.6703" stroke-miterlimit="10" x1="596.517" y1="506.693" x2="711.862" y2="622.04"/>
	<line fill="none" stroke="#F3816F" stroke-width="2" stroke-miterlimit="10" x1="596.517" y1="506.693" x2="711.862" y2="622.04"/>
	<circle fill="#E5615B" cx="654.188" cy="564.367" r="9.111"/>
	<circle fill="none" stroke="#E5615B" stroke-width="3.6703" stroke-miterlimit="10" cx="654.189" cy="564.367" r="27.78"/>
	<path fill="none" stroke="#E5615B" stroke-width="6" stroke-linecap="round" stroke-miterlimit="10" d="M682.993,608.736
		c-8.288,5.392-18.182,8.523-28.804,8.523c-10.902,0-21.032-3.298-29.45-8.949"/>
	
		<circle fill="none" stroke="#E5615B" stroke-width="6" stroke-linecap="round" stroke-miterlimit="10" cx="654.188" cy="564.367" r="81.562"/>
	<polyline fill="none" stroke="#E5615B" stroke-width="6" stroke-linecap="round" stroke-miterlimit="10" points="722.861,670.153 
		682.992,608.736 654.189,564.367 624.739,608.309 583.294,670.153 	"/>
	<g>
		<path fill="#E5615B" d="M645.772,475.65c0.776,3.94,4.249,6.912,8.417,6.912c4.167,0,7.64-2.971,8.416-6.912H645.772z"/>
		<path fill="#E5615B" d="M654.189,481.318c-2.967,0-5.597-1.789-6.735-4.425h13.47
			C659.785,479.529,657.155,481.318,654.189,481.318z"/>
	</g>
	<g>
		<path fill="#E5615B" d="M684.742,488.098c0.776,3.94,4.249,6.911,8.416,6.911c4.168,0,7.641-2.971,8.417-6.911H684.742z"/>
		<path fill="#E5615B" d="M693.158,493.766c-2.966,0-5.595-1.789-6.734-4.424h13.471
			C698.754,491.977,696.126,493.766,693.158,493.766z"/>
	</g>
	<g>
		<path fill="#E5615B" d="M711.862,506.693c0.776,3.94,4.249,6.912,8.416,6.912c4.168,0,7.641-2.972,8.417-6.912H711.862z"/>
		<path fill="#E5615B" d="M720.278,512.362c-2.966,0-5.597-1.79-6.736-4.425h13.472
			C725.874,510.572,723.245,512.362,720.278,512.362z"/>
	</g>
	<g>
		<path fill="#E5615B" d="M729.812,533.132c0.775,3.938,4.249,6.911,8.415,6.911c4.168,0,7.641-2.973,8.418-6.911H729.812z"/>
		<path fill="#E5615B" d="M738.228,538.799c-2.967,0-5.596-1.789-6.735-4.424h13.471
			C743.823,537.01,741.195,538.799,738.228,538.799z"/>
	</g>
	<g>
		<path fill="#E5615B" d="M735.75,563.123c0.777,3.939,4.25,6.912,8.418,6.912c4.166,0,7.639-2.973,8.415-6.912H735.75z"/>
		<path fill="#E5615B" d="M744.168,568.791c-2.968,0-5.596-1.789-6.736-4.424h13.472
			C749.763,567.002,747.134,568.791,744.168,568.791z"/>
	</g>
	<g>
		<path fill="#E5615B" d="M729.015,594.92c0.776,3.941,4.25,6.912,8.417,6.912s7.64-2.971,8.416-6.912H729.015z"/>
		<path fill="#E5615B" d="M737.432,600.59c-2.967,0-5.596-1.79-6.734-4.425h13.471C743.027,598.8,740.398,600.59,737.432,600.59z"/>
	</g>
	<g>
		<path fill="#E5615B" d="M711.862,620.584c0.776,3.939,4.249,6.912,8.416,6.912c4.168,0,7.641-2.973,8.417-6.912H711.862z"/>
		<path fill="#E5615B" d="M720.278,626.252c-2.966,0-5.597-1.791-6.736-4.426h13.472
			C725.874,624.461,723.245,626.252,720.278,626.252z"/>
	</g>
	<g>
		<path fill="#E5615B" d="M682.993,639.99c0.775,3.94,4.249,6.911,8.416,6.911c4.168,0,7.64-2.971,8.416-6.911H682.993z"/>
		<path fill="#E5615B" d="M691.409,645.657c-2.968,0-5.597-1.789-6.736-4.424h13.472
			C697.004,643.868,694.375,645.657,691.409,645.657z"/>
	</g>
	<g>
		<path fill="#E5615B" d="M645.772,645.929c0.776,3.94,4.249,6.911,8.417,6.911c4.167,0,7.64-2.971,8.416-6.911H645.772z"/>
		<path fill="#E5615B" d="M654.189,651.598c-2.967,0-5.597-1.791-6.735-4.425h13.47
			C659.785,649.807,657.154,651.598,654.189,651.598z"/>
	</g>
	<g>
		<path fill="#E5615B" d="M605.487,639.99c0.777,3.94,4.248,6.911,8.416,6.911c4.169,0,7.641-2.971,8.418-6.911H605.487z"/>
		<path fill="#E5615B" d="M613.903,645.657c-2.967,0-5.596-1.789-6.735-4.424h13.472
			C619.499,643.868,616.87,645.657,613.903,645.657z"/>
	</g>
	<g>
		<path fill="#E5615B" d="M579.11,622.795c0.776,3.94,4.25,6.912,8.416,6.912c4.168,0,7.642-2.972,8.418-6.912H579.11z"/>
		<path fill="#E5615B" d="M587.526,628.464c-2.966,0-5.595-1.79-6.733-4.424h13.469
			C593.122,626.674,590.494,628.464,587.526,628.464z"/>
	</g>
	<g>
		<path fill="#E5615B" d="M562.529,594.92c0.777,3.941,4.25,6.912,8.416,6.912c4.168,0,7.642-2.971,8.418-6.912H562.529z"/>
		<path fill="#E5615B" d="M570.945,600.59c-2.967,0-5.595-1.79-6.735-4.425h13.472C576.541,598.8,573.911,600.59,570.945,600.59z"/>
	</g>
	<g>
		<path fill="#E5615B" d="M555.794,565.335c0.775,3.94,4.249,6.912,8.416,6.912s7.641-2.972,8.417-6.912H555.794z"/>
		<path fill="#E5615B" d="M564.21,571.004c-2.966,0-5.594-1.789-6.734-4.426h13.47C569.805,569.215,567.178,571.004,564.21,571.004z
			"/>
	</g>
	<g>
		<path fill="#E5615B" d="M562.529,533.132c0.777,3.938,4.25,6.911,8.416,6.911c4.168,0,7.642-2.973,8.418-6.911H562.529z"/>
		<path fill="#E5615B" d="M570.945,538.799c-2.967,0-5.595-1.789-6.735-4.424h13.472
			C576.541,537.01,573.911,538.799,570.945,538.799z"/>
	</g>
	<g>
		<path fill="#E5615B" d="M579.11,506.693c0.776,3.94,4.25,6.912,8.416,6.912c4.168,0,7.642-2.972,8.418-6.912H579.11z"/>
		<path fill="#E5615B" d="M587.526,512.362c-2.966,0-5.595-1.79-6.733-4.425h13.469
			C593.122,510.572,590.494,512.362,587.526,512.362z"/>
	</g>
	<g>
		<path fill="#E5615B" d="M605.487,488.098c0.777,3.94,4.248,6.911,8.417,6.911c4.168,0,7.64-2.971,8.417-6.911H605.487z"/>
		<path fill="#E5615B" d="M613.904,493.766c-2.968,0-5.597-1.789-6.736-4.424h13.472
			C619.499,491.977,616.87,493.766,613.904,493.766z"/>
	</g>
</g>
<g>
	<g>
		<path fill="#FCFDFF" stroke="#FFFFFF" stroke-width="22" stroke-linecap="round" stroke-miterlimit="10" d="M689.015,601.329
			l-34.44-28.062c-0.479-0.424-0.521-1.156-0.096-1.636l6.675-7.517c0.425-0.479,1.157-0.522,1.635-0.098l18.232,17.625"/>
		<path fill="#FFFFFF" stroke="#FFFFFF" stroke-width="22" stroke-linecap="round" stroke-miterlimit="10" d="M694.728,594.895
			c0.479,0.424,0.522,1.157,0.098,1.637"/>
		<path fill="#FFFFFF" stroke="#FFFFFF" stroke-width="22" stroke-linecap="round" stroke-miterlimit="10" d="M688.98,601.368
			l-9.256-7.632c-0.478-0.425-0.521-1.158-0.096-1.637l4.879-5.494c0.424-0.479,1.156-0.522,1.634-0.098l8.581,8.393
			c0.479,0.425,0.521,1.157,0.098,1.636c-2.449,3.312-0.093,4.349-0.093,4.349c7.07,4.341,7.631,7.723,6.011,14.652
			c-1.765,7.541-3.826,14.602-8.422,33.008c-1.831,7.334-10.671,33.16,20.589,33.14"/>
		
			<circle fill="#FFFFFF" stroke="#FFFFFF" stroke-width="22" stroke-linecap="round" stroke-miterlimit="10" cx="654.888" cy="564.671" r="10.36"/>
		<g>
			<defs>
				<circle id="SVGID_1_" cx="654.888" cy="564.671" r="10.36"/>
			</defs>
			<use xlink:href="#SVGID_1_"  overflow="visible" fill="#FFFFFF"/>
			<clipPath id="SVGID_2_">
				<use xlink:href="#SVGID_1_"  overflow="visible"/>
			</clipPath>
			<g clip-path="url(#SVGID_2_)">
				
					<line fill="#FFFFFF" stroke="#FFFFFF" stroke-width="22" stroke-linecap="round" stroke-miterlimit="10" x1="648.537" y1="578.562" x2="646.967" y2="552.133"/>
				
					<line fill="#FFFFFF" stroke="#FFFFFF" stroke-width="22" stroke-linecap="round" stroke-miterlimit="10" x1="651.614" y1="578.379" x2="650.045" y2="551.951"/>
				
					<line fill="#FFFFFF" stroke="#FFFFFF" stroke-width="22" stroke-linecap="round" stroke-miterlimit="10" x1="654.691" y1="578.195" x2="653.121" y2="551.769"/>
				
					<line fill="#FFFFFF" stroke="#FFFFFF" stroke-width="22" stroke-linecap="round" stroke-miterlimit="10" x1="657.769" y1="578.013" x2="656.199" y2="551.586"/>
				
					<line fill="#FFFFFF" stroke="#FFFFFF" stroke-width="22" stroke-linecap="round" stroke-miterlimit="10" x1="660.844" y1="577.83" x2="659.276" y2="551.402"/>
				
					<line fill="#FFFFFF" stroke="#FFFFFF" stroke-width="22" stroke-linecap="round" stroke-miterlimit="10" x1="663.922" y1="577.646" x2="662.353" y2="551.221"/>
			</g>
			<g clip-path="url(#SVGID_2_)">
				
					<line fill="#FFFFFF" stroke="#FFFFFF" stroke-width="22" stroke-linecap="round" stroke-miterlimit="10" x1="668.202" y1="556.414" x2="641.774" y2="557.982"/>
				
					<line fill="#FFFFFF" stroke="#FFFFFF" stroke-width="22" stroke-linecap="round" stroke-miterlimit="10" x1="668.384" y1="559.49" x2="641.957" y2="561.059"/>
				
					<line fill="#FFFFFF" stroke="#FFFFFF" stroke-width="22" stroke-linecap="round" stroke-miterlimit="10" x1="668.566" y1="562.566" x2="642.141" y2="564.137"/>
				
					<line fill="#FFFFFF" stroke="#FFFFFF" stroke-width="22" stroke-linecap="round" stroke-miterlimit="10" x1="668.751" y1="565.644" x2="642.322" y2="567.215"/>
				
					<line fill="#FFFFFF" stroke="#FFFFFF" stroke-width="22" stroke-linecap="round" stroke-miterlimit="10" x1="668.934" y1="568.721" x2="642.505" y2="570.291"/>
				
					<line fill="#FFFFFF" stroke="#FFFFFF" stroke-width="22" stroke-linecap="round" stroke-miterlimit="10" x1="669.115" y1="571.799" x2="642.688" y2="573.368"/>
			</g>
			<use xlink:href="#SVGID_1_"  overflow="visible" fill="none" stroke="#FFFFFF" stroke-width="22" stroke-miterlimit="10"/>
		</g>
	</g>
	<g>
		<path fill="#FFFFFF" stroke="#E5615B" stroke-width="2.7" stroke-linecap="round" stroke-miterlimit="10" d="M689.015,601.329
			l-34.44-28.062c-0.479-0.424-0.521-1.156-0.096-1.636l6.675-7.517c0.425-0.479,1.157-0.522,1.635-0.098l18.232,17.625"/>
		<path fill="#2A333C" stroke="#E5615B" stroke-width="1.8977" stroke-linecap="round" stroke-miterlimit="10" d="M694.728,594.895
			c0.479,0.424,0.522,1.157,0.098,1.637"/>
		
			<path fill="none" stroke="#E5615B" stroke-width="2.0656" stroke-linecap="round" stroke-linejoin="round" stroke-miterlimit="10" d="
			M688.98,601.368l-9.256-7.632c-0.478-0.425-0.521-1.158-0.096-1.637l4.879-5.494c0.424-0.479,1.156-0.522,1.634-0.098l8.581,8.393
			c0.479,0.425,0.521,1.157,0.098,1.636c-2.449,3.312-0.093,4.349-0.093,4.349c7.07,4.341,7.631,7.723,6.011,14.652
			c-1.765,7.541-3.826,14.602-8.422,33.008c-1.831,7.334-10.671,33.16,20.589,33.14"/>
		
			<circle fill="#FFFFFF" stroke="#E5615B" stroke-width="2.7" stroke-linecap="round" stroke-miterlimit="10" cx="654.888" cy="564.671" r="10.36"/>
		<g>
			<defs>
				<circle id="SVGID_3_" cx="654.888" cy="564.671" r="10.36"/>
			</defs>
			<clipPath id="SVGID_4_">
				<use xlink:href="#SVGID_3_"  overflow="visible"/>
			</clipPath>
			<g clip-path="url(#SVGID_4_)">
				
					<line fill="#2A333C" stroke="#E5615B" stroke-width="1.5142" stroke-linecap="round" stroke-miterlimit="10" x1="648.537" y1="578.562" x2="646.967" y2="552.133"/>
				
					<line fill="#2A333C" stroke="#E5615B" stroke-width="1.5142" stroke-linecap="round" stroke-miterlimit="10" x1="651.614" y1="578.379" x2="650.045" y2="551.951"/>
				
					<line fill="#2A333C" stroke="#E5615B" stroke-width="1.5142" stroke-linecap="round" stroke-miterlimit="10" x1="654.691" y1="578.195" x2="653.121" y2="551.769"/>
				
					<line fill="#2A333C" stroke="#E5615B" stroke-width="1.5142" stroke-linecap="round" stroke-miterlimit="10" x1="657.769" y1="578.013" x2="656.199" y2="551.586"/>
				
					<line fill="#2A333C" stroke="#E5615B" stroke-width="1.5142" stroke-linecap="round" stroke-miterlimit="10" x1="660.844" y1="577.83" x2="659.276" y2="551.402"/>
				
					<line fill="#2A333C" stroke="#E5615B" stroke-width="1.5142" stroke-linecap="round" stroke-miterlimit="10" x1="663.922" y1="577.646" x2="662.353" y2="551.221"/>
			</g>
			<g clip-path="url(#SVGID_4_)">
				
					<line fill="#2A333C" stroke="#E5615B" stroke-width="1.5142" stroke-linecap="round" stroke-miterlimit="10" x1="668.202" y1="556.414" x2="641.774" y2="557.982"/>
				
					<line fill="#2A333C" stroke="#E5615B" stroke-width="1.5142" stroke-linecap="round" stroke-miterlimit="10" x1="668.384" y1="559.49" x2="641.957" y2="561.059"/>
				
					<line fill="#2A333C" stroke="#E5615B" stroke-width="1.5142" stroke-linecap="round" stroke-miterlimit="10" x1="668.566" y1="562.566" x2="642.141" y2="564.137"/>
				
					<line fill="#2A333C" stroke="#E5615B" stroke-width="1.5142" stroke-linecap="round" stroke-miterlimit="10" x1="668.751" y1="565.644" x2="642.322" y2="567.215"/>
				
					<line fill="#2A333C" stroke="#E5615B" stroke-width="1.5142" stroke-linecap="round" stroke-miterlimit="10" x1="668.934" y1="568.721" x2="642.505" y2="570.291"/>
				
					<line fill="#2A333C" stroke="#E5615B" stroke-width="1.5142" stroke-linecap="round" stroke-miterlimit="10" x1="669.115" y1="571.799" x2="642.688" y2="573.368"/>
			</g>
		</g>
	</g>
</g>
<g>
	<g>
		<g>
			<g>
				
					<path fill="#FFFFFF" stroke="#E5615B" stroke-width="14.5595" stroke-linecap="round" stroke-linejoin="round" stroke-miterlimit="10" d="
					M423.768,559.323c-0.086,0-0.158-0.07-0.158-0.159v-14.392c0-0.087,0.072-0.155,0.158-0.155c0.087,0,0.158,0.068,0.158,0.155
					v14.392C423.926,559.253,423.855,559.323,423.768,559.323z"/>
				
					<path fill="#FFFFFF" stroke="#E5615B" stroke-width="14.5595" stroke-linecap="round" stroke-linejoin="round" stroke-miterlimit="10" d="
					M420.989,559.422c-0.078,0-0.145-0.055-0.156-0.134l-1.598-14.491c-0.013-0.085,0.046-0.167,0.132-0.18
					c0.087-0.012,0.167,0.047,0.178,0.133l1.6,14.491c0.013,0.085-0.048,0.163-0.131,0.179
					C421.004,559.421,420.997,559.422,420.989,559.422z"/>
				
					<path fill="#FFFFFF" stroke="#E5615B" stroke-width="14.5595" stroke-linecap="round" stroke-linejoin="round" stroke-miterlimit="10" d="
					M426.501,559.422c-0.007,0-0.017-0.001-0.022-0.002c-0.087-0.016-0.146-0.094-0.133-0.179l1.599-14.491
					c0.013-0.086,0.091-0.145,0.179-0.133c0.086,0.013,0.145,0.095,0.131,0.18l-1.597,14.491
					C426.645,559.367,426.578,559.422,426.501,559.422z"/>
				<g>
					<path fill="#FFFFFF" stroke="#E5615B" stroke-width="2.7" stroke-linecap="round" stroke-miterlimit="10" d="M411.805,486.617
						l7.042,54.999h-0.463c0,0-20.919-16.635-20.014-36.283C399.02,491.249,408.402,485.316,411.805,486.617z"/>
				</g>
				<g>
					<path fill="#FFFFFF" stroke="#E5615B" stroke-width="2.7" stroke-linecap="round" stroke-miterlimit="10" d="M420.009,482.302
						l3.611,55.178h-3.054c0,0-18.161-17.288-17.141-36.93C404.072,488.042,416.605,481,420.009,482.302z"/>
				</g>
				<g>
					<path fill="#FFFFFF" stroke="#E5615B" stroke-width="2.7" stroke-linecap="round" stroke-miterlimit="10" d="M423.989,481.482
						v55.18h-2.756c0,0-9.289-24.275-7.134-40.542C415.954,482.128,420.585,480.183,423.989,481.482z"/>
				</g>
				<g>
					<path fill="#FFFFFF" stroke="#E5615B" stroke-width="2.7" stroke-linecap="round" stroke-miterlimit="10" d="M435.988,486.617
						l-7.041,54.999h0.463c0,0,20.919-16.635,20.012-36.283C448.776,491.249,439.393,485.316,435.988,486.617z"/>
				</g>
				<g>
					<path fill="#FFFFFF" stroke="#E5615B" stroke-width="2.7" stroke-linecap="round" stroke-miterlimit="10" d="M427.755,482.302
						l-3.584,55.178h3.058c0,0,18.16-17.288,17.142-36.93C443.721,488.042,431.157,481,427.755,482.302z"/>
				</g>
				<g>
					<path fill="#FFFFFF" stroke="#E5615B" stroke-width="2.7" stroke-linecap="round" stroke-miterlimit="10" d="M423.805,481.482
						v55.18h2.753c0,0,9.289-24.275,7.135-40.542C431.841,482.128,427.208,480.183,423.805,481.482z"/>
				</g>
				
					<rect x="419.179" y="545.487" fill="#FFFFFF" stroke="#FFFFFF" stroke-width="14.5595" stroke-linecap="round" stroke-linejoin="round" stroke-miterlimit="10" width="9.219" height="1.813"/>
			</g>
			<g>
				<g>
					<path fill="#FFFFFF" d="M418.495,587.434c-4.553,0-8.257-3.704-8.257-8.256v-18.682c0-4.553,3.704-8.256,8.257-8.256h10.805
						c4.552,0,8.255,3.703,8.255,8.256v18.682c0,4.552-3.704,8.256-8.255,8.256H418.495z"/>
					<g>
						<path fill="#FFFFFF" d="M429.299,559.52c0.539,0,0.976,0.438,0.976,0.977v18.682c0,0.539-0.437,0.976-0.976,0.976h-10.805
							c-0.54,0-0.977-0.437-0.977-0.976v-18.682c0-0.539,0.438-0.977,0.977-0.977H429.299 M429.299,544.96h-10.805
							c-8.567,0-15.537,6.97-15.537,15.536v18.682c0,8.566,6.97,15.535,15.537,15.535h10.805c8.566,0,15.535-6.969,15.535-15.535
							v-18.682C444.834,551.93,437.865,544.96,429.299,544.96L429.299,544.96z"/>
					</g>
				</g>
				
					<path fill="#FFFFFF" stroke="#FFFFFF" stroke-width="14.5595" stroke-linecap="round" stroke-linejoin="round" stroke-miterlimit="10" d="
					M418.909,561.877v15.918c0,0.48,0.39,0.867,0.868,0.867h8.239c0.479,0,0.868-0.387,0.868-0.867v-2.959l-1.436-1.02v-8.219
					l1.436-1.021v-2.7c0-0.479-0.388-0.866-0.868-0.866h-8.239C419.298,561.011,418.909,561.398,418.909,561.877z"/>
				<g>
					<g>
						<rect x="421.126" y="565.517" fill="#FFFFFF" width="4.181" height="8.64"/>
						<polygon fill="#2A333C" points="425.307,565.517 421.126,565.517 421.126,574.156 425.307,574.156 425.307,565.517 						"/>
					</g>
					<g>
						<circle fill="#FFFFFF" cx="423.216" cy="565.517" r="2.091"/>
						<path fill="#2A333C" d="M423.216,563.426c-1.155,0-2.09,0.936-2.09,2.091c0,1.153,0.936,2.091,2.09,2.091
							s2.091-0.938,2.091-2.091C425.307,564.361,424.371,563.426,423.216,563.426L423.216,563.426z"/>
					</g>
					<g>
						<circle fill="#FFFFFF" cx="423.216" cy="574.155" r="2.091"/>
						<path fill="#2A333C" d="M423.216,572.064c-1.155,0-2.09,0.938-2.09,2.092s0.936,2.09,2.09,2.09s2.091-0.936,2.091-2.09
							S424.371,572.064,423.216,572.064L423.216,572.064z"/>
					</g>
				</g>
			</g>
		</g>
	</g>
	<g>
		<g>
			<g>
				<path fill="#FFFFFF" d="M423.768,559.323c-0.086,0-0.158-0.07-0.158-0.159v-14.392c0-0.087,0.072-0.155,0.158-0.155
					c0.087,0,0.158,0.068,0.158,0.155v14.392C423.926,559.253,423.855,559.323,423.768,559.323z"/>
				<path fill="#FFFFFF" d="M420.989,559.422c-0.078,0-0.145-0.055-0.156-0.134l-1.598-14.491c-0.013-0.085,0.046-0.167,0.132-0.18
					c0.087-0.012,0.167,0.047,0.178,0.133l1.6,14.491c0.013,0.085-0.048,0.163-0.131,0.179
					C421.004,559.421,420.997,559.422,420.989,559.422z"/>
				<path fill="#FFFFFF" d="M426.501,559.422c-0.007,0-0.017-0.001-0.022-0.002c-0.087-0.016-0.146-0.094-0.133-0.179l1.599-14.491
					c0.013-0.086,0.091-0.145,0.179-0.133c0.086,0.013,0.145,0.095,0.131,0.18l-1.597,14.491
					C426.645,559.367,426.578,559.422,426.501,559.422z"/>
				<g>
					<path fill="#FFFFFF" stroke="#E5615B" stroke-width="2.7" stroke-linecap="round" stroke-miterlimit="10" d="M411.805,486.617
						l7.042,54.999h-0.463c0,0-20.919-16.635-20.014-36.283C399.02,491.249,408.402,485.316,411.805,486.617z"/>
				</g>
				<g>
					<path fill="#FFFFFF" stroke="#E5615B" stroke-width="2.7" stroke-linecap="round" stroke-miterlimit="10" d="M420.009,482.302
						l3.611,55.178h-3.054c0,0-18.161-17.288-17.141-36.93C404.072,488.042,416.605,481,420.009,482.302z"/>
				</g>
				<g>
					<path fill="#FFFFFF" stroke="#E5615B" stroke-width="2.7" stroke-linecap="round" stroke-miterlimit="10" d="M423.989,481.482
						v55.18h-2.756c0,0-9.289-24.275-7.134-40.542C415.954,482.128,420.585,480.183,423.989,481.482z"/>
				</g>
				<g>
					<path fill="#FFFFFF" stroke="#E5615B" stroke-width="2.7" stroke-linecap="round" stroke-miterlimit="10" d="M435.988,486.617
						l-7.041,54.999h0.463c0,0,20.919-16.635,20.012-36.283C448.776,491.249,439.393,485.316,435.988,486.617z"/>
				</g>
				<g>
					<path fill="#FFFFFF" stroke="#E5615B" stroke-width="2.7" stroke-linecap="round" stroke-miterlimit="10" d="M427.755,482.302
						l-3.584,55.178h3.058c0,0,18.16-17.288,17.142-36.93C443.721,488.042,431.157,481,427.755,482.302z"/>
				</g>
				<g>
					<path fill="#FFFFFF" stroke="#E5615B" stroke-width="2.7" stroke-linecap="round" stroke-miterlimit="10" d="M423.805,481.482
						v55.18h2.753c0,0,9.289-24.275,7.135-40.542C431.841,482.128,427.208,480.183,423.805,481.482z"/>
				</g>
				<g>
					<path fill="#FFFFFF" d="M428.806,533.988c-2.75,0-5.28,0-5.623,0s-2.873,0-5.623,0h-3.056c-2.75,0-3.551,1.722-1.781,3.826
						l3.237,3.847c1.77,2.104,3.979,3.826,4.909,3.826c0.93,0,1.971,0,2.314,0s1.657,0,2.919,0c1.263,0,3.765-1.705,5.559-3.789
						l3.375-3.921c1.794-2.084,1.012-3.789-1.738-3.789H428.806z"/>
					<path fill="none" stroke="#E5615B" stroke-width="2.7" stroke-linecap="round" stroke-miterlimit="10" d="M428.806,533.988
						c-2.75,0-5.28,0-5.623,0s-2.873,0-5.623,0h-3.056c-2.75,0-3.551,1.722-1.781,3.826l3.237,3.847
						c1.77,2.104,3.979,3.826,4.909,3.826c0.93,0,1.971,0,2.314,0s1.657,0,2.919,0c1.263,0,3.765-1.705,5.559-3.789l3.375-3.921
						c1.794-2.084,1.012-3.789-1.738-3.789H428.806z"/>
				</g>
				
					<rect x="419.179" y="545.487" fill="#FFFFFF" stroke="#E5615B" stroke-width="1.4887" stroke-linecap="round" stroke-linejoin="round" stroke-miterlimit="10" width="9.219" height="1.813"/>
			</g>
			<g>
				<g>
					<path fill="#FFFFFF" d="M418.495,580.897c-0.949,0-1.721-0.771-1.721-1.72v-18.682c0-0.949,0.772-1.721,1.721-1.721h10.805
						c0.948,0,1.72,0.771,1.72,1.721v18.682c0,0.948-0.771,1.72-1.72,1.72H418.495z"/>
					<g>
						<path fill="#E5615B" d="M429.299,559.52c0.539,0,0.976,0.438,0.976,0.977v18.682c0,0.539-0.437,0.976-0.976,0.976h-10.805
							c-0.54,0-0.977-0.437-0.977-0.976v-18.682c0-0.539,0.438-0.977,0.977-0.977H429.299 M429.299,558.031h-10.805
							c-1.36,0-2.466,1.105-2.466,2.465v18.682c0,1.358,1.106,2.465,2.466,2.465h10.805c1.359,0,2.464-1.106,2.464-2.465v-18.682
							C431.764,559.137,430.658,558.031,429.299,558.031L429.299,558.031z"/>
					</g>
				</g>
				
					<path fill="#FFFFFF" stroke="#E5615B" stroke-width="1.4887" stroke-linecap="round" stroke-linejoin="round" stroke-miterlimit="10" d="
					M418.909,561.877v15.918c0,0.48,0.39,0.867,0.868,0.867h8.239c0.479,0,0.868-0.387,0.868-0.867v-2.959l-1.436-1.02v-8.219
					l1.436-1.021v-2.7c0-0.479-0.388-0.866-0.868-0.866h-8.239C419.298,561.011,418.909,561.398,418.909,561.877z"/>
				<g>
					<g>
						<rect x="421.87" y="566.261" fill="#FFFFFF" width="2.693" height="7.151"/>
						<g>
							<path fill="#E5615B" d="M423.818,567.006v5.662h-1.204v-5.662H423.818 M425.307,565.517h-4.181v8.64h4.181V565.517
								L425.307,565.517z"/>
						</g>
					</g>
					<g>
						<circle fill="#FFFFFF" cx="423.216" cy="565.516" r="1.252"/>
						<path fill="#E5615B" d="M423.216,565.103c0.228,0,0.414,0.186,0.414,0.414c0,0.228-0.186,0.413-0.414,0.413
							c-0.228,0-0.413-0.186-0.413-0.413C422.803,565.288,422.989,565.103,423.216,565.103 M423.216,563.426
							c-1.155,0-2.09,0.936-2.09,2.091c0,1.153,0.936,2.091,2.09,2.091s2.091-0.938,2.091-2.091
							C425.307,564.361,424.371,563.426,423.216,563.426L423.216,563.426z"/>
					</g>
					<g>
						<circle fill="#FFFFFF" cx="423.216" cy="574.155" r="1.347"/>
						<g>
							<path fill="#E5615B" d="M423.216,573.554c0.332,0,0.602,0.271,0.602,0.603s-0.27,0.602-0.602,0.602
								c-0.332,0-0.602-0.27-0.602-0.602S422.885,573.554,423.216,573.554 M423.216,572.064c-1.155,0-2.09,0.938-2.09,2.092
								s0.936,2.09,2.09,2.09s2.091-0.936,2.091-2.09S424.371,572.064,423.216,572.064L423.216,572.064z"/>
						</g>
					</g>
				</g>
			</g>
		</g>
	</g>
</g>
<rect x="255.865" y="620.271" fill="#FFFFFF" width="56.457" height="103.876"/>
<g>
	<g>
		<g>
			<path fill="#FFFFFF" d="M255.865,674.712v-45.287c0-2.368,1.938-4.306,4.306-4.306h31.519c2.368,0,5.484,0,6.924,0
				s3.57,0,4.732,0s2.114,1.938,2.114,4.306v45.287"/>
			<path fill="none" stroke="#E5615B" stroke-width="3" stroke-linecap="round" stroke-miterlimit="10" d="M255.865,674.712v-45.287
				c0-2.368,1.938-4.306,4.306-4.306h31.519c2.368,0,5.484,0,6.924,0s3.57,0,4.732,0s2.114,1.938,2.114,4.306v45.287"/>
		</g>
		<g>
			<circle fill="#FFFFFF" cx="299.135" cy="631.442" r="1.456"/>
			<path fill="#E5625B" d="M299.136,629.986c-0.804,0-1.457,0.652-1.457,1.456s0.653,1.456,1.457,1.456
				c0.803,0,1.455-0.652,1.455-1.456S299.939,629.986,299.136,629.986L299.136,629.986z"/>
		</g>
		<g>
			<g>
				<circle fill="#FFFFFF" cx="262.189" cy="631.442" r="1.456"/>
				<path fill="#E5625B" d="M262.189,629.986c-0.804,0-1.455,0.652-1.455,1.456s0.651,1.456,1.455,1.456s1.456-0.652,1.456-1.456
					S262.993,629.986,262.189,629.986L262.189,629.986z"/>
			</g>
		</g>
	</g>
	<g>
		<g>
			<path fill="#FFFFFF" d="M305.459,674.554"/>
			<path fill="none" stroke="#E5615B" stroke-width="2.5835" stroke-linecap="round" stroke-miterlimit="10" d="M305.459,674.554"/>
		</g>
		<g>
			<path fill="#FFFFFF" d="M255.865,674.554v45.288c0,2.368,1.938,4.306,4.306,4.306h45.288"/>
			<path fill="none" stroke="#E5615B" stroke-width="3" stroke-linecap="round" stroke-miterlimit="10" d="M255.865,674.554v45.288
				c0,2.368,1.938,4.306,4.306,4.306h45.288"/>
		</g>
		<g>
			<circle fill="#FFFFFF" cx="262.189" cy="717.824" r="1.456"/>
			<path fill="#E5625B" d="M262.189,716.368c-0.804,0-1.456,0.652-1.456,1.456s0.652,1.456,1.456,1.456s1.456-0.652,1.456-1.456
				S262.993,716.368,262.189,716.368L262.189,716.368z"/>
		</g>
	</g>
</g>
<g>
	<g>
		<path fill="#FFFFFF" d="M280.944,672.326c-10.278,0-18.641-8.362-18.641-18.642c0-10.278,8.362-18.64,18.641-18.64
			s18.641,8.361,18.641,18.64C299.585,663.964,291.223,672.326,280.944,672.326z"/>
		<g>
			<path fill="#E5615B" d="M280.944,636.395c9.55,0,17.291,7.74,17.291,17.29c0,9.551-7.741,17.292-17.291,17.292
				s-17.291-7.741-17.291-17.292C263.654,644.135,271.395,636.395,280.944,636.395 M280.944,633.695
				c-11.023,0-19.991,8.967-19.991,19.989c0,11.023,8.968,19.992,19.991,19.992s19.991-8.969,19.991-19.992
				C300.935,642.662,291.967,633.695,280.944,633.695L280.944,633.695z"/>
		</g>
	</g>
	
		<circle fill="#FFFFFF" stroke="#E5615B" stroke-width="2.7" stroke-linecap="round" stroke-miterlimit="10" cx="280.944" cy="653.685" r="13.548"/>
	
		<circle fill="#FFFFFF" stroke="#E5615B" stroke-width="2.7" stroke-linecap="round" stroke-miterlimit="10" cx="280.944" cy="653.685" r="4.085"/>
</g>
<g>
	<g>
		<path fill="#FFFFFF" d="M280.944,715.015c-10.278,0-18.641-8.362-18.641-18.641c0-10.279,8.362-18.642,18.641-18.642
			s18.641,8.362,18.641,18.642C299.585,706.652,291.223,715.015,280.944,715.015z"/>
		<g>
			<path fill="#E5615B" d="M280.944,679.082c9.55,0,17.291,7.742,17.291,17.292s-7.741,17.291-17.291,17.291
				s-17.291-7.741-17.291-17.291S271.395,679.082,280.944,679.082 M280.944,676.382c-11.023,0-19.991,8.969-19.991,19.992
				s8.968,19.991,19.991,19.991s19.991-8.968,19.991-19.991S291.967,676.382,280.944,676.382L280.944,676.382z"/>
		</g>
	</g>
	
		<circle fill="#FFFFFF" stroke="#E5615B" stroke-width="2.7" stroke-linecap="round" stroke-miterlimit="10" cx="280.944" cy="696.374" r="13.548"/>
	
		<circle fill="#FFFFFF" stroke="#E5615B" stroke-width="2.7" stroke-linecap="round" stroke-miterlimit="10" cx="280.944" cy="696.374" r="4.085"/>
</g>
<g>
	<path fill="#FFFFFF" d="M755.319,714.147c0,5.5-4.5,10-10,10h-36.457c-5.5,0-10-4.5-10-10v-83.876c0-5.5,4.5-10,10-10h36.457
		c5.5,0,10,4.5,10,10V714.147z"/>
</g>
<g>
	<path fill="#FFFFFF" stroke="#E5615B" stroke-width="6" stroke-linecap="round" stroke-miterlimit="10" d="M401.419,723.781
		v-13.388c0-8.042-6.52-14.562-14.562-14.562s-14.562,6.521-14.562,14.562v13.072"/>
	<g>
		<line fill="#FFFFFF" x1="312.34" y1="684.581" x2="461.374" y2="684.581"/>
		
			<line fill="none" stroke="#E5615B" stroke-width="6" stroke-linecap="round" stroke-miterlimit="10" x1="312.34" y1="684.581" x2="461.374" y2="684.581"/>
	</g>
	<g>
		<line fill="#FFFFFF" x1="456.131" y1="689.926" x2="456.131" y2="703.177"/>
		
			<line fill="none" stroke="#E5615B" stroke-width="6" stroke-linecap="round" stroke-miterlimit="10" x1="456.131" y1="689.926" x2="456.131" y2="703.177"/>
	</g>
	<g>
		<line fill="#FFFFFF" x1="432.43" y1="689.926" x2="432.43" y2="703.177"/>
		
			<line fill="none" stroke="#E5615B" stroke-width="2.0656" stroke-linecap="round" stroke-linejoin="round" stroke-miterlimit="10" x1="432.43" y1="689.926" x2="432.43" y2="703.177"/>
	</g>
	<g>
		<line fill="#FFFFFF" x1="412.369" y1="689.926" x2="412.369" y2="703.177"/>
		
			<line fill="none" stroke="#E5615B" stroke-width="2.0656" stroke-linecap="round" stroke-linejoin="round" stroke-miterlimit="10" x1="412.369" y1="689.926" x2="412.369" y2="703.177"/>
	</g>
	<g>
		<line fill="#FFFFFF" x1="341.284" y1="689.926" x2="341.284" y2="703.177"/>
		
			<line fill="none" stroke="#E5615B" stroke-width="2.0656" stroke-linecap="round" stroke-linejoin="round" stroke-miterlimit="10" x1="341.284" y1="689.926" x2="341.284" y2="703.177"/>
	</g>
	<g>
		<line fill="#FFFFFF" x1="361.345" y1="689.926" x2="361.345" y2="703.177"/>
		
			<line fill="none" stroke="#E5615B" stroke-width="2.0656" stroke-linecap="round" stroke-linejoin="round" stroke-miterlimit="10" x1="361.345" y1="689.926" x2="361.345" y2="703.177"/>
	</g>
	<g>
		<line fill="#FFFFFF" x1="317.583" y1="703.177" x2="317.583" y2="689.926"/>
		
			<line fill="none" stroke="#E5615B" stroke-width="6" stroke-linecap="round" stroke-miterlimit="10" x1="317.583" y1="703.177" x2="317.583" y2="689.926"/>
	</g>
	
		<line fill="#FFFFFF" stroke="#E5615B" stroke-width="3" stroke-linecap="round" stroke-miterlimit="10" x1="401.419" y1="724.147" x2="491.245" y2="724.147"/>
	
		<line fill="#FFFFFF" stroke="#E5615B" stroke-width="3" stroke-linecap="round" stroke-miterlimit="10" x1="282.469" y1="724.147" x2="372.295" y2="724.147"/>
	
		<line fill="#FFFFFF" stroke="#E5615B" stroke-width="3" stroke-linecap="round" stroke-miterlimit="10" x1="407.71" y1="717.857" x2="475.517" y2="717.857"/>
	
		<line fill="#FFFFFF" stroke="#E5615B" stroke-width="3" stroke-linecap="round" stroke-miterlimit="10" x1="298.197" y1="717.857" x2="366.004" y2="717.857"/>
	<path fill="#FFFFFF" stroke="#E5615B" stroke-width="3" stroke-linecap="round" stroke-miterlimit="10" d="M407.71,710.517h56.146
		c1.908,0,3.455,1.547,3.455,3.454"/>
	<path fill="#FFFFFF" stroke="#E5615B" stroke-width="3" stroke-linecap="round" stroke-miterlimit="10" d="M306.403,713.971
		c0-1.907,1.546-3.454,3.455-3.454h56.146"/>
	<polyline fill="#FFFFFF" stroke="#E5615B" stroke-width="6" stroke-linecap="round" stroke-miterlimit="10" points="
		322.825,679.862 386.857,641.311 450.888,679.862 	"/>
	
		<polyline fill="#FFFFFF" stroke="#E5615B" stroke-width="2.5857" stroke-linecap="round" stroke-linejoin="round" stroke-miterlimit="10" points="
		341.284,679.862 386.857,641.311 432.43,679.862 	"/>
	
		<polyline fill="#FFFFFF" stroke="#E5615B" stroke-width="2.0656" stroke-linecap="round" stroke-linejoin="round" stroke-miterlimit="10" points="
		361.345,679.862 386.857,641.311 412.369,679.862 	"/>
	
		<line fill="#FFFFFF" stroke="#E5615B" stroke-width="2.0656" stroke-linecap="round" stroke-linejoin="round" stroke-miterlimit="10" x1="386.857" y1="641.311" x2="386.857" y2="679.862"/>
</g>
<g>
	<g>
		<path fill="#FFFFFF" stroke="#FFFFFF" stroke-width="20" stroke-linecap="round" stroke-miterlimit="10" d="M711.221,719.106
			c0,0-28.312-20.971-30.758-35.3"/>
		
			<line fill="#FFFFFF" stroke="#FFFFFF" stroke-width="20" stroke-linecap="round" stroke-miterlimit="10" x1="657.047" y1="683.457" x2="681.512" y2="719.806"/>
		
			<line fill="#FFFFFF" stroke="#FFFFFF" stroke-width="20" stroke-linecap="round" stroke-miterlimit="10" x1="637.825" y1="683.457" x2="655.299" y2="719.806"/>
		
			<line fill="#FFFFFF" stroke="#FFFFFF" stroke-width="20" stroke-linecap="round" stroke-miterlimit="10" x1="620.069" y1="683.457" x2="634.398" y2="719.806"/>
		
			<line fill="#FFFFFF" stroke="#FFFFFF" stroke-width="20" stroke-linecap="round" stroke-miterlimit="10" x1="600.847" y1="683.457" x2="609.409" y2="719.806"/>
		<path fill="#FFFFFF" stroke="#FFFFFF" stroke-width="20" stroke-linecap="round" stroke-miterlimit="10" d="M442.037,719.106
			c0,0,28.31-20.971,30.756-35.3"/>
		
			<line fill="#FFFFFF" stroke="#FFFFFF" stroke-width="20" stroke-linecap="round" stroke-miterlimit="10" x1="496.209" y1="683.457" x2="471.745" y2="719.806"/>
		
			<line fill="#FFFFFF" stroke="#FFFFFF" stroke-width="20" stroke-linecap="round" stroke-miterlimit="10" x1="515.433" y1="683.457" x2="497.958" y2="719.806"/>
		
			<line fill="#FFFFFF" stroke="#FFFFFF" stroke-width="20" stroke-linecap="round" stroke-miterlimit="10" x1="533.188" y1="683.457" x2="518.857" y2="719.806"/>
		
			<line fill="#FFFFFF" stroke="#FFFFFF" stroke-width="20" stroke-linecap="round" stroke-miterlimit="10" x1="552.409" y1="683.457" x2="543.847" y2="719.806"/>
	</g>
	<g>
		
			<line fill="#FFFFFF" stroke="#FFFFFF" stroke-width="20" stroke-linecap="round" stroke-miterlimit="10" x1="592.034" y1="724.249" x2="736.734" y2="724.249"/>
		
			<line fill="#FFFFFF" stroke="#FFFFFF" stroke-width="20" stroke-linecap="round" stroke-miterlimit="10" x1="416.522" y1="724.249" x2="562.067" y2="724.249"/>
		
			<line fill="#FFFFFF" stroke="#FFFFFF" stroke-width="20" stroke-linecap="round" stroke-miterlimit="10" x1="472.793" y1="683.533" x2="680.463" y2="683.533"/>
		<path fill="#FFFFFF" stroke="#FFFFFF" stroke-width="20" stroke-linecap="round" stroke-miterlimit="10" d="M591.189,724.154
			V705.15c0-8.042-6.518-14.562-14.562-14.562c-8.042,0-14.561,6.521-14.561,14.562v18.688"/>
	</g>
	
		<path fill="#FFFFFF" stroke="#FFFFFF" stroke-width="20" stroke-linecap="round" stroke-linejoin="round" stroke-miterlimit="10" d="
		M479.083,677.262c0,0,48.426-18.76,59.681-61.476c0,0,17.216,19.442,37.744,19.442h0.24c20.528,0,37.744-19.442,37.744-19.442
		c11.257,42.716,59.682,61.476,59.682,61.476"/>
	
		<line fill="#FFFFFF" stroke="#FFFFFF" stroke-width="20" stroke-linecap="round" stroke-linejoin="round" stroke-miterlimit="10" x1="596.493" y1="678.586" x2="614.492" y2="615.786"/>
	
		<line fill="#FFFFFF" stroke="#FFFFFF" stroke-width="20" stroke-linecap="round" stroke-linejoin="round" stroke-miterlimit="10" x1="579.608" y1="678.586" x2="614.492" y2="615.786"/>
	
		<line fill="#FFFFFF" stroke="#FFFFFF" stroke-width="20" stroke-linecap="round" stroke-linejoin="round" stroke-miterlimit="10" x1="576.628" y1="663.688" x2="614.492" y2="615.786"/>
	
		<line fill="#FFFFFF" stroke="#FFFFFF" stroke-width="20" stroke-linecap="round" stroke-linejoin="round" stroke-miterlimit="10" x1="648.141" y1="678.917" x2="633.495" y2="649.157"/>
	
		<line fill="#FFFFFF" stroke="#FFFFFF" stroke-width="20" stroke-linecap="round" stroke-linejoin="round" stroke-miterlimit="10" x1="614.492" y1="615.786" x2="614.041" y2="678.255"/>
	
		<line fill="#FFFFFF" stroke="#FFFFFF" stroke-width="20" stroke-linecap="round" stroke-linejoin="round" stroke-miterlimit="10" x1="629.601" y1="678.586" x2="614.492" y2="615.786"/>
	
		<line fill="#FFFFFF" stroke="#FFFFFF" stroke-width="20" stroke-linecap="round" stroke-linejoin="round" stroke-miterlimit="10" x1="556.764" y1="678.586" x2="538.764" y2="615.786"/>
	
		<line fill="#FFFFFF" stroke="#FFFFFF" stroke-width="20" stroke-linecap="round" stroke-linejoin="round" stroke-miterlimit="10" x1="573.649" y1="678.586" x2="538.764" y2="615.786"/>
	
		<line fill="#FFFFFF" stroke="#FFFFFF" stroke-width="20" stroke-linecap="round" stroke-linejoin="round" stroke-miterlimit="10" x1="576.628" y1="663.688" x2="538.764" y2="615.786"/>
	
		<line fill="#FFFFFF" stroke="#FFFFFF" stroke-width="20" stroke-linecap="round" stroke-linejoin="round" stroke-miterlimit="10" x1="505.116" y1="678.917" x2="519.762" y2="649.157"/>
	
		<line fill="#FFFFFF" stroke="#FFFFFF" stroke-width="20" stroke-linecap="round" stroke-linejoin="round" stroke-miterlimit="10" x1="538.764" y1="615.786" x2="539.217" y2="678.255"/>
	
		<line fill="#FFFFFF" stroke="#FFFFFF" stroke-width="20" stroke-linecap="round" stroke-linejoin="round" stroke-miterlimit="10" x1="523.657" y1="678.586" x2="538.764" y2="615.786"/>
</g>
<g>
	
		<polyline fill="#FFFFFF" stroke="#E5615B" stroke-width="1.3076" stroke-linecap="round" stroke-linejoin="round" stroke-miterlimit="10" points="
		317.101,667.739 325.502,670.352 317.101,672.965 	"/>
	
		<line fill="#FFFFFF" stroke="#E5615B" stroke-width="1.3076" stroke-linecap="round" stroke-linejoin="round" stroke-miterlimit="10" x1="317.101" y1="667.739" x2="317.101" y2="685.145"/>
	
		<polyline fill="#FFFFFF" stroke="#E5615B" stroke-width="1.3076" stroke-linecap="round" stroke-linejoin="round" stroke-miterlimit="10" points="
		455.649,667.739 464.05,670.352 455.649,672.965 	"/>
	
		<line fill="#FFFFFF" stroke="#E5615B" stroke-width="1.3076" stroke-linecap="round" stroke-linejoin="round" stroke-miterlimit="10" x1="455.649" y1="667.739" x2="455.649" y2="685.145"/>
</g>
<g>
	<g>
		<g>
			
				<path fill="none" stroke="#E5615B" stroke-width="2.5857" stroke-linecap="round" stroke-linejoin="round" stroke-miterlimit="10" d="
				M705.725,674.712v-45.287c0-2.368,0.951-4.306,2.113-4.306s3.292,0,4.732,0c1.441,0,4.558,0,6.926,0h31.518
				c2.368,0,4.306,1.938,4.306,4.306v45.287"/>
		</g>
		<g>
			<path fill="#E5625B" d="M712.049,629.986c-0.803,0-1.455,0.652-1.455,1.456s0.652,1.456,1.455,1.456
				c0.804,0,1.456-0.652,1.456-1.456S712.853,629.986,712.049,629.986L712.049,629.986z"/>
		</g>
		<g>
			<g>
				<path fill="#E5625B" d="M748.995,629.986c-0.804,0-1.456,0.652-1.456,1.456s0.652,1.456,1.456,1.456s1.456-0.652,1.456-1.456
					S749.799,629.986,748.995,629.986L748.995,629.986z"/>
			</g>
		</g>
	</g>
	<g>
		<g>
			<path fill="none" stroke="#E5615B" stroke-width="2.5835" stroke-linecap="round" stroke-miterlimit="10" d="M705.726,674.554"/>
		</g>
		<g>
			
				<path fill="none" stroke="#E5615B" stroke-width="2.5857" stroke-linecap="round" stroke-linejoin="round" stroke-miterlimit="10" d="
				M755.319,674.554v45.288c0,2.368-1.938,4.306-4.306,4.306h-45.288"/>
		</g>
		<g>
			<path fill="#E5625B" d="M748.995,716.368c-0.804,0-1.456,0.652-1.456,1.456s0.652,1.456,1.456,1.456s1.456-0.652,1.456-1.456
				S749.799,716.368,748.995,716.368L748.995,716.368z"/>
		</g>
	</g>
</g>
<g>
	<g>
		<path fill="#FFFFFF" d="M730.241,672.326c-10.278,0-18.641-8.362-18.641-18.642c0-10.278,8.362-18.64,18.641-18.64
			c10.277,0,18.639,8.361,18.639,18.64C748.88,663.964,740.519,672.326,730.241,672.326z"/>
		<g>
			<path fill="#E5615B" d="M730.241,636.395c9.55,0,17.289,7.74,17.289,17.29c0,9.551-7.739,17.292-17.289,17.292
				c-9.551,0-17.291-7.741-17.291-17.292C712.95,644.135,720.69,636.395,730.241,636.395 M730.241,633.695
				c-11.023,0-19.991,8.967-19.991,19.989c0,11.023,8.968,19.992,19.991,19.992c11.022,0,19.989-8.969,19.989-19.992
				C750.23,642.662,741.264,633.695,730.241,633.695L730.241,633.695z"/>
		</g>
	</g>
	
		<circle fill="#FFFFFF" stroke="#E5615B" stroke-width="2.7" stroke-linecap="round" stroke-miterlimit="10" cx="730.241" cy="653.685" r="13.547"/>
	
		<circle fill="#FFFFFF" stroke="#E5615B" stroke-width="2.7" stroke-linecap="round" stroke-miterlimit="10" cx="730.24" cy="653.685" r="4.085"/>
</g>
<g>
	<g>
		<path fill="#FCFDFF" d="M730.241,715.015c-10.278,0-18.641-8.362-18.641-18.641c0-10.279,8.362-18.642,18.641-18.642
			c10.277,0,18.639,8.362,18.639,18.642C748.88,706.652,740.519,715.015,730.241,715.015z"/>
		<g>
			<path fill="#E5615B" d="M730.241,679.082c9.55,0,17.289,7.742,17.289,17.292s-7.739,17.291-17.289,17.291
				c-9.551,0-17.291-7.741-17.291-17.291S720.69,679.082,730.241,679.082 M730.241,676.382c-11.023,0-19.991,8.969-19.991,19.992
				s8.968,19.991,19.991,19.991c11.022,0,19.989-8.968,19.989-19.991S741.264,676.382,730.241,676.382L730.241,676.382z"/>
		</g>
	</g>
	
		<circle fill="#FFFFFF" stroke="#E5615B" stroke-width="2.7" stroke-linecap="round" stroke-miterlimit="10" cx="730.241" cy="696.374" r="13.547"/>
	
		<circle fill="#E5615B" stroke="#E5615B" stroke-width="2.7" stroke-linecap="round" stroke-miterlimit="10" cx="730.24" cy="696.374" r="4.085"/>
</g>
<polyline fill="#E5615B" stroke="#E5615B" stroke-width="1.3076" stroke-linecap="round" stroke-linejoin="round" stroke-miterlimit="10" points="
	749.022,607.53 757.424,610.143 749.022,612.754 "/>
<line fill="none" stroke="#E5615B" stroke-width="1.3076" stroke-linecap="round" stroke-linejoin="round" stroke-miterlimit="10" x1="749.022" y1="607.53" x2="749.022" y2="624.934"/>
<polygon fill="#FFFFFF" points="440.61,721.695 479.083,721.695 479.083,704.551 458.832,704.551 "/>
<g>
	
		<path fill="#FFFFFF" stroke="#E5615B" stroke-width="3" stroke-linecap="round" stroke-linejoin="round" stroke-miterlimit="10" d="
		M729.682,569.154h8.465l-3.149,21.646c0,0-3.222,14.946-0.964,23.651c0,0,4.354,10.319-1.45,10.319h-3.548H718.55h-3.546
		c-5.806,0-1.451-10.319-1.451-10.319c2.257-8.705-0.963-23.651-0.963-23.651l-3.148-21.646h8.465H729.682z"/>
	<path fill="none" stroke="#E5615B" stroke-width="3" stroke-linecap="round" stroke-linejoin="round" stroke-miterlimit="10" d="
		M712.208,618.967h23.17c-0.432-2.348-1.345-4.516-1.345-4.516c-2.258-8.705,0.964-23.651,0.964-23.651l1.498-10.294h-25.402
		l1.497,10.294c0,0,3.22,14.946,0.963,23.651C713.553,614.451,712.641,616.619,712.208,618.967z"/>
	<circle fill="#FFFFFF" stroke="#E5615B" stroke-width="3.2688" stroke-miterlimit="10" cx="722.26" cy="595.266" r="3.386"/>
	<circle fill="#FFFFFF" stroke="#E5615B" stroke-width="3.2688" stroke-miterlimit="10" cx="725.646" cy="602.602" r="1.854"/>
	<circle fill="#FFFFFF" stroke="#E5615B" stroke-width="3.2688" stroke-miterlimit="10" cx="728.951" cy="590.549" r="2.539"/>
	
		<path fill="#FFFFFF" stroke="#E5615B" stroke-width="3" stroke-linecap="round" stroke-linejoin="round" stroke-miterlimit="10" d="
		M736.984,560.002c-0.938,0-1.811,0.27-2.555,0.729c-0.725-2.231-2.819-3.847-5.29-3.847c-1.754,0-3.314,0.813-4.334,2.08
		c-0.936-2.626-3.436-4.509-6.383-4.509c-3.744,0-6.777,3.035-6.777,6.78c0,0.179,0.013,0.356,0.025,0.532h-1.649
		c-2.2,0-3.987,1.785-3.987,3.988c0,2.201,1.787,3.986,3.987,3.986h6.32v3.178c0,1.711,1.386,3.097,3.096,3.097
		s3.096-1.386,3.096-3.097v-3.178h13.749v-0.057c0.23,0.033,0.463,0.057,0.702,0.057c2.689,0,4.871-2.18,4.871-4.87
		S739.674,560.002,736.984,560.002z"/>
</g>
<g>
	<g>
		<path fill="#FFFFFF" stroke="#E5615B" stroke-width="3" stroke-linecap="round" stroke-miterlimit="10" d="M711.221,719.106
			c0,0-28.312-20.971-30.758-35.3"/>
		
			<line fill="#FFFFFF" stroke="#E5615B" stroke-width="3" stroke-linecap="round" stroke-miterlimit="10" x1="657.047" y1="683.457" x2="681.512" y2="719.806"/>
		
			<line fill="#FFFFFF" stroke="#E5615B" stroke-width="3" stroke-linecap="round" stroke-miterlimit="10" x1="637.825" y1="683.457" x2="655.299" y2="719.806"/>
		
			<line fill="#FFFFFF" stroke="#E5615B" stroke-width="3" stroke-linecap="round" stroke-miterlimit="10" x1="620.069" y1="683.457" x2="634.398" y2="719.806"/>
		
			<line fill="#FFFFFF" stroke="#E5615B" stroke-width="3" stroke-linecap="round" stroke-miterlimit="10" x1="600.847" y1="683.457" x2="609.409" y2="719.806"/>
		<path fill="#FFFFFF" stroke="#E5615B" stroke-width="3" stroke-linecap="round" stroke-miterlimit="10" d="M442.037,719.106
			c0,0,28.31-20.971,30.756-35.3"/>
		
			<line fill="#FFFFFF" stroke="#E5615B" stroke-width="3" stroke-linecap="round" stroke-miterlimit="10" x1="496.209" y1="683.457" x2="471.745" y2="719.806"/>
		
			<line fill="#FFFFFF" stroke="#E5615B" stroke-width="3" stroke-linecap="round" stroke-miterlimit="10" x1="515.433" y1="683.457" x2="497.958" y2="719.806"/>
		
			<line fill="#FFFFFF" stroke="#E5615B" stroke-width="3" stroke-linecap="round" stroke-miterlimit="10" x1="533.188" y1="683.457" x2="518.857" y2="719.806"/>
		
			<line fill="#FFFFFF" stroke="#E5615B" stroke-width="3" stroke-linecap="round" stroke-miterlimit="10" x1="552.409" y1="683.457" x2="543.847" y2="719.806"/>
	</g>
	<g>
		
			<line fill="#FFFFFF" stroke="#E5615B" stroke-width="2.5857" stroke-linecap="round" stroke-linejoin="round" stroke-miterlimit="10" x1="592.034" y1="724.249" x2="736.734" y2="724.249"/>
		
			<line fill="#FFFFFF" stroke="#E5615B" stroke-width="3" stroke-linecap="round" stroke-miterlimit="10" x1="416.522" y1="724.249" x2="562.067" y2="724.249"/>
		
			<line fill="#FFFFFF" stroke="#E5615B" stroke-width="6" stroke-linecap="round" stroke-miterlimit="10" x1="472.793" y1="683.533" x2="680.463" y2="683.533"/>
		<path fill="#FFFFFF" stroke="#E5615B" stroke-width="6" stroke-linecap="round" stroke-miterlimit="10" d="M591.189,723.105
			V705.15c0-8.042-6.518-14.562-14.562-14.562c-8.042,0-14.561,6.521-14.561,14.562v17.639"/>
	</g>
	
		<path fill="#FFFFFF" stroke="#E5615B" stroke-width="5.89" stroke-linecap="round" stroke-linejoin="round" stroke-miterlimit="10" d="
		M479.083,677.262c0,0,48.426-18.76,59.681-61.476c0,0,17.216,19.442,37.744,19.442h0.24c20.528,0,37.744-19.442,37.744-19.442
		c11.257,42.716,59.682,61.476,59.682,61.476"/>
	
		<line fill="#FFFFFF" stroke="#E5615B" stroke-width="3" stroke-linecap="round" stroke-linejoin="round" stroke-miterlimit="10" x1="596.493" y1="678.586" x2="614.492" y2="615.786"/>
	
		<line fill="#FFFFFF" stroke="#E5615B" stroke-width="3" stroke-linecap="round" stroke-linejoin="round" stroke-miterlimit="10" x1="579.608" y1="678.586" x2="614.492" y2="615.786"/>
	
		<line fill="#FFFFFF" stroke="#E5615B" stroke-width="3" stroke-linecap="round" stroke-linejoin="round" stroke-miterlimit="10" x1="576.628" y1="663.688" x2="614.492" y2="615.786"/>
	
		<line fill="#FFFFFF" stroke="#E5615B" stroke-width="3" stroke-linecap="round" stroke-linejoin="round" stroke-miterlimit="10" x1="648.141" y1="678.917" x2="633.495" y2="649.157"/>
	
		<line fill="#FFFFFF" stroke="#E5615B" stroke-width="3" stroke-linecap="round" stroke-linejoin="round" stroke-miterlimit="10" x1="614.492" y1="615.786" x2="614.041" y2="678.255"/>
	
		<line fill="#FFFFFF" stroke="#E5615B" stroke-width="3" stroke-linecap="round" stroke-linejoin="round" stroke-miterlimit="10" x1="629.601" y1="678.586" x2="614.492" y2="615.786"/>
	
		<line fill="#FFFFFF" stroke="#E5615B" stroke-width="3" stroke-linecap="round" stroke-linejoin="round" stroke-miterlimit="10" x1="556.764" y1="678.586" x2="538.764" y2="615.786"/>
	
		<line fill="#FFFFFF" stroke="#E5615B" stroke-width="3" stroke-linecap="round" stroke-linejoin="round" stroke-miterlimit="10" x1="573.649" y1="678.586" x2="538.764" y2="615.786"/>
	
		<line fill="#FFFFFF" stroke="#E5615B" stroke-width="3" stroke-linecap="round" stroke-linejoin="round" stroke-miterlimit="10" x1="576.628" y1="663.688" x2="538.764" y2="615.786"/>
	
		<line fill="#FFFFFF" stroke="#E5615B" stroke-width="3" stroke-linecap="round" stroke-linejoin="round" stroke-miterlimit="10" x1="505.116" y1="678.917" x2="519.762" y2="649.157"/>
	
		<line fill="#FFFFFF" stroke="#E5615B" stroke-width="3" stroke-linecap="round" stroke-linejoin="round" stroke-miterlimit="10" x1="538.764" y1="615.786" x2="539.217" y2="678.255"/>
	
		<line fill="#FFFFFF" stroke="#E5615B" stroke-width="3" stroke-linecap="round" stroke-linejoin="round" stroke-miterlimit="10" x1="523.657" y1="678.586" x2="538.764" y2="615.786"/>
</g>
<g>
	<g>
		<path display="none" fill="#FFFFFF" stroke="#2A333C" stroke-width="19" stroke-linecap="round" stroke-miterlimit="10" d="
			M551.891,536.652c0,5.069-4.758,9.179-10.625,9.179h-31.907c-5.867,0-10.622-4.109-10.622-9.179l0,0
			c0-5.068,4.755-9.177,10.622-9.177h31.907C547.133,527.476,551.891,531.584,551.891,536.652L551.891,536.652z"/>
		<g>
			<path fill="#FFFFFF" stroke="#E5615B" stroke-width="1.693" stroke-miterlimit="10" d="M560.575,529.367
				c0.742,2.008-0.374,4.147-2.271,5c-21.062,8.757-43.503,8.754-64.566,0c-1.895-0.853-3.012-2.992-2.27-5l0,0
				c0.736-1.839,2.813-2.591,4.668-1.783c19.554,8.086,40.217,8.086,59.771,0C557.763,526.776,559.84,527.528,560.575,529.367
				L560.575,529.367z"/>
		</g>
		
			<path fill="#FFFFFF" stroke="#F69131" stroke-width="1.0158" stroke-linecap="round" stroke-linejoin="round" stroke-miterlimit="10" d="
			M526.021,537.122"/>
		<path fill="#FFFFFF" stroke="#E5615B" stroke-width="6" stroke-linecap="round" stroke-miterlimit="10" d="M551.891,536.952
			c0,5.069-4.758,9.178-10.625,9.178h-31.907c-5.867,0-10.622-4.108-10.622-9.178l0,0c0-5.069,4.755-9.177,10.622-9.177h31.907
			C547.133,527.775,551.891,531.883,551.891,536.952L551.891,536.952z"/>
		<g display="none">
			
				<path display="inline" fill="#FFFFFF" stroke="#E5615B" stroke-width="2.0316" stroke-linecap="round" stroke-linejoin="round" stroke-miterlimit="10" d="
				M556.524,529.408c0.31-0.125-0.2,0.157,0.114,0.027"/>
			
				<path display="inline" fill="#FFFFFF" stroke="#2A333C" stroke-width="2.0316" stroke-linecap="round" stroke-linejoin="round" stroke-miterlimit="10" d="
				M551.768,531.294c1.188-0.411,2.329-0.835,3.475-1.29"/>
		</g>
		<path fill="#FFFFFF" d="M516.188,528.594v4.529v2.801c0,0.793,0.644,1.438,1.437,1.438c0.794,0,1.437-0.645,1.437-1.438v-2.801
			c0-0.794,0.646-1.438,1.438-1.438c0.794,0,1.437,0.644,1.437,1.438v8.082c0,1.065,0.864,1.929,1.929,1.929
			c1.066,0,1.929-0.863,1.929-1.929v-5.792v-0.288v-0.068c0-0.598,0.484-1.08,1.081-1.08s1.081,0.482,1.081,1.08v0.356v4.565
			c0,0.598,0.483,1.08,1.08,1.08s1.08-0.482,1.08-1.08v-6.855v-1.932c0-0.598,0.484-1.08,1.081-1.08c0.596,0,1.08,0.482,1.08,1.08
			v1.932v10.51c0,0.597,0.482,1.08,1.079,1.08s1.08-0.483,1.08-1.08v-10.51v-2.695v-1.834H516.188z"/>
	</g>
	
		<line fill="#FFFFFF" stroke="#2A333C" stroke-width="0.6772" stroke-linecap="round" stroke-miterlimit="10" x1="533.04" y1="543.287" x2="533.04" y2="531.191"/>
	
		<line fill="#FFFFFF" stroke="#2A333C" stroke-width="0.6772" stroke-linecap="round" stroke-miterlimit="10" x1="528.604" y1="539.671" x2="528.604" y2="535.135"/>
	
		<line fill="#FFFFFF" stroke="#2A333C" stroke-width="0.6772" stroke-linecap="round" stroke-miterlimit="10" x1="522.599" y1="541.275" x2="522.599" y2="533.464"/>
	
		<line fill="#FFFFFF" stroke="#2A333C" stroke-width="0.6772" stroke-linecap="round" stroke-miterlimit="10" x1="516.729" y1="535.748" x2="516.729" y2="530.027"/>
</g>
<g>
	<g>
		<g>
			<g>
				<path fill="#FFFFFF" stroke="#E5615B" stroke-width="1.6416" stroke-linecap="round" stroke-miterlimit="10" d="
					M253.216,599.365v-4.623c0-0.877,0.717-1.594,1.594-1.594h14.022"/>
				
					<line fill="#FFFFFF" stroke="#E5615B" stroke-width="3" stroke-linecap="round" stroke-miterlimit="10" x1="253.216" y1="623.243" x2="253.216" y2="606.843"/>
				<path fill="#FFFFFF" stroke="#E5615B" stroke-width="1.6416" stroke-linecap="round" stroke-miterlimit="10" d="
					M289.502,593.148h16.688c0.876,0,1.593,0.717,1.593,1.594v4.777"/>
			</g>
			<g>
				<path fill="#FFFFFF" stroke="#E5615B" stroke-width="1.6416" stroke-linecap="round" stroke-miterlimit="10" d="
					M264.438,600.209l11.166-11.166c0.62-0.619,1.844-1.126,2.721-1.126h4.352c0.876,0,2.101,0.507,2.721,1.126l4.104,4.105"/>
			</g>
			<g>
				<path fill="#FFFFFF" stroke="#E5615B" stroke-width="3" stroke-linecap="round" stroke-miterlimit="10" d="M292.319,603.115
					h13.872c0.876,0,1.593,0.717,1.593,1.594v18.74c0,0.877-0.717,1.594-1.593,1.594h-36.668"/>
				<path fill="#FFFFFF" stroke="#E5615B" stroke-width="3" stroke-linecap="round" stroke-miterlimit="10" d="M295.188,603.115
					h11.003c0.876,0,1.593,0.717,1.593,1.594v18.74c0,0.877-0.717,1.594-1.593,1.594h-34.437"/>
			</g>
			<g>
				
					<line fill="#FFFFFF" stroke="#E5615B" stroke-width="3" stroke-linecap="round" stroke-miterlimit="10" x1="253.216" y1="603.115" x2="266.601" y2="603.115"/>
				<path fill="#FFFFFF" stroke="#E5615B" stroke-width="3" stroke-linecap="round" stroke-miterlimit="10" d="M264.118,625.043
					h-9.307c-0.877,0-1.594-0.717-1.594-1.594"/>
			</g>
			<g>
				<path fill="#FFFFFF" stroke="#E5615B" stroke-width="3" stroke-linecap="round" stroke-miterlimit="10" d="M291.5,625.017
					c-5.491,6.075-14.867,6.55-20.942,1.058c-6.074-5.49-6.547-14.865-1.056-20.94c5.491-6.076,14.867-6.548,20.94-1.058
					c3.193,2.885,4.838,6.844,4.884,10.832"/>
				<path fill="#FFFFFF" stroke="#E5615B" stroke-width="3" stroke-linecap="round" stroke-miterlimit="10" d="M291.5,625.017
					c-5.491,6.075-14.867,6.55-20.942,1.058c-6.074-5.49-6.547-14.865-1.056-20.94c5.491-6.076,14.867-6.548,20.94-1.058
					c3.193,2.885,4.838,6.844,4.884,10.832"/>
			</g>
		</g>
		
			<line fill="#FFFFFF" stroke="#E5615B" stroke-width="3.6481" stroke-linecap="round" stroke-miterlimit="10" x1="276.525" y1="585.3" x2="284.476" y2="585.3"/>
	</g>
	<g>
		<path fill="#FFFFFF" stroke="#E5615B" stroke-width="1.6416" stroke-linecap="round" stroke-miterlimit="10" d="M290.094,615.074
			c0,5.3-4.295,9.596-9.594,9.596c-5.297,0-9.594-4.296-9.594-9.596c0-5.296,4.296-9.594,9.594-9.594"/>
	</g>
</g>
<polyline fill="#FFFFFF" stroke="#E5615B" stroke-width="1.3076" stroke-linecap="round" stroke-linejoin="round" stroke-miterlimit="10" points="
	255.708,575.733 264.109,578.346 255.708,580.959 "/>
<line fill="#FFFFFF" stroke="#E5615B" stroke-width="1.3076" stroke-linecap="round" stroke-linejoin="round" stroke-miterlimit="10" x1="255.708" y1="575.733" x2="255.708" y2="593.138"/>
<polyline fill="#FFFFFF" stroke="#E5615B" stroke-width="1.3076" stroke-linecap="round" stroke-linejoin="round" stroke-miterlimit="10" points="
	303.584,575.733 311.986,578.346 303.584,580.959 "/>
<line fill="#FFFFFF" stroke="#E5615B" stroke-width="1.3076" stroke-linecap="round" stroke-linejoin="round" stroke-miterlimit="10" x1="303.584" y1="575.733" x2="303.584" y2="593.138"/>
<line fill="none" stroke="#E5615B" stroke-width="3" stroke-linecap="round" stroke-miterlimit="10" x1="763.421" y1="685.145" x2="999.54" y2="685.145"/>
<line fill="#FFFFFF" stroke="#E5615B" stroke-width="3" stroke-linecap="round" stroke-miterlimit="10" x1="3.746" y1="685.145" x2="239.865" y2="685.145"/>
<line fill="#FFFFFF" stroke="#E5615B" stroke-width="3" stroke-linecap="round" stroke-miterlimit="10" x1="128.225" y1="701.455" x2="239.865" y2="701.455"/>
<line fill="none" stroke="#E5615B" stroke-width="3" stroke-linecap="round" stroke-miterlimit="10" x1="763.421" y1="701.455" x2="875.062" y2="701.455"/>
</svg>
