<svg xmlns="http://www.w3.org/2000/svg" viewBox="0 0 595.3 841.9">
    <style type="text/css">
      * { color: #E6615B; }
    </style>
    <g id="icon">
  <g>
    <g>
      <g>
        
        <rect x="312.7" y="357.2" style="fill:currentColor" width="92" height="40.1"/>
      </g>
      <g>
        <animateTransform attributeName="transform" type="translate" values="0 0; 0 -2; 0 -1; 0 0; 0 -1; 0 -1; 0 0; 0 2" begin="0s" repeatCount="indefinite" dur="4s" fill="freeze"/>
        <g>
          
          <path style="fill:currentColor" d="M327.2,428.8c0,4-3.2,7.2-7.2,7.2l0,0c-4,0-7.2-3.2-7.2-7.2v-31.5c0-4,3.2-7.2,7.2-7.2l0,0      c4,0,7.2,3.2,7.2,7.2V428.8z"/>
        </g>
        <g>
          <path style="fill:currentColor" d="M382.9,431.9c0,3-2.5,5.5-5.5,5.5l0,0c-3,0-5.5-2.5-5.5-5.5v-48.1c0-3,2.5-5.5,5.5-5.5l0,0      c3,0,5.5,2.5,5.5,5.5V431.9z"/>
        </g>
        <g>
          <path style="fill:currentColor" d="M404.7,471.2c0,3-2.5,5.5-5.5,5.5l0,0c-3,0-5.5-2.5-5.5-5.5v-87.4c0-3,2.5-5.5,5.5-5.5l0,0      c3,0,5.5,2.5,5.5,5.5V471.2z"/>
        </g>
        <g>
          <path style="fill:currentColor" d="M361.1,438.1c0,5.4-4.3,9.7-9.7,9.7l0,0c-5.4,0-9.7-4.3-9.7-9.7V396c0-5.4,4.3-9.7,9.7-9.7l0,0      c5.4,0,9.7,4.3,9.7,9.7V438.1z"/>
        </g>
        <g>
          <path fill="#2A333C" d="M341.7,428.8c0,4-3.2,7.2-7.2,7.2l0,0c-4,0-7.2-3.2-7.2-7.2v-31.5c0-4,3.2-7.2,7.2-7.2l0,0      c4,0,7.2,3.2,7.2,7.2V428.8z"/>
        </g>
      </g>
      <g>
        <path fill="#2A333C" d="M393.8,419.2c0,3-2.5,5.5-5.5,5.5l0,0c-3,0-5.5-2.5-5.5-5.5v-35.5c0-3,2.5-5.5,5.5-5.5l0,0     c3,0,5.5,2.5,5.5,5.5V419.2z"/>
      </g>
      <g>
        <path fill="#2A333C" d="M372,419.2c0,3-2.5,5.5-5.5,5.5l0,0c-3,0-5.5-2.5-5.5-5.5v-23.6c0-3,2.5-5.5,5.5-5.5l0,0     c3,0,5.5,2.5,5.5,5.5V419.2z"/>
      </g>
    </g>
    <g>
      
      <g id="#smoke-2">
        <animateTransform attributeName="transform" type="translate" values="0 0; 0 15;" begin="0.3s" repeatCount="indefinite" dur="4s" />
           <animate
             attributeName="opacity"
             from="0.3" to="0" repeatCount="indefinite" dur="4s"
             begin="0.3s;" />
        <path style="fill:currentColor;" d="M541.2,716.6c-0.4,0-0.6-0.2-0.8-0.6c-5.5-14.4-15.2-23.4-28.9-26.7c-10.2-2.5-18.9-0.6-19.1-0.6     c-0.2,0.1-0.5,0-0.7-0.1c-0.2-0.1-0.3-0.4-0.3-0.6c0-22.1-4.6-41.1-13.7-56.4c-7.2-12.2-17.3-22.1-30-29.4     c-0.4-0.2-0.6-0.7-0.3-1.1c0.2-0.4,0.7-0.6,1.1-0.3c12.9,7.4,23.2,17.5,30.6,30c9.1,15.3,13.7,34.2,13.9,56.2     c2.6-0.4,10.1-1.3,18.8,0.8c9.8,2.3,23,9,30.1,27.7c0.1,0.4-0.1,0.9-0.5,1.1C541.3,716.6,541.3,716.6,541.2,716.6z"/>
      </g>
      <g id="smoke-4">
        <animateTransform attributeName="transform" type="translate" values="0 0; 0 15;" begin="0s" repeatCount="indefinite" dur="4s" />
           <animate
             attributeName="opacity"
             from="0.3" to="0" repeatCount="indefinite" dur="4s"
             begin="0s;" />
        <path style="fill:currentColor;" d="M1.9,776c-0.4,0-0.8-0.3-0.8-0.7c-3.9-34.6,2.9-61.4,20.4-79.4c25.2-26.1,64.6-25.2,69.9-25     c6.7-17.2,16.9-28.9,30.1-34.6c17-7.4,34.1-2.7,38.6-1.1c-0.1-18.6,4.8-32.7,14.4-41.7c12.9-12,29.4-10.7,30.1-10.7     c0.4,0.1,0.8,0.4,0.8,0.9c-0.1,0.4-0.4,0.8-0.9,0.8c-0.1,0-16.5-1.3-28.9,10.2c-9.5,8.9-14.2,22.9-13.9,41.6     c0,0.3-0.1,0.6-0.4,0.7s-0.5,0.2-0.8,0.1c-0.2-0.1-19.4-7.6-38.5,0.7c-13,5.7-22.8,17.2-29.4,34.3c-0.1,0.4-0.5,0.6-0.8,0.5     c-0.4,0-43-2.9-69.3,24.5c-17,17.6-23.6,43.9-19.8,78C2.7,775.5,2.4,775.9,1.9,776L1.9,776z"/>
      </g>
    </g>
    <g>
      <g id="smoke-1">
          <animateTransform attributeName="transform" type="translate" values="0 0; 0 15;" begin="0s" repeatCount="indefinite" dur="3s" />
           <animate
             attributeName="opacity"
             from="0.7" to="0" repeatCount="indefinite" dur="3s"
             begin="0s;" /> 
        <path style="fill:currentColor;" d="M594.4,514.6c-0.4,0-0.8-0.4-0.8-0.8c0-17-4.9-29.4-14.6-37.1c-17.1-13.5-43.4-7.6-43.7-7.5     c-0.4,0.1-0.8-0.1-1-0.5c-9.9-26.1-36.2-20.8-36.4-20.7c-0.2,0.1-0.5,0-0.7-0.1s-0.3-0.4-0.3-0.6c0-16.9-3.5-31.3-10.4-43     c-5.5-9.3-13.2-16.8-22.8-22.4c-16.5-9.5-33.1-9.9-33.3-9.9c-0.4,0-0.8-0.4-0.8-0.8c0-0.4,0.4-0.8,0.8-0.8l0,0     c0.1,0,17.2,0.5,34.1,10.2c15.4,8.9,33.8,27.5,34.1,65.9c5-0.7,27.6-2.5,37.1,21.2c4.3-0.8,28.3-4.8,44.4,7.9     c10.1,8,15.2,20.9,15.2,38.4C595.3,514.2,594.9,514.6,594.4,514.6z"/>
      </g>
      <g id="smoke-2">
         <animateTransform attributeName="transform" type="translate" values="0 0; 0 15;" begin="0.2s" repeatCount="indefinite" dur="3s" />
           <animate
             attributeName="opacity"
             from="0.6" to="0" repeatCount="indefinite" dur="3s"
             begin="0.2s;" />
        <path style="fill:currentColor;" d="M122.9,514.6c-0.4,0-0.8-0.3-0.8-0.7c-2.9-26.6,2.3-47,15.6-60.8c19.1-19.8,48.8-19.3,53.5-19.2     c5.2-13.1,13-22,23.1-26.4c12.9-5.6,25.6-2.2,29.4-1c-0.1-14.2,3.7-24.8,11.1-31.7c9.9-9.2,22.6-8.3,23.2-8.2     c0.4,0.1,0.8,0.4,0.8,0.9c-0.1,0.4-0.4,0.8-0.9,0.8c-0.1,0-12.6-1-21.9,7.8c-7.2,6.7-10.8,17.4-10.5,31.7c0,0.3-0.1,0.6-0.4,0.7     c-0.2,0.1-0.5,0.2-0.8,0.1c-0.1-0.1-14.8-5.7-29.3,0.6c-9.8,4.3-17.4,13-22.4,26.1c-0.1,0.4-0.5,0.6-0.8,0.5     c-0.4,0-32.7-2.2-52.8,18.6c-13,13.5-18.1,33.5-15.1,59.6C123.7,514.2,123.3,514.6,122.9,514.6     C123,514.6,122.9,514.6,122.9,514.6z"/>
      </g>
    </g>
    <g>
      <animateTransform attributeName="transform" type="translate" values="0 0; 0 -2; 0 -1; 0 0; 0 -1; 0 -1; 0 0; 0 2" begin="0s" repeatCount="indefinite" dur="2s" fill="freeze"/>
      <g>
        <g>
          <path style="fill:currentColor;" d="M441.5,334.9c0.9,3.6-1.4,6.7-5.2,6.7h-29c-3.8,0-6.4-3.1-5.9-6.8l3.6-24.4c0.6-3.7,4.1-6.8,7.8-6.8      h13.9c3.8,0,7.6,3,8.5,6.7L441.5,334.9z"/>
        </g>
        <g>
          <path style="fill:currentColor;" d="M433.8,305.8V128c0-7.7-6.7-35.2-13.9-35.2c-7,0-13.9,27.5-13.9,35.2v177.9L433.8,305.8L433.8,305.8z"/>
        </g>
      </g>
      <g>
        <g>
          <path style="fill:currentColor;" d="M279.6,334.9c-0.8,3.6,1.5,6.7,5.3,6.7h28.4c3.8,0,6.4-3.1,5.9-6.8l-3.6-24.4c-0.6-3.7-4.1-6.8-7.8-6.8      h-13.9c-3.8,0-7.6,3-8.4,6.7L279.6,334.9z"/>
        </g>
        <g>
          <path style="fill:currentColor;" d="M286.6,305.8V128c0-7.7,6.7-35.2,13.9-35.2c7,0,13.9,27.5,13.9,35.2v177.9L286.6,305.8L286.6,305.8z"/>
        </g>
      </g>
      <g>
        <g>
          <path fill="#2A333C" d="M388.4,323H332l-14.7,33.4c-1.5,2.7-0.3,4.9,2.8,4.9h80.2c3.1,0,4.4-2.2,2.8-4.9L388.4,323z"/>
          <path style="fill:currentColor;" d="M400.3,363.7h-80.2c-2.4,0-4.3-1-5.3-2.7c-1-1.6-0.8-3.7,0.3-5.7l15.3-34.7H390l15.3,34.7      c1.1,2,1.2,4.1,0.3,5.7C404.6,362.8,402.7,363.7,400.3,363.7z M333.5,325.4l-14.1,32.1l-0.1,0.1c-0.4,0.6-0.4,1-0.4,1.1      c0.1,0.1,0.4,0.2,1.1,0.2h80.2c0.8,0,1.1-0.2,1.1-0.3c0-0.1,0-0.4-0.4-1.1l-0.1-0.2l-14.1-32L333.5,325.4L333.5,325.4z"/>
        </g>
        <g>
          <g>
            <path fill="#2A333C" d="M324.1,329c-2.3,0-4.3-1.9-4.3-4.3v-0.1l-2.4-24.2h88.1l-2.4,24.2v0.1c0,2.3-1.9,4.3-4.3,4.3H324.1z"/>
          </g>
          <g>
            <g>
              <path style="fill:currentColor;" d="M402.7,302.9l-2.1,21.4v0.3v0.3c0,0.9-0.8,1.7-1.7,1.7H324c-0.9,0-1.7-0.8-1.7-1.7v-0.3v-0.3        l-2.1-21.4H402.7 M408.3,297.8h-93.7l2.6,26.9c0,3.7,3.1,6.8,6.8,6.8h75c3.7,0,6.8-3.1,6.8-6.8L408.3,297.8L408.3,297.8z"/>
            </g>
          </g>
        </g>
      </g>
      <g>
        <g>
          <path fill="#2A333C" d="M244.9,286.9v-20.7c0-13.3,1-21,6.7-28.9c5.7-7.8,16-16,38.3-30.3c22.4-14.4,34.2-33.5,40.1-47.1      c5-11.4,6.8-20.6,7.4-24.5H386c0.6,3.9,2.5,13.1,7.4,24.5c6,13.5,17.7,32.7,40.1,47.1c22.3,14.3,32.7,22.5,38.3,30.3      c5.7,7.8,6.7,15.6,6.7,28.9v20.7L244.9,286.9L244.9,286.9z"/>
        </g>
        <g>
          <g>
            <path style="fill:currentColor;" d="M384.2,137.6c0.8,4.6,2.9,13.2,7.3,23.2c6.1,13.8,18.1,33.4,40.9,48c22.1,14.2,32.3,22.2,37.8,29.8       c5.4,7.4,6.2,14.5,6.2,27.6v18.6h-106h-19.6H247v-18.6c0-13.1,0.9-20.2,6.2-27.6c5.5-7.6,15.7-15.7,37.8-29.8       c22.8-14.6,34.9-34.2,40.9-48c4.4-10,6.4-18.6,7.2-23.2H384.2 M387.9,133.4h-52.3c0,0-4.3,44.6-46.8,71.9s-46,34.8-46,61V289       h108h19.6h110.3v-22.8c0-26.1-3.5-33.8-46-61C392.2,178,387.9,133.4,387.9,133.4L387.9,133.4z"/>
          </g>
        </g>
      </g>
      <g>
        <path fill="#2A333C" d="M337,129.3v116c0,0-20.8,2.9-20.8,21.5v40.1h90.5v-40.1c0-18.6-20.8-21.5-20.8-21.5v-116"/>
        <path style="fill:currentColor;" d="M408.9,308.9h-94.8v-42.2c0-16.8,15.4-21.9,20.8-23.3V129.2h4.3V247l-1.8,0.3c-0.8,0.1-19,2.9-19,19.4v38     h86.3v-38c0-16.6-18.2-19.3-19-19.4l-1.8-0.3V129.3h4.3v114.2c5.4,1.3,20.8,6.4,20.8,23.3L408.9,308.9L408.9,308.9z"/>
      </g>
      <g>
        <path style="fill:currentColor;" d="M361.7,287.9c-3.4,0-6-2.7-6-6v-59.3c0-3.4,2.7-6,6-6s6,2.7,6,6v59.3     C367.8,285.2,365.1,287.9,361.7,287.9z"/>
      </g>
      <g id="line-0">
        <animateTransform attributeName="transform" type="translate" values="0 0; 0 15;" begin="0s" repeatCount="indefinite" dur="1.5s" />
        <animate
             attributeName="opacity"
             from="0.7" to="0" repeatCount="indefinite" dur="1.5s"
             begin="0s;" /> 
        <path style="fill:currentColor;" d="M314,630.6c-0.4,0-0.8-0.4-0.8-0.8V375.2c0-0.4,0.4-0.8,0.8-0.8c0.4,0,0.8,0.4,0.8,0.8v254.5     C314.9,630.3,314.5,630.6,314,630.6z"/>
      </g>
      <g id="line-1">
        <animateTransform attributeName="transform" type="translate" values="0 0; 0 15;" begin="0.3s" repeatCount="indefinite" dur="1.5s" />
        <animate
             attributeName="opacity"
             from="0.7" to="0" repeatCount="indefinite" dur="1.5s"
             begin="0.3s;" /> 
        <path style="fill:currentColor;" d="M408.3,813c-0.4,0-0.8-0.4-0.8-0.8V516c0-0.4,0.4-0.8,0.8-0.8c0.4,0,0.8,0.4,0.8,0.8v296.2     C409.2,812.6,408.8,813,408.3,813z"/>
      </g>
      <g id="line-2">
        <animateTransform attributeName="transform" type="translate" values="0 0; 0 15;" begin="0s" repeatCount="indefinite" dur="1.4s" />
        <animate
             attributeName="opacity"
             from="0.7" to="0" repeatCount="indefinite" dur="1.4s"
             begin="0s;" /> 
        <path style="fill:currentColor;" d="M365.9,806.1c-0.4,0-0.8-0.4-0.8-0.8v-90.5c0-0.4,0.4-0.8,0.8-0.8c0.4,0,0.8,0.4,0.8,0.8v90.5     C366.7,805.7,366.4,806.1,365.9,806.1z"/>
      </g>
      <g id="line-3">
        <animateTransform attributeName="transform" type="translate" values="0 0; 0 15;" begin="0.5s" repeatCount="indefinite" dur="1.2s" />
        <animate
             attributeName="opacity"
             from="0.7" to="0" repeatCount="indefinite" dur="1.2s"
             begin="0.5s;" />
        <path style="fill:currentColor;" d="M365.9,542c-0.4,0-0.8-0.4-0.8-0.8V516c0-0.4,0.4-0.8,0.8-0.8c0.4,0,0.8,0.4,0.8,0.8v25.2     C366.7,541.6,366.4,542,365.9,542z"/>
      </g>
      <g id="line-4">
        <animateTransform attributeName="transform" type="translate" values="0 0; 0 15;" begin="0.6s" repeatCount="indefinite" dur="1.1s" />
        <animate
             attributeName="opacity"
             from="0.7" to="0" repeatCount="indefinite" dur="1.1s"
             begin="0.6s;" />
        <path style="fill:currentColor;" d="M350.7,599.4c-0.4,0-0.8-0.4-0.8-0.8v-62.4c0-0.4,0.4-0.8,0.8-0.8c0.5,0,0.8,0.4,0.8,0.8v62.4     C351.6,598.9,351.2,599.4,350.7,599.4z"/>
      </g>
    </g>
    <g>
      <g>
        <path style="fill:currentColor;" d="M328.7,181.7h-2.2V78.6l1.3,0.3c1,0.2,24.5,5.3,25.9,16.7l-2.2,0.3c-1.1-8.5-17.9-13.2-22.8-14.5     L328.7,181.7L328.7,181.7z"/>
      </g>
      <g>
        <path fill="#2A333C" d="M393.7,188.1c0,9.4-1.8,44.9-32.6,44.9s-33.4-30.5-33.4-44.9s0-108.2,0-108.2s14.9,3.8,34.2,3.8     s31.9-3.8,31.9-3.8S393.7,171.8,393.7,188.1z"/>
        <path style="fill:currentColor;" d="M361,235.3c-14.3,0-24.5-6.2-30.3-18.4c-3.6-7.5-5.4-17.2-5.4-28.9V77l2.9,0.7c0.1,0.1,14.9,3.7,33.6,3.7     c18.6,0,31-3.6,31.2-3.6l3-0.9V80v108.2c0,5.7-0.6,16.8-5,26.9C385.4,228.2,375,235.3,361,235.3z M329.9,82.8V188     c0,10.9,1.7,20,5,26.8c5,10.4,13.8,15.8,26.1,15.8c28.1,0,30.3-32.6,30.3-42.6V82.9c-4.9,1.1-15.4,3.1-29.5,3.1     C347.2,86,335.3,83.9,329.9,82.8z"/>
      </g>
      <g>
        <path style="fill:currentColor;" d="M345.6,149.1c-1,0-2-0.6-2.3-1.6c-0.5-1.3,0.1-2.7,1.4-3.2l30.2-11.6c1.3-0.5,2.7,0.1,3.2,1.4     c0.5,1.3-0.1,2.7-1.4,3.2l-30.2,11.6C346.2,149,345.9,149.1,345.6,149.1z"/>
      </g>
      <g>
        <path style="fill:currentColor;" d="M360.7,131.7c-1,0-2-0.6-2.3-1.6c-0.5-1.3,0.1-2.7,1.4-3.2l15.1-5.7c1.3-0.5,2.7,0.1,3.2,1.4     c0.5,1.3-0.1,2.7-1.4,3.2l-15.1,5.7C361.3,131.7,361,131.7,360.7,131.7z"/>
      </g>
      <g>
        <path style="fill:currentColor;" d="M345.6,137.5c-1,0-2-0.6-2.3-1.6c-0.5-1.3,0.1-2.7,1.4-3.2l15.1-5.7c1.3-0.5,2.7,0.1,3.2,1.4     c0.5,1.3-0.1,2.7-1.4,3.2l-15.1,5.7C346.2,137.4,345.9,137.5,345.6,137.5z"/>
      </g>
      <g>
        <path style="fill:currentColor;" d="M345.6,125.9c-1,0-2-0.6-2.3-1.6c-0.5-1.3,0.1-2.7,1.4-3.2l15.1-5.7c1.3-0.5,2.7,0.1,3.2,1.4     c0.5,1.3-0.1,2.7-1.4,3.2l-15.1,5.7C346.2,125.9,345.9,125.9,345.6,125.9z"/>
      </g>
      <g>
        <path style="fill:currentColor;" d="M375.8,114.4c-0.3,0-0.6-0.1-0.9-0.1l-30.1-11.6c-1.3-0.5-1.9-1.9-1.4-3.2c0.5-1.3,1.9-1.9,3.2-1.4     l30.2,11.6c1.3,0.5,1.9,1.9,1.4,3.2C377.7,113.8,376.7,114.4,375.8,114.4z"/>
      </g>
      <g>
        <path style="fill:currentColor;" d="M345.6,114.4c-1,0-2-0.6-2.3-1.6c-0.5-1.3,0.1-2.7,1.4-3.2L374.9,98c1.3-0.5,2.7,0.1,3.2,1.4     c0.5,1.3-0.1,2.7-1.4,3.2l-30.2,11.6C346.2,114.4,345.9,114.4,345.6,114.4z"/>
      </g>
      <g>
        <path style="fill:currentColor;" d="M361.8,86.4c-18.6,0-32.9-3.6-33.6-3.7l-2.7-0.7v-2.8c0-19.4,15.8-32.5,35.2-32.5     c19.4,0,35.2,13.2,35.2,32.5v2.7l-2.6,0.8C392.7,82.8,380.5,86.4,361.8,86.4z"/>
      </g>
      <g>
        <path style="fill:currentColor;" d="M393.7,79.9c0-18.2-14.8-30.4-33-30.4s-33,12.2-33,30.4c0,0,14.9,3.8,34.2,3.8     C381.1,83.7,393.7,79.9,393.7,79.9z"/>
      </g>
      <g>
        <path style="fill:currentColor;" d="M393.7,79.9c0-18.2-14.8-30.4-33-30.4s-33,12.2-33,30.4c0,0,14.9,3.8,34.2,3.8     C381.1,83.7,393.7,79.9,393.7,79.9z"/>
      </g>
      <g>
        <path fill="#2A333C" d="M327.6,81.7c0,0,26,4.9,27.5,15.8c1.4,10.8,0.8,59.3,0.8,59.3s-28.2,4.2-28.2,28.2c0,0-1.6-30.6-1.6-51     S327.6,81.7,327.6,81.7z"/>
        <path style="fill:currentColor;" d="M325.5,185.1c0-0.3-1.6-30.9-1.6-51.1s1.6-52.1,1.6-52.4l0.1-2.5l2.4,0.4c2.8,0.6,27.6,5.5,29.1,17.6     c1.4,10.9,0.8,57.7,0.8,59.6v1.8l-1.8,0.3c-1.1,0.1-26.4,4.3-26.4,26.1L325.5,185.1z M329.7,84.3c-0.4,7.9-1.5,32.9-1.5,49.7     c0,11.5,0.5,26.4,1,37.1c6.4-11,19.8-15,24.7-16.1c0.1-8.7,0.4-47.9-0.8-57.3C352.1,91,337.3,86.1,329.7,84.3z"/>
      </g>
      <g>
        <path fill="#2A333C" d="M393.7,81.7c0,0-26,4.9-27.5,15.8c-1.4,10.8-0.8,59.3-0.8,59.3s28.2,4.2,28.2,28.2c0,0,1.6-35.8,1.6-51     C395.2,118.8,393.7,81.7,393.7,81.7z"/>
        <path style="fill:currentColor;" d="M395.8,185.1l-4.3-0.1c0-21.9-25.4-26-26.4-26.1l-1.8-0.3v-1.8c0-2-0.6-48.8,0.8-59.6     c1.5-12,26.3-17,29.1-17.6l2.4-0.5l0.1,2.5c0,0.4,1.6,37.3,1.6,52.4C397.4,149.1,395.8,184.8,395.8,185.1z M367.6,155.1     c4.8,1.1,18.1,5,24.6,16c0.5-11.8,1.1-28,1.1-37c0-12.7-1.1-41.1-1.5-49.7c-7.7,1.8-22.4,6.7-23.3,13.4     C367.1,107.2,367.5,146.4,367.6,155.1z"/>
      </g>
      <g>
        <g>
          <g>
            <g>
              <path fill="#2A333C" d="M379.3,111.1c0.4,2-0.8,3.9-2.7,4.3c-2,0.4-3.9-0.8-4.3-2.7c-0.4-2,0.8-3.9,2.7-4.3        C376.9,107.9,378.8,109.2,379.3,111.1z"/>
            </g>
            <g>
              <path style="fill:currentColor;" d="M375.8,116.1c-2,0-3.6-1.3-4.1-3.3c-0.5-2.2,0.9-4.6,3.2-5c0.3-0.1,0.6-0.1,1-0.1c2,0,3.6,1.3,4.1,3.3        c0.3,1.1,0.1,2.2-0.6,3.2c-0.6,1-1.5,1.6-2.6,1.9C376.4,116.1,376,116.1,375.8,116.1z M375.8,108.9c-0.2,0-0.5,0-0.7,0.1        c-1.6,0.4-2.7,2-2.3,3.6c0.4,1.4,1.5,2.4,2.9,2.4c0.2,0,0.5,0,0.7-0.1c0.8-0.2,1.5-0.6,1.9-1.3c0.4-0.7,0.6-1.5,0.4-2.3        C378.4,109.9,377.2,108.9,375.8,108.9z"/>
            </g>
          </g>
        </g>
        <g>
          <g>
            <g>
              <path fill="#2A333C" d="M344.9,115.5c-2-0.4-3.3-2.2-2.9-4.2c0.4-2,2.2-3.3,4.2-2.9s3.3,2.2,2.9,4.2        C348.8,114.6,346.9,115.9,344.9,115.5z"/>
            </g>
            <g>
              <path style="fill:currentColor;" d="M345.6,116.2c-0.3,0-0.5,0-0.8-0.1c-1.1-0.2-2-0.8-2.7-1.8c-0.7-1-0.8-2-0.7-3.2        c0.4-2,2.1-3.4,4.1-3.4c0.3,0,0.5,0,0.8,0.1c1.1,0.2,2,0.8,2.7,1.8c0.7,0.9,0.8,2,0.7,3.2        C349.3,114.7,347.6,116.2,345.6,116.2z M345.6,108.9c-1.5,0-2.7,1.1-3,2.5c-0.1,0.8,0,1.6,0.5,2.3c0.5,0.7,1.2,1.1,2,1.3        c1.7,0.3,3.3-0.8,3.6-2.5c0.1-0.8,0-1.6-0.5-2.3c-0.5-0.7-1.2-1.1-2-1.3C346,108.9,345.8,108.9,345.6,108.9z"/>
            </g>
          </g>
        </g>
      </g>
      <g>
        <g>
          <g>
            <g>
              <path fill="#2A333C" d="M379.3,122.7c0.4,2-0.8,3.9-2.7,4.3c-2,0.4-3.9-0.8-4.3-2.7c-0.4-2,0.8-3.9,2.7-4.3        C376.9,119.5,378.8,120.7,379.3,122.7z"/>
            </g>
            <g>
              <path style="fill:currentColor;" d="M375.8,127.7c-2,0-3.6-1.3-4.1-3.3c-0.5-2.2,0.9-4.6,3.2-5c0.3-0.1,0.6-0.1,1-0.1c2,0,3.6,1.3,4.1,3.3        c0.3,1.1,0.1,2.2-0.6,3.2c-0.6,1-1.5,1.6-2.6,1.9C376.4,127.7,376,127.7,375.8,127.7z M375.8,120.5c-0.2,0-0.5,0-0.7,0.1        c-1.6,0.4-2.7,2-2.3,3.6c0.4,1.4,1.5,2.4,2.9,2.4c0.2,0,0.5,0,0.7-0.1c0.8-0.2,1.5-0.6,1.9-1.3c0.4-0.7,0.6-1.5,0.4-2.3        C378.4,121.4,377.2,120.5,375.8,120.5z"/>
            </g>
          </g>
        </g>
        <g>
          <g>
            <g>
              <path fill="#2A333C" d="M344.9,127.1c-2-0.4-3.3-2.2-2.9-4.2c0.4-2,2.2-3.3,4.2-2.9s3.3,2.2,2.9,4.2        C348.8,126.1,346.9,127.4,344.9,127.1z"/>
            </g>
            <g>
              <path style="fill:currentColor;" d="M345.6,127.7c-0.3,0-0.5,0-0.8-0.1c-1.1-0.2-2-0.8-2.7-1.8c-0.6-0.9-0.8-2-0.7-3.2        c0.4-2,2.1-3.4,4.1-3.4c0.3,0,0.5,0,0.8,0.1c1.1,0.2,2,0.8,2.7,1.8c0.7,1,0.8,2,0.7,3.2C349.3,126.3,347.6,127.7,345.6,127.7z         M345.6,120.5c-1.5,0-2.7,1.1-3,2.5c-0.1,0.8,0,1.6,0.5,2.3c0.5,0.7,1.2,1.1,2,1.3c1.7,0.3,3.3-0.8,3.6-2.5        c0.1-0.8,0-1.6-0.5-2.3c-0.5-0.7-1.2-1.1-2-1.3C346,120.5,345.8,120.5,345.6,120.5z"/>
            </g>
          </g>
        </g>
      </g>
      <g>
        <g>
          <g>
            <g>
              <path fill="#2A333C" d="M379.3,134.2c0.4,2-0.8,3.9-2.7,4.3c-2,0.4-3.9-0.8-4.3-2.7c-0.4-2,0.8-3.9,2.7-4.3        S378.8,132.2,379.3,134.2z"/>
            </g>
            <g>
              <path style="fill:currentColor;" d="M375.8,139.2c-2,0-3.6-1.3-4.1-3.3c-0.5-2.2,0.9-4.6,3.2-5c0.3-0.1,0.6-0.1,1-0.1c2,0,3.6,1.3,4.1,3.3        c0.3,1.1,0.1,2.2-0.6,3.2c-0.7,1-1.5,1.6-2.6,1.9C376.4,139.2,376,139.2,375.8,139.2z M375.8,132c-0.2,0-0.5,0-0.7,0.1        c-1.6,0.4-2.7,2-2.3,3.6c0.4,1.4,1.5,2.4,2.9,2.4c0.2,0,0.5,0,0.7-0.1c0.8-0.2,1.5-0.6,1.9-1.3c0.4-0.7,0.6-1.5,0.4-2.3        C378.4,132.9,377.2,132,375.8,132z"/>
            </g>
          </g>
        </g>
      </g>
      <g>
        <g>
          <g>
            <path fill="#2A333C" d="M344.9,150.2c-2-0.4-3.3-2.2-2.9-4.2c0.4-2,2.2-3.3,4.2-2.9c2,0.4,3.3,2.2,2.9,4.2       C348.8,149.2,346.9,150.5,344.9,150.2z"/>
          </g>
          <g>
            <path style="fill:currentColor;" d="M345.6,150.8c-0.3,0-0.5,0-0.8-0.1c-1.1-0.2-2-0.8-2.7-1.8c-0.6-0.9-0.8-2-0.7-3.2       c0.4-2,2.1-3.4,4.1-3.4c0.3,0,0.5,0,0.8,0.1c1.1,0.2,2,0.8,2.7,1.8c0.6,0.9,0.9,2,0.7,3.2C349.3,149.3,347.6,150.8,345.6,150.8       z M345.6,143.5c-1.5,0-2.7,1.1-3,2.5c-0.1,0.8,0,1.6,0.5,2.3c0.5,0.7,1.2,1.1,2,1.3c0.2,0,0.4,0.1,0.6,0.1c1.5,0,2.7-1.1,3-2.5       c0.1-0.8,0-1.6-0.5-2.3c-0.5-0.7-1.2-1.1-2-1.3C346,143.5,345.8,143.5,345.6,143.5z"/>
          </g>
        </g>
      </g>
      <g>
        <path style="fill:currentColor;" d="M360.7,120.2c-1,0-2-0.6-2.3-1.6c-0.5-1.3,0.1-2.7,1.4-3.2l15.1-5.7c1.3-0.5,2.7,0.1,3.2,1.4     c0.5,1.3-0.1,2.7-1.4,3.2l-15.1,5.7C361.3,120.1,361,120.2,360.7,120.2z"/>
      </g>
      <g>
        <path style="fill:currentColor;" d="M375.8,125.9c-0.3,0-0.6-0.1-0.9-0.1l-30.1-11.6c-1.3-0.5-1.9-1.9-1.4-3.2c0.5-1.3,1.9-1.9,3.2-1.4     l30.2,11.6c1.3,0.5,1.9,1.9,1.4,3.2C377.7,125.4,376.7,125.9,375.8,125.9z"/>
      </g>
      <g>
        <path style="fill:currentColor;" d="M375.8,137.5c-0.3,0-0.6-0.1-0.9-0.1l-30.1-11.6c-1.3-0.5-1.9-1.9-1.4-3.2c0.5-1.3,1.9-1.9,3.2-1.4     l30.2,11.6c1.3,0.5,1.9,1.9,1.4,3.2C377.7,136.9,376.7,137.5,375.8,137.5z"/>
      </g>
      <g>
        <g>
          <g>
            <path fill="#2A333C" d="M344.9,138.6c-2-0.4-3.3-2.2-2.9-4.2c0.4-2,2.2-3.3,4.2-2.9c2,0.4,3.3,2.2,2.9,4.2       C348.8,137.7,346.9,139,344.9,138.6z"/>
          </g>
          <g>
            <path style="fill:currentColor;" d="M345.6,139.2c-0.3,0-0.5,0-0.8-0.1c-1.1-0.2-2-0.8-2.7-1.8c-0.6-0.9-0.8-2-0.7-3.2       c0.4-2,2.1-3.4,4.1-3.4c0.3,0,0.5,0,0.8,0.1c1.1,0.2,2,0.8,2.7,1.8c0.6,0.9,0.8,2,0.7,3.2C349.3,137.8,347.6,139.2,345.6,139.2       z M345.6,132c-1.5,0-2.7,1.1-3,2.5c-0.1,0.8,0,1.6,0.5,2.3c0.5,0.7,1.2,1.1,2,1.3c1.7,0.3,3.3-0.8,3.6-2.5       c0.1-0.8,0-1.6-0.5-2.3c-0.5-0.7-1.2-1.1-2-1.3C346,132,345.8,132,345.6,132z"/>
          </g>
        </g>
      </g>
      <g>
        <g>
          <g>
            <path fill="#2A333C" d="M379.3,145.8c0.4,2-0.8,3.9-2.7,4.3c-2,0.4-3.9-0.8-4.3-2.7c-0.4-2,0.8-3.9,2.7-4.3       S378.8,143.8,379.3,145.8z"/>
          </g>
          <g>
            <path style="fill:currentColor;" d="M375.8,150.8c-2,0-3.6-1.3-4.1-3.3c-0.5-2.2,0.9-4.6,3.2-5c0.3-0.1,0.6-0.1,1-0.1c2,0,3.6,1.3,4.1,3.3       c0.3,1.1,0.1,2.2-0.6,3.2c-0.6,1-1.5,1.6-2.6,1.9C376.4,150.7,376,150.8,375.8,150.8z M375.8,143.5c-0.2,0-0.5,0-0.7,0.1       c-1.6,0.4-2.7,2-2.3,3.6c0.4,1.4,1.5,2.4,2.9,2.4c0.2,0,0.5,0,0.7-0.1c0.8-0.2,1.5-0.6,1.9-1.3c0.4-0.7,0.6-1.5,0.4-2.3       C378.4,144.5,377.2,143.5,375.8,143.5z"/>
          </g>
        </g>
      </g>
      <g>
        <path style="fill:currentColor;" d="M363.6,139.9l-17.3-6.7c-1.1-0.4-2.2,0.1-2.6,1.1c-0.4,1.1,0.1,2.2,1.1,2.6l18.4,7.1     c0.1,0,0.4,0.1,0.4,0.1C363.6,142.7,363.6,141.3,363.6,139.9z"/>
      </g>
    </g>
    <g>
      <path style="fill:currentColor;" d="M248.5,348.7c-0.3,0-0.6-0.1-0.8-0.3c-0.5-0.4-0.6-1.2-0.1-1.7l8.3-10c0.4-0.5,1.2-0.6,1.7-0.1    c0.5,0.4,0.6,1.2,0.1,1.7l-8.3,9.9C249.2,348.5,248.9,348.7,248.5,348.7z"/>
    </g>
    <g>
      <path style="fill:currentColor;" d="M256.9,339.9c-0.6,0-1.1-0.1-1.5-0.6c-1.1-0.8-1.3-2.4-0.4-3.4c0.1-0.1,14-17.7,40.2-44.1    c9-9.1,15.2-19.5,17.4-29.2c1.3-5.5,1.3-10.5-0.1-14.5c-1.8-5.3-5.6-8.3-10.9-8.3l0,0c-1.3,0-2.5-1.1-2.5-2.5s1.1-2.5,2.5-2.5l0,0    c7.4,0,13.1,4.3,15.6,11.7c1.6,4.9,1.7,10.8,0.2,17.2c-1.8,7.5-6.4,19.1-18.8,31.6c-26,26.2-39.7,43.5-39.8,43.7    C258.3,339.6,257.6,339.9,256.9,339.9z"/>
    </g>
    <g>
      <path style="fill:currentColor;" d="M300.6,265.3c-0.6,0-1.1,0-1.7-0.1c-6.5-0.4-13.3-6.1-13-15.8c0.2-7.3,5.2-14.6,15.8-14.6l0,0    c1.3,0,2.5,1.1,2.5,2.5s-1.1,2.5-2.5,2.5c-7.8,0-10.7,5.1-10.9,9.9c-0.1,5,2.7,10.4,8.4,10.7c5.6,0.4,10-1.3,13-5    c4.6-5.6,8.5-18.8,0.4-49.8c-4.1-16-2.9-29.7,3.9-40.6c9.9-16.2,27.8-20.5,28.6-20.6c1.3-0.3,2.7,0.6,2.9,1.9s-0.6,2.7-1.9,2.9    c-0.3,0.1-16.7,4.1-25.5,18.4c-6,9.8-7,22.1-3.2,36.8c6.9,26.6,6.4,44.8-1.4,54.2C312.3,263,307,265.3,300.6,265.3z"/>
    </g>
    <g>
      <path fill="#2A333C" d="M427.4,183.5c-0.6,0-1.5,0.1-2.1,0.1l0,0c0.6,0.1,1.3,0.4,2,0.6l2.2,0.8v0.7l-2.2,0.7    c-0.6,0.2-1.3,0.4-2,0.5l0,0c0.6,0,1.5,0.1,2.2,0.1l2,0.1v0.8l-5.1-0.4v-1.2l2-0.6c0.6-0.2,1.2-0.4,1.8-0.5l0,0    c-0.6-0.1-1.2-0.3-1.8-0.5l-2-0.7v-1.2l5.1-0.3v0.9L427.4,183.5L427.4,183.5z"/>
      <path fill="#2A333C" d="M428,180.5l1.5,0.4v1l-5.1-1.6v-1.2l5.1-1.7v1l-1.5,0.5V180.5z M427.3,179l-1.3,0.4    c-0.3,0.1-0.6,0.2-1,0.3l0,0c0.3,0.1,0.6,0.1,1,0.2l1.3,0.4V179z"/>
      <path fill="#2A333C" d="M424.4,175.6v-1h3.3c1.4,0,1.9,0.7,1.9,1.7c0,0.3-0.1,0.6-0.1,0.8l-0.8-0.1c0.1-0.1,0.1-0.4,0.1-0.6    c0-0.6-0.2-0.8-1.1-0.8L424.4,175.6L424.4,175.6z"/>
      <path fill="#2A333C" d="M426.8,169.1c1.7,0,2.7,1.1,2.7,2.5s-1.1,2.3-2.6,2.3c-1.5,0-2.7-1-2.7-2.4    C424.3,170,425.4,169.1,426.8,169.1z M427,172.9c1.1,0,1.8-0.5,1.8-1.4s-0.8-1.4-1.9-1.4c-1,0-1.9,0.5-1.9,1.4    S425.9,172.9,427,172.9z"/>
      <path fill="#2A333C" d="M424.5,168.3c-0.1-0.4-0.1-0.8-0.1-1.4c0-0.7,0.1-1.3,0.4-1.5c0.2-0.3,0.6-0.4,1.1-0.4    c0.6,0,1.1,0.4,1.3,0.9l0,0c0.1-0.4,0.5-0.6,1-0.7c0.6-0.1,1.2-0.3,1.4-0.4v1c-0.1,0.1-0.6,0.2-1.2,0.4c-0.6,0.1-0.8,0.4-0.9,0.9    v0.5h2.1v0.9L424.5,168.3L424.5,168.3z M426.7,167.4v-0.6c0-0.6-0.4-1.1-0.8-1.1c-0.6,0-0.8,0.4-0.8,1c0,0.3,0,0.5,0.1,0.6    L426.7,167.4L426.7,167.4L426.7,167.4z"/>
      <path fill="#2A333C" d="M425.2,161.8v1.5h-0.8v-3.9h0.8v1.5h4.3v0.9H425.2L425.2,161.8z"/>
      <path fill="#2A333C" d="M426.8,154.5c1.7,0,2.7,1.1,2.7,2.5s-1.1,2.3-2.6,2.3c-1.5,0-2.7-1-2.7-2.4    C424.3,155.4,425.4,154.5,426.8,154.5z M427,158.3c1.1,0,1.8-0.5,1.8-1.4s-0.8-1.4-1.9-1.4c-1,0-1.9,0.5-1.9,1.4    S425.9,158.3,427,158.3z"/>
      <path fill="#2A333C" d="M427.4,149.4c-0.6,0-1.5,0.1-2.1,0.1l0,0c0.6,0.1,1.3,0.4,2,0.6l2.2,0.8v0.7l-2.2,0.7    c-0.6,0.2-1.3,0.4-2,0.5l0,0c0.6,0,1.5,0.1,2.2,0.1l2,0.1v0.8l-5.1-0.4v-1.2l2-0.6c0.6-0.2,1.2-0.4,1.8-0.5l0,0    c-0.6-0.1-1.2-0.3-1.8-0.5l-2-0.7v-1.3l5.1-0.3v0.9L427.4,149.4z"/>
    </g>
    <g>
      <path style="fill:currentColor;" d="M406.6,271.5h-92.8v-199h0.1c0.1-12.1,4.9-22.9,13.6-30.7C336,34.2,347.6,30,360.2,30    c12.6,0,24.2,4.2,32.7,11.8c8.7,7.8,13.5,18.7,13.6,30.7h0.1L406.6,271.5L406.6,271.5z M316.1,269.2h88.2V73h-0.1    c0-11.5-4.6-21.9-12.9-29.4c-8.1-7.3-19.1-11.3-31.2-11.3c-12.1,0-23.1,4-31.2,11.3C320.6,51,316,61.5,316,73h0v196.3L316.1,269.2    L316.1,269.2z"/>
    </g>
    <g>
      <circle style="fill:currentColor;" cx="242.6" cy="49.5" r="20.6"/>
    </g>
    <g>
      <circle style="fill:currentColor;" cx="479.5" cy="167.8" r="15.4"/>
    </g>
    <g>
      <rect x="336.9" y="57.5" style="fill:currentColor;" width="1.6" height="24.2"/>
    </g>
    <g>
      <rect x="332.7" y="61.9" style="fill:currentColor;" width="1.6" height="18.6"/>
    </g>
    <g>
      <rect x="341.1" y="54" style="fill:currentColor;" width="1.6" height="28.4"/>
    </g>
    <path fill="none" d="M398.8,164.6c-5.5-14.5-23-15.6-23.2-15.6c-1.3-0.1-2.4-1.3-2.3-2.6s1.3-2.4,2.6-2.3c0.8,0.1,21,1.3,27.5,18.8   c1.2,3.2,1.8,8,2.3,14.6c3.4,4.8,7.4,9.7,12.3,14.4V172l-16.2-33.4l-16.4-1.6l-16.2,5.9v10l26.1,5.9l3.9,8l0.4,0.8   C399.4,166.4,399.1,165.4,398.8,164.6z"/>
    <path fill="none" d="M428.9,289.9c2.4,4.3,5.7,9,10.3,12.6c0.6,0.4,0.8,1.1,0.9,1.8l10.2,5c0.6,0.3,0.8,1.1,0.6,1.6   c-0.2,0.4-0.6,0.7-1.1,0.7c-0.2,0-0.4-0.1-0.6-0.1l-10.2-5c-0.4,0.3-0.8,0.4-1.3,0.4c-0.6,0-1.1-0.1-1.5-0.5   c-6.1-4.7-10.2-11.1-12.9-16.5h-13.5v31.8h47.4v-31.8H428.9L428.9,289.9z"/>
    <path style="fill:currentColor;" d="M375.9,144.1c-1.3-0.1-2.5,1-2.6,2.3s1,2.5,2.3,2.6c0.2,0,17.7,1.1,23.2,15.6c0.3,0.8,0.6,1.8,0.8,3.1   l0.4,0.7l4.1,6.7c0.6,0.8,1.1,1.6,1.6,2.4c-0.6-6.6-1.2-11.4-2.3-14.6C396.9,145.4,376.7,144.2,375.9,144.1z"/>
    <path style="fill:currentColor;" d="M439.7,305.9c-0.1,0.2-0.4,0.4-0.6,0.5l10.2,5c0.2,0.1,0.4,0.1,0.6,0.1c0.4,0,0.8-0.3,1.1-0.7   c0.3-0.6,0-1.3-0.6-1.6l-10.2-5C440.2,304.8,440.1,305.4,439.7,305.9z"/>
    <path style="fill:currentColor;" d="M436.2,306.4c0.5,0.4,1,0.5,1.5,0.5c0.5,0,1-0.1,1.3-0.4l-1.4-0.7c-0.6-0.3-0.8-1.1-0.6-1.6   c0.3-0.6,1-0.8,1.6-0.6l1.4,0.7c-0.1-0.6-0.4-1.3-0.9-1.8c-4.6-3.6-7.9-8.3-10.3-12.6h-5.6C426,295.2,430.1,301.7,436.2,306.4z"/>
    <path style="fill:currentColor;" d="M437.1,304.1c-0.3,0.6,0,1.3,0.6,1.6l1.4,0.7c0.2-0.1,0.4-0.3,0.6-0.5c0.4-0.5,0.6-1.1,0.5-1.7l-1.4-0.7   C438.1,303.3,437.4,303.5,437.1,304.1z"/>
  </g>
  </g>
  </svg>