<svg xmlns="http://www.w3.org/2000/svg" xmlns:xlink="http://www.w3.org/1999/xlink" viewBox="0 0 3538.1 2847.6" enable-background="new 0 0 3538.1 2847.6"><g><path fill="none" stroke="#E5625B" stroke-width="8" stroke-miterlimit="10" d="M2671.8 2077.2h589.3c44.2 0 80-35.8 80-80v-407.8"/><path fill="#E5615B" d="M2903.7 853.5h112.9v49.3h-112.9zM2921.5 941.4c0 4.9-4 8.9-8.9 8.9s-8.9-4-8.9-8.9v-38.6c0-4.9 4-8.9 8.9-8.9s8.9 4 8.9 8.9v38.6zM2989.9 945.2c0 3.7-3 6.7-6.7 6.7s-6.7-3-6.7-6.7v-59.1c0-3.7 3-6.7 6.7-6.7s6.7 3 6.7 6.7v59.1zM3016.6 993.4c0 3.7-3 6.7-6.7 6.7s-6.7-3-6.7-6.7V886.1c0-3.7 3-6.7 6.7-6.7s6.7 3 6.7 6.7v107.3zM2963.2 952.8c0 6.6-5.3 11.9-11.9 11.9-6.6 0-11.9-5.3-11.9-11.9V901c0-6.6 5.3-11.9 11.9-11.9 6.6 0 11.9 5.3 11.9 11.9v51.8z"/><path fill="#2A333C" d="M2939.3 941.4c0 4.9-4 8.9-8.9 8.9s-8.9-4-8.9-8.9v-38.6c0-4.9 4-8.9 8.9-8.9s8.9 4 8.9 8.9v38.6zM3003.3 929.6c0 3.7-3 6.7-6.7 6.7s-6.7-3-6.7-6.7v-43.5c0-3.7 3-6.7 6.7-6.7s6.7 3 6.7 6.7v43.5zM2976.5 929.6c0 3.7-3 6.7-6.7 6.7s-6.7-3-6.7-6.7v-29c0-3.7 3-6.7 6.7-6.7s6.7 3 6.7 6.7v29z"/><g fill="none" stroke="#E5625B" stroke-width="2.334" stroke-linecap="round" stroke-linejoin="round" stroke-miterlimit="10"><path d="M3070 1153.3c27 15.6 54.1 46.1 54.1 106.1 0 0 43.5-9.4 59.9 34.1M2771 1131.3s-54.7-4.7-53.5 64.6c0 0-58.8-23.5-84.6 43.5 0 0-125.7-9.4-110.5 126.9"/></g><g fill="none" stroke="#E5625B" stroke-width="2.334" stroke-linecap="round" stroke-linejoin="round" stroke-miterlimit="10"><path d="M3048.2 870.4s82.6 1.8 82.6 93.4c0 0 33.2-7.2 45.8 26 0 0 72.8-17.1 72.8 55.7M2860.9 865.9s-41.8-3.6-40.9 49.4c0 0-44.9-18-64.7 33.2 0 0-96.1-7.2-84.4 97"/></g><g fill="#C05B5B"><path d="M3061.4 824.9c1.3 5.2-2 9.5-7.4 9.5h-32.9c-5.4 0-9.1-4.4-8.4-9.7l4-27.2c.8-5.3 5.8-9.7 11.2-9.7h14.3c5.4 0 10.9 4.3 12.2 9.5l7 27.6zM3052.4 790.5V572.3c0-9.4-8.3-43.3-17.1-43.3-8.6 0-17.1 33.8-17.1 43.3v218.2h34.2z"/></g><g fill="#C05B5B"><path d="M2863.4 824.9c-1.2 5.2 2.2 9.5 7.5 9.5h32.1c5.4 0 9.1-4.4 8.4-9.7l-4-27.2c-.8-5.3-5.8-9.7-11.2-9.7H2882c-5.4 0-10.8 4.3-12 9.5l-6.6 27.6zM2871.8 790.5V572.3c0-9.4 8.3-43.3 17.1-43.3 8.6 0 17.1 33.8 17.1 43.3v218.2h-34.2z"/></g><path fill="#2A333C" stroke="#E5625B" stroke-width="6.829" stroke-miterlimit="10" d="M2996.7 811.6h-69.3l-18 41c-1.9 3.3-.4 6 3.5 6h98.4c3.8 0 5.4-2.7 3.5-6l-18.1-41z"/><path fill="#2A333C" d="M2917.7 818.4c-2.6 0-4.7-2.1-4.7-4.7v-.2l-2.8-29.2h107l-2.8 29.2v.2c0 2.6-2.1 4.7-4.7 4.7h-92z"/><path fill="#E5625B" d="M3013.1 788l-2.4 25.1v.7c0 .6-.5 1.1-1.1 1.1h-91.9c-.6 0-1.1-.5-1.1-1.1v-.8l-2.4-25.1h98.9m8-7.2h-115l3.2 33c0 4.6 3.7 8.3 8.3 8.3h91.9c4.6 0 8.3-3.7 8.3-8.3l3.3-33z"/><path fill="#2A333C" d="M2821 767v-25c0-16.2 1.2-25.6 8.1-35.1 6.9-9.6 19.6-19.6 46.9-37.1 46.7-29.9 56.6-75.9 58.5-87.7h58.8c1.8 11.8 11.8 57.8 58.5 87.7 27.3 17.5 40 27.6 46.9 37.1 6.9 9.5 8.1 18.9 8.1 35.1v25H2821z"/><path fill="#E5625B" d="M2990.8 585c1.1 5.9 3.6 16 8.8 27.9 7.5 17.1 22.4 41.2 50.5 59.3 27 17.3 39.5 27.1 46.1 36.4 6.4 8.9 7.5 17.5 7.5 33.4v22H2824v-22c0-15.9 1.1-24.4 7.5-33.4 6.7-9.2 19.2-19.1 46.1-36.4 28.2-18.1 43-42.2 50.5-59.3 5.2-11.9 7.7-22 8.8-27.9h53.9m5.2-6.1h-64.1s-5.3 54.8-57.4 88.2c-52.1 33.4-56.4 42.7-56.4 74.8V770H3110v-28.1c0-32.1-4.3-41.4-56.4-74.8-52.3-33.4-57.6-88.2-57.6-88.2z"/><path fill="#2A333C" stroke="#E5625B" stroke-width="6.056" stroke-miterlimit="10" d="M2933.6 573.9v142.2s-25.5 3.6-25.5 26.4v49.2h111.1v-49.2c0-22.8-25.5-26.4-25.5-26.4V573.9"/><path fill="none" stroke="#E5625B" stroke-width="17.299" stroke-linecap="round" stroke-linejoin="round" stroke-miterlimit="10" d="M2963.9 688.3v72.8"/><path fill="none" stroke="#E5625B" stroke-width="2.334" stroke-linecap="round" stroke-linejoin="round" stroke-miterlimit="10" d="M2905.4 875.7V1188M3021.1 1048.4v363.3M2969 1292.2v111M2969 1048.4v30.8M2950.5 1073.1v76.5"/><path fill="none" stroke="#AA5151" stroke-width="3.166" stroke-miterlimit="10" d="M2922.1 638.2V513.4s29 6.1 30.7 19.3"/><path fill="#2A333C" stroke="#AD5252" stroke-width="6.628" stroke-miterlimit="10" d="M3003.1 646c0 11.5-2.3 55.1-40 55.1s-41-37.4-41-55.1V513.3s18.3 4.6 42 4.6 39.1-4.6 39.1-4.6-.1 112.7-.1 132.7z"/><path fill="none" stroke="#D95027" stroke-width="7.044" stroke-linecap="round" stroke-linejoin="round" stroke-miterlimit="10" d="M2981.1 581l-37 14.1M2981.1 566.8l-18.5 7.1M2962.6 573.9l-18.5 7.1"/><path fill="none" stroke="#EF6E2A" stroke-width="7.044" stroke-linecap="round" stroke-linejoin="round" stroke-miterlimit="10" d="M2962.6 559.7l-18.5 7.1"/><path fill="none" stroke="#D95027" stroke-width="7.044" stroke-linecap="round" stroke-linejoin="round" stroke-miterlimit="10" d="M2944.1 538.5l37 14.2"/><path fill="none" stroke="#EF6E2A" stroke-width="7.044" stroke-linecap="round" stroke-linejoin="round" stroke-miterlimit="10" d="M2981.1 538.5l-37 14.2"/><path fill="#C05B5B" d="M2964 521.4c-22.9 0-40.4-4.4-41.2-4.5l-3.3-.8v-3.4c0-23.8 19.3-39.9 43.1-39.9s43.1 16.1 43.1 39.9v3.3l-3.1.9c-.7.1-15.7 4.5-38.6 4.5zM3003.1 513.4c0-22.4-18.1-37.3-40.5-37.3s-40.5 14.9-40.5 37.3c0 0 18.3 4.6 42 4.6s39-4.6 39-4.6zM3003.1 513.4c0-22.4-18.1-37.3-40.5-37.3s-40.5 14.9-40.5 37.3c0 0 18.3 4.6 42 4.6s39-4.6 39-4.6z"/><path fill="#2A333C" stroke="#E5625B" stroke-width="6.056" stroke-miterlimit="10" d="M2922.1 515.6s31.9 6.1 33.7 19.3c1.7 13.3 1 72.8 1 72.8s-34.6 5.2-34.6 34.6c0 0-2-37.5-2-62.5s1.9-64.2 1.9-64.2zM3003.1 515.6s-31.9 6.1-33.7 19.3c-1.7 13.3-1 72.8-1 72.8s34.6 5.2 34.6 34.6c0 0 2-43.9 2-62.5.1-18.6-1.9-64.2-1.9-64.2z"/><path fill="#2A333C" d="M2985.4 551.7c.6 2.4-.9 4.8-3.3 5.3s-4.8-.9-5.3-3.3 1-4.8 3.3-5.3c2.4-.6 4.8.9 5.3 3.3z"/><path fill="none" stroke="#AA5151" stroke-width="1.644" stroke-miterlimit="10" d="M2985.4 551.7c.6 2.4-.9 4.8-3.3 5.3s-4.8-.9-5.3-3.3 1-4.8 3.3-5.3c2.4-.6 4.8.9 5.3 3.3z"/><path fill="#2A333C" d="M2943.3 557c-2.4-.4-4-2.8-3.6-5.2.4-2.4 2.8-4 5.2-3.6 2.4.4 4 2.8 3.6 5.2-.5 2.5-2.8 4.1-5.2 3.6z"/><path fill="none" stroke="#AA5151" stroke-width="1.644" stroke-miterlimit="10" d="M2943.3 557c-2.4-.4-4-2.8-3.6-5.2.4-2.4 2.8-4 5.2-3.6 2.4.4 4 2.8 3.6 5.2-.5 2.5-2.8 4.1-5.2 3.6z"/><path fill="#2A333C" d="M2985.4 565.8c.6 2.4-.9 4.8-3.3 5.3s-4.8-.9-5.3-3.3 1-4.8 3.3-5.3c2.4-.6 4.8.9 5.3 3.3z"/><path fill="none" stroke="#AA5151" stroke-width="1.644" stroke-miterlimit="10" d="M2985.4 565.8c.6 2.4-.9 4.8-3.3 5.3s-4.8-.9-5.3-3.3 1-4.8 3.3-5.3c2.4-.6 4.8.9 5.3 3.3z"/><path fill="#2A333C" d="M2943.3 571.2c-2.4-.4-4-2.8-3.6-5.2.4-2.4 2.8-4 5.2-3.6 2.4.4 4 2.8 3.6 5.2-.5 2.5-2.8 4.1-5.2 3.6z"/><path fill="none" stroke="#AA5151" stroke-width="1.644" stroke-miterlimit="10" d="M2943.3 571.2c-2.4-.4-4-2.8-3.6-5.2.4-2.4 2.8-4 5.2-3.6 2.4.4 4 2.8 3.6 5.2-.5 2.5-2.8 4.1-5.2 3.6z"/><path fill="#2A333C" d="M2985.4 580c.6 2.4-.9 4.8-3.3 5.3-2.4.6-4.8-.9-5.3-3.3s1-4.8 3.3-5.3c2.4-.6 4.8.9 5.3 3.3z"/><path fill="none" stroke="#AA5151" stroke-width="1.644" stroke-miterlimit="10" d="M2985.4 580c.6 2.4-.9 4.8-3.3 5.3-2.4.6-4.8-.9-5.3-3.3s1-4.8 3.3-5.3c2.4-.6 4.8.9 5.3 3.3z"/><path fill="#2A333C" d="M2943.3 599.5c-2.4-.4-4-2.8-3.6-5.2.4-2.4 2.8-4 5.2-3.6 2.4.4 4 2.8 3.6 5.2-.5 2.5-2.8 4.1-5.2 3.6z"/><path fill="none" stroke="#AA5151" stroke-width="1.644" stroke-miterlimit="10" d="M2943.3 599.5c-2.4-.4-4-2.8-3.6-5.2.4-2.4 2.8-4 5.2-3.6 2.4.4 4 2.8 3.6 5.2-.5 2.5-2.8 4.1-5.2 3.6z"/><path fill="none" stroke="#F17C32" stroke-width="7.044" stroke-linecap="round" stroke-linejoin="round" stroke-miterlimit="10" d="M2981.1 552.7l-18.5 7"/><path fill="none" stroke="#F27F41" stroke-width="7.044" stroke-linecap="round" stroke-linejoin="round" stroke-miterlimit="10" d="M2944.1 552.7l37 14.1M2944.1 566.8l37 14.2"/><path fill="#2A333C" d="M2943.3 585.4c-2.4-.4-4-2.8-3.6-5.2.4-2.4 2.8-4 5.2-3.6 2.4.4 4 2.8 3.6 5.2-.5 2.4-2.8 4-5.2 3.6z"/><path fill="none" stroke="#AA5151" stroke-width="1.644" stroke-miterlimit="10" d="M2943.3 585.4c-2.4-.4-4-2.8-3.6-5.2.4-2.4 2.8-4 5.2-3.6 2.4.4 4 2.8 3.6 5.2-.5 2.4-2.8 4-5.2 3.6z"/><path fill="#2A333C" d="M2985.4 594.1c.6 2.4-.9 4.8-3.3 5.3-2.4.6-4.8-.9-5.3-3.3s1-4.8 3.3-5.3c2.4-.6 4.8.9 5.3 3.3z"/><path fill="none" stroke="#AA5151" stroke-width="1.644" stroke-miterlimit="10" d="M2985.4 594.1c.6 2.4-.9 4.8-3.3 5.3-2.4.6-4.8-.9-5.3-3.3s1-4.8 3.3-5.3c2.4-.6 4.8.9 5.3 3.3z"/><path fill="#F27F41" d="M2966.2 587l-21.3-8.3c-1.3-.5-2.7.1-3.2 1.4-.5 1.3.1 2.7 1.4 3.2l22.5 8.8c.1 0 .4.1.5.1.1-1.8.1-3.4.1-5.2z"/><defs><path id="a" d="M3009.8 620l1 1.9 5 8.3c4.6 6.9 10.2 13.9 17 20.6v-24.4l-19.8-40.9-20.1-2-19.8 7.2V603l32 7.3 4.7 9.7z"/></defs><clipPath id="b"><use xlink:href="#a" overflow="visible"/></clipPath><path fill="none" stroke="#F27F41" stroke-width="7.044" stroke-linecap="round" stroke-linejoin="round" stroke-miterlimit="10" d="M2981.1 595.1s23.7 1.2 31.1 21.1c3.4 9.2 2.4 35.1 9.8 68.5" clip-path="url(#b)"/><path fill="none" stroke="#E5625B" stroke-width="3.432" stroke-linecap="round" stroke-linejoin="round" stroke-miterlimit="10" d="M3057.7 789l14.3 7.1"/><defs><path id="c" d="M3023 771h58.1v39H3023z"/></defs><clipPath id="d"><use xlink:href="#c" overflow="visible"/></clipPath><path clip-path="url(#d)" fill="none" stroke="#F27F41" stroke-width="7.044" stroke-linecap="round" stroke-linejoin="round" stroke-miterlimit="10" d="M3037.6 757.8s5.2 19.8 19.6 30.9"/><path fill="none" stroke="#E5625B" stroke-width="3.432" stroke-linecap="round" stroke-linejoin="round" stroke-miterlimit="10" d="M2835.2 829.3l-10.2 12.3"/><path fill="none" stroke="#F27F41" stroke-width="7.044" stroke-linecap="round" stroke-linejoin="round" stroke-miterlimit="10" d="M2890.2 706.4c8 0 13.7 4.7 16.2 12.3 1.7 5.3 1.9 12 .2 19.4-2.6 11.4-9.7 24.6-22.2 37.3-32.4 32.6-49.1 53.9-49.1 53.9"/><g opacity=".34"><linearGradient id="e" gradientUnits="userSpaceOnUse" x1="2903.019" y1="725.63" x2="2911.037" y2="732.181"><stop offset="0" stop-color="#fff"/><stop offset=".002" stop-color="#FAFAFA"/><stop offset=".025" stop-color="#C0C0C0"/><stop offset=".05" stop-color="#8D8D8D"/><stop offset=".074" stop-color="#626262"/><stop offset=".098" stop-color="#3E3E3E"/><stop offset=".123" stop-color="#232323"/><stop offset=".147" stop-color="#0F0F0F"/><stop offset=".172" stop-color="#040404"/><stop offset=".198"/><stop offset=".366"/><stop offset=".392"/><stop offset=".527" stop-color="#030303"/><stop offset=".61" stop-color="#0B0B0B"/><stop offset=".679" stop-color="#191919"/><stop offset=".74" stop-color="#2E2E2E"/><stop offset=".795" stop-color="#484848"/><stop offset=".847" stop-color="#696969"/><stop offset=".896" stop-color="#909090"/><stop offset=".943" stop-color="#BDBDBD"/><stop offset=".987" stop-color="#eee"/><stop offset="1" stop-color="#fff"/></linearGradient><path fill="url(#e)" d="M2906.5 740.6c-.2 0-.4 0-.6-.1-1.3-.3-2.1-1.6-1.8-2.9 1.6-6.8 1.5-13.1-.1-18.1-.4-1.3.3-2.7 1.6-3.1 1.3-.4 2.7.3 3.1 1.6 1.9 5.9 2 13.1.2 20.7-.2 1.1-1.3 1.9-2.4 1.9z"/></g><path fill="none" stroke="#F27F41" stroke-width="7.044" stroke-linecap="round" stroke-linejoin="round" stroke-miterlimit="10" d="M2944.1 595.1s-52.9 12-37.5 71.5c15.4 59.4-2.7 72.2-19.6 71.1-17-1.1-19.1-31.3 3.2-31.3"/><text transform="matrix(0 -1 1 0 3046.998 646.278)" fill="#2A333C" font-family="'MyriadPro-Semibold'" font-size="9.262">MAJOR TOM</text><path fill="none" stroke="#AD5252" stroke-width="3.296" stroke-miterlimit="10" d="M2906.7 504.8c0-30.6 24.9-51.3 55.4-51.3 30.6 0 55.4 20.7 55.4 51.3v-.5V747h-111V504.3"/><circle fill="#C05B5B" cx="2530.3" cy="1028.4" r="25.3"/><path fill="#C05B5B" d="M3127.2 621.1c0 10.4-8.5 18.9-18.9 18.9-10.4 0-18.9-8.5-18.9-18.9 0-10.4 8.5-18.9 18.9-18.9 10.4 0 18.9 8.5 18.9 18.9z"/><path fill="none" stroke="#AD5252" stroke-width="2.334" stroke-miterlimit="10" d="M2934.5 485.9v29.7M2929.3 491.2V514M2939.6 481.6v34.9"/><path fill="#2A333C" stroke="#E5615B" stroke-width="6.907" stroke-miterlimit="10" d="M985.2 1117.1H834.7l-.4 2.6c-.1.5-7.7 46.9-2.3 107.9.1 1.1 3.3 27.4 10.5 45.3.1.4 9.9 39.9 11.2 60.1 0 .4 1.4 43.9-3.5 61.3l-.1.8c0 2.4 1.3 23.7 59.7 25.9h.2c58.4-2.2 59.8-23.5 59.8-25.9l-.1-.8c-4.9-17.5-3.5-60.9-3.5-61.2 1.3-20.3 11.1-59.8 11.1-59.8 7.3-18.3 10.5-44.6 10.6-45.8 5.4-60.9-2.2-107.4-2.3-107.8l-.4-2.6z"/><path fill="#C05B5B" d="M971.1 1171.3H848.7c-.4 15.6-.1 34.2 1.7 54.5.3 2.4 3.3 25.6 9.4 40.8l.4 1 .2 1c.4 1.7 10.3 41.5 11.8 63.5v.4c.2 4.3 1.2 39.7-2.8 61l.1.1c3 2.3 13 7.8 40.3 8.9 27.2-1.1 37.2-6.6 40.5-9.1-4-21.4-3-56.7-2.8-61v-.4c1.4-22 11.4-61.8 11.8-63.5l.2-1 .4-1c6.1-15.2 9.1-38.4 9.4-40.8 1.9-20.2 2.2-38.8 1.8-54.4zm-30.9 126.2v-2h.3c-.1.7-.2 1.3-.3 2z"/><path fill="#2A333C" stroke="#E5615B" stroke-width="2.59" stroke-linecap="round" stroke-miterlimit="10" d="M926.8 1171.3l31.8-133.5h77.5v13.4h-66.7l-28.3 120.1zM954.8 1055l12.9 3.9 1.7-7.7h8.8v-13.4h-19.6z"/><g opacity=".2"><ellipse fill="#2A333C" cx="931.1" cy="1241.2" rx="12.1" ry="12.1"/><path fill="#2A333C" d="M905.7 1186.4c-8.8 0-15.9 7.1-15.9 15.9s7.1 15.9 15.9 15.9 15.9-7.1 15.9-15.9c.1-8.7-7.1-15.9-15.9-15.9zM957.1 1205.3c0-6.4-5.2-11.7-11.7-11.7-6.5 0-11.7 5.2-11.7 11.7s5.2 11.7 11.7 11.7c6.5 0 11.7-5.2 11.7-11.7z"/></g><path fill="#2A333C" d="M937.2 1387.6s-3.4-43-1.6-79.5c0 0-12.3-5.7-10.4 81.1l12-1.6z" opacity=".2"/><path fill="none" stroke="#E5615B" stroke-width="6.907" stroke-linecap="round" stroke-miterlimit="10" d="M1059.9 1250.5c10.4 0 18.8 8.4 18.8 18.8v104.5c0 10.4-8.4 18.8-18.8 18.8s-18.8-8.4-18.8-18.8v-104.5c0-10.4 8.4-18.8 18.8-18.8zM1078.7 1374.6h188.9M2105.1 1268.6h81.5s81.5-45 81.5-100v-102.2M1470 1087.9v90.3c0 49.7 45 90.3 100 90.3h119.1M1078.7 1268.6h300.9"/><path fill="#2A333C" d="M870.9 1283.3h124.2v81.9H870.9zM1033 1283.2c-11.7-27.7-39.2-47.2-71.2-47.2h-82.5v53.7"/><path fill="none" stroke="#E5615B" stroke-width="6.907" stroke-linecap="round" stroke-miterlimit="10" d="M1033 1283.2c-11.7-27.7-39.2-47.2-71.2-47.2h-82.5v53.7"/><path fill="#2A333C" d="M1026.2 1355.8c-9.4 32-39.1 55.4-74.2 55.4h-66.2c-42.7 0-77.3-34.6-77.3-77.3v-4.4"/><path fill="none" stroke="#E5615B" stroke-width="6.907" stroke-linecap="round" stroke-linejoin="bevel" stroke-miterlimit="10" d="M1026.2 1355.8c-9.4 32-39.1 55.4-74.2 55.4h-66.2c-42.7 0-77.3-34.6-77.3-77.3v-4.4"/><path fill="#2A333C" d="M910.7 1288.9v30.5c0 8.7-7 15.7-15.7 15.7s-15.7-7-15.7-15.7v-53.8"/><path fill="none" stroke="#E5615B" stroke-width="6.907" stroke-linecap="round" stroke-miterlimit="10" d="M910.7 1288.9v30.5c0 8.7-7 15.7-15.7 15.7s-15.7-7-15.7-15.7v-53.8"/><path fill="#2A333C" d="M928.8 1252.6c6.8 2.9 11.6 9.6 11.6 17.5 0 10.5-8.5 19-19 19-6.2 0-11.7-2.9-15.1-7.5"/><path fill="none" stroke="#E5615B" stroke-width="6.907" stroke-linecap="round" stroke-miterlimit="10" d="M928.8 1252.6c6.8 2.9 11.6 9.6 11.6 17.5 0 10.5-8.5 19-19 19-6.2 0-11.7-2.9-15.1-7.5"/><path fill="#2A333C" d="M991.5 1318.9h-26.7c-18.2 0-32.9-14.7-32.9-32.9"/><path fill="none" stroke="#E5615B" stroke-width="6.907" stroke-linecap="round" stroke-miterlimit="10" d="M991.5 1318.9h-26.7c-18.2 0-32.9-14.7-32.9-32.9"/><path fill="#2A333C" d="M871.6 1289.6h-48.9c-11.4 0-20.7-9.3-20.7-20.7 0-11.4 9.3-20.7 20.7-20.7h48.9"/><path fill="none" stroke="#E5615B" stroke-width="6.907" stroke-linecap="round" stroke-miterlimit="10" d="M871.6 1289.6h-48.9c-11.4 0-20.7-9.3-20.7-20.7 0-11.4 9.3-20.7 20.7-20.7h48.9"/><path fill="#2A333C" d="M871.6 1331h-48.9c-11.4 0-20.7-9.3-20.7-20.7 0-11.4 9.3-20.7 20.7-20.7h48.9"/><path fill="none" stroke="#E5615B" stroke-width="6.907" stroke-linecap="round" stroke-miterlimit="10" d="M871.6 1331h-48.9c-11.4 0-20.7-9.3-20.7-20.7 0-11.4 9.3-20.7 20.7-20.7h48.9"/><path fill="#2A333C" d="M817.6 1370.4h65.2c11.4 0 20.7-9.3 20.7-20.7"/><path fill="none" stroke="#E5615B" stroke-width="6.907" stroke-linecap="round" stroke-miterlimit="10" d="M817.6 1370.4h65.2c11.4 0 20.7-9.3 20.7-20.7"/><path fill="#2A333C" d="M859.5 1406.9h22.9c11.4 0 20.7-9.3 20.7-20.7 0-7.8-4.3-14.6-10.7-18.2"/><path fill="none" stroke="#E5615B" stroke-width="6.907" stroke-linecap="round" stroke-miterlimit="10" d="M859.5 1406.9h22.9c11.4 0 20.7-9.3 20.7-20.7 0-7.8-4.3-14.6-10.7-18.2"/><path fill="#2A333C" stroke="#E5615B" stroke-width="6.907" stroke-linecap="round" stroke-miterlimit="10" d="M903.1 1347.8v-16.1h-44"/><path fill="#2A333C" stroke="#E5615B" stroke-width="6.907" stroke-linecap="round" stroke-linejoin="bevel" stroke-miterlimit="10" d="M1026.2 1354.2"/><g fill="none" stroke="#E5615B" stroke-width="6.907" stroke-miterlimit="10"><path d="M986.1 1239.9c1.2-6.9 1.8-11.8 1.9-12.3 5.4-60.9-2.2-107.4-2.3-107.8l-.5-2.6H834.7l-.4 2.6c-.1.5-7.7 46.9-2.3 107.9M909.8 1421.1h.2c58.4-2.2 59.8-23.5 59.8-25.9l-.1-.8c-4.9-17.5-3.5-60.9-3.5-61.2.3-4.2.9-9.1 1.7-14.3"/></g><path fill="#E5615B" d="M891.6 1367l.3.7 1.2-1.4c-.5.2-1 .5-1.5.7z"/><path fill="#C05B5B" d="M947.6 1332.5v-.4c.8-12 4.1-29.4 7-42.9h-43.2v28.5c0 5.5-2.9 10.4-7.2 13.2v21.6l-.6.6c-1.5 5.8-5.4 10.6-10.5 13.3 6.4 3.5 10.7 10.3 10.7 18.1 0 7-3.5 13.2-8.8 16.9.4.1.9.1 1.3.2 4 .5 8.5.8 13.6 1 27.2-1.1 37.2-6.6 40.5-9.1-4-21.4-2.9-56.7-2.8-61zm-7.4-35v-2h.3c-.1.7-.2 1.3-.3 2z"/><path fill="#2A333C" d="M991.5 1318.9h-26.7c-18.2 0-32.9-14.7-32.9-32.9"/><path fill="none" stroke="#E5615B" stroke-width="6.907" stroke-linecap="round" stroke-miterlimit="10" d="M991.5 1318.9h-26.7c-18.2 0-32.9-14.7-32.9-32.9"/><path fill="#2A333C" d="M937.4 1285.7h24.3v13.4h-24.3z"/><g fill="none" stroke-width="30" stroke-linecap="round" stroke-miterlimit="10"><path stroke="#934444" d="M1465.3 1001.4c0-193.5 156.8-350.3 350.3-350.3s350.3 156.8 350.3 350.3v381.4"/><path stroke="#AA5050" d="M1517.8 1001.4c0-164.4 133.3-297.7 297.7-297.7 164.4 0 297.7 133.3 297.7 297.7"/><path stroke="#C05B5B" d="M1571.4 1001.4c0-134.8 109.3-244.1 244.1-244.1s244.1 109.3 244.1 244.1v280.2"/><path stroke="#E5615B" d="M1625.1 1001.4c0-105.2 85.3-190.4 190.4-190.4 105.2 0 190.4 85.3 190.4 190.4v87.4"/><path stroke="#F3816F" d="M1678.4 1001.4c0-75.7 61.4-137.1 137.1-137.1 75.7 0 137.1 61.4 137.1 137.1v225.2"/></g><path fill="#C05B5B" d="M2112.9 1407.3c55 0 100-25.1 100-55.8s45-55.8 100-55.8h416c55 0 100 21.7 100 48.2s45 48.2 100 48.2h176.8c55 0 100 45 100 100v4.1c0 55-45 100-100 100h-11.3c-55 0-100 43.5-100 96.6s45 96.6 100 96.6h293.9c55 0 100 34.5 100 76.8 0 42.2-45 76.8-100 76.8h-938.9c-55 0-100-34.5-100-76.8 0-42.2-45-76.8-100-76.8h-450.9c-55 0-100-45-100-100v-182.1c0-55 45-100 100-100h314.4z"/><path fill="#934444" d="M2405.2 1250.8l111-111c31.4-31.4 82.7-31.4 114 0l110.9 110.9 57 57h-449.9l57-56.9z"/><path fill="#AA5050" d="M2405.2 1250.8l111-111c16.1-16.1 37.6-24 58.9-23.5v191.4H2348.3l56.9-56.9z"/><path fill="#934444" d="M2176.7 1269.6l71.2-71.2c20.1-20.1 53-20.1 73.1 0l71.2 71.1 36.6 36.6h-288.7l36.6-36.5z"/><path fill="#AA5050" d="M2176.7 1269.6l71.2-71.2c10.4-10.4 24.1-15.4 37.8-15.1v122.8h-145.5l36.5-36.5z"/><path fill="none" stroke="#2A333C" stroke-width="5.18" stroke-linecap="round" stroke-linejoin="bevel" stroke-miterlimit="10" d="M2856.2 1564.9l-13-13c-3.4-3.4-8.8-3.3-12.2 0l-6.6 6.6c-3.3 3.4-8.8 3.4-12.2.1l-6.8-6.8c-3.4-3.3-8.9-3.3-12.2.1l-6.6 6.6c-3.3 3.4-8.8 3.4-12.2.1l-6.8-6.8c-3.4-3.3-8.9-3.3-12.2 0l-12.6 12.6M2799.4 1499.6l-13-13c-3.4-3.4-8.8-3.3-12.2 0l-6.6 6.6c-3.3 3.4-8.8 3.4-12.2.1l-6.8-6.8c-3.4-3.3-8.9-3.3-12.2.1l-6.6 6.6c-3.3 3.4-8.8 3.4-12.2.1l-6.8-6.8c-3.4-3.3-8.9-3.3-12.2 0l-12.6 12.6"/><path fill="#2A333C" d="M2132.8 1430.5h-22.4c-3.2 0-5.7-2.6-5.7-5.7 0-.3 0-.7.1-1h203c.1.3.1.7.1 1 0 3.2-2.6 5.7-5.7 5.7H2283c-3.2 0-5.7 2.6-5.7 5.7 0 3.2 2.6 5.7 5.7 5.7h19.2c3.2 0 5.7 2.6 5.7 5.7 0 3.2-2.6 5.7-5.7 5.7H2261.9c-3.1 0-5.6 2.6-5.6 5.7 0 3.2 2.6 5.7 5.7 5.7h8.5c2.2.8 3.7 2.9 3.7 5.4 0 3.2-2.6 5.7-5.7 5.7h-34.6v.1c-2.7.5-4.7 2.8-4.7 5.6 0 3.2 2.6 5.7 5.7 5.7h1c2.2.8 3.7 2.9 3.7 5.3 0 3.2-2.6 5.7-5.7 5.7h-51c-3.2 0-5.7-2.6-5.7-5.7 0-2.4 1.5-4.5 3.7-5.3h3.5c3.2 0 5.7-2.6 5.7-5.7 0-3.2-2.6-5.7-5.7-5.7h-32.1c-3.2 0-5.7-2.6-5.7-5.7 0-2.4 1.5-4.5 3.7-5.4h7.3c3.2 0 5.7-2.6 5.7-5.7 0-3.2-2.6-5.7-5.7-5.7h-47.3c-3.2 0-5.7-2.6-5.7-5.7 0-3.2 2.6-5.7 5.7-5.7h22.4c3.2 0 5.7-2.6 5.7-5.7.1-3.1-2.5-5.7-5.6-5.7zM2247.4 1307c0-.2 106.3-.3 106.3-.5h445.7v.5c0 6.9-5.6 12.6-12.6 12.6h-42.2c-6.9 0-12.6 5.6-12.6 12.6 0 6.9 5.6 12.6 12.6 12.6h42.2c6.9 0 12.6 5.6 12.6 12.6 0 6.9-5.6 12.6-12.6 12.6h-88.5c-6.9.1-12.4 5.7-12.4 12.6 0 6.9 5.6 12.6 12.6 12.6h18.7c4.7 1.8 8.1 6.4 8.1 11.7 0 6.9-5.6 12.6-12.6 12.6h-75.2v.2c-5.8 1.1-10.2 6.2-10.2 12.4 0 6.9 5.6 12.6 12.6 12.6h2.3c4.7 1.8 8.1 6.4 8.1 11.7 0 6.9-5.6 12.6-12.6 12.6h-112c-6.9 0-12.6-5.6-12.6-12.6 0-5.4 3.4-9.9 8.1-11.7h7.6c6.9 0 12.6-5.6 12.6-12.6s-5.6-12.6-12.6-12.6H2458.4c-6.9 0-12.6-5.6-12.6-12.6 0-5.4 3.4-9.9 8.1-11.7h16.1c6.9 0 12.6-5.6 12.6-12.6 0-6.9-5.6-12.6-12.6-12.6h-228" opacity=".1"/><path fill="#934444" d="M2087.4 1362.5s0-.1 0 0l65.3-120.9c18.5-34.2 48.7-34.2 67.1 0l65.3 120.9 33.6 62.1h-264.9l33.6-62.1z"/><path fill="#AA5050" d="M2087.4 1362.5s0-.1 0 0l65.3-120.9c9.5-17.6 22.1-26.1 34.7-25.6v208.6h-133.5l33.5-62.1z"/><path fill="#934444" d="M2202.5 1453.2c.1 0 .1 0 0 0l89.1-89.1c25.2-25.2 66.4-25.2 91.5 0l89 89 45.8 45.8H2156.8l45.7-45.7z"/><path fill="#AA5050" d="M2202.5 1453.2c.1 0 .1 0 0 0l89.1-89.1c13-13 30.2-19.3 47.3-18.9V1499h-182l45.6-45.8z"/><path fill="#2A333C" d="M2201.6 1510.4H2161c-5.7 0-10.4-4.6-10.4-10.4v-1h366.8v1c0 5.7-4.6 10.4-10.4 10.4h-34.7c-5.7 0-10.4 4.6-10.4 10.4 0 5.7 4.6 10.4 10.4 10.4h34.7c5.7 0 10.4 4.6 10.4 10.4 0 5.7-4.6 10.4-10.4 10.4h-72.9c-5.6.1-10.2 4.7-10.2 10.3 0 5.7 4.6 10.4 10.4 10.4h15.4c3.9 1.5 6.7 5.2 6.7 9.7 0 5.7-4.6 10.4-10.4 10.4h-61.9v.2c-4.8.9-8.4 5.1-8.4 10.2 0 5.7 4.6 10.4 10.4 10.4h1.9c3.9 1.5 6.7 5.2 6.7 9.7 0 5.7-4.6 10.4-10.4 10.4h-92.2c-5.7 0-10.4-4.6-10.4-10.4 0-4.4 2.8-8.2 6.7-9.7h6.3c5.7 0 10.4-4.6 10.4-10.4s-4.6-10.4-10.4-10.4h-57.9c-5.7 0-10.4-4.6-10.4-10.4 0-4.4 2.8-8.2 6.7-9.7h13.3c5.7 0 10.4-4.6 10.4-10.4 0-5.7-4.6-10.4-10.4-10.4H2161c-5.7 0-10.4-4.6-10.4-10.4 0-5.7 4.6-10.4 10.4-10.4h40.6c5.7 0 10.4-4.6 10.4-10.4 0-5.7-4.7-10.3-10.4-10.3zM3001.2 1819.3h-247.9c-2.4 1.2-4 3.6-4 6.5 0 4 3.2 7.2 7.2 7.2H2807.3c3.9.1 7.1 3.3 7.1 7.2 0 4-3.2 7.2-7.2 7.2h-10.7c-2.7 1-4.6 3.7-4.6 6.7 0 4 3.2 7.2 7.2 7.2H2842.3v.1c3.3.6 5.9 3.6 5.9 7.1 0 4-3.2 7.2-7.2 7.2h-1.3c-2.7 1-4.6 3.7-4.6 6.7 0 4 3.2 7.2 7.2 7.2h64.3c4 0 7.2-3.2 7.2-7.2 0-3.1-1.9-5.7-4.6-6.7h-4.4c-4 0-7.2-3.2-7.2-7.2s3.2-7.2 7.2-7.2h40.4c4 0 7.2-3.2 7.2-7.2 0-3.1-1.9-5.7-4.6-6.7h-9.3c-4 0-7.2-3.2-7.2-7.2s3.2-7.2 7.2-7.2h59.6c4 0 7.2-3.2 7.2-7.2-.1-2.8-1.8-5.3-4.1-6.5z" opacity=".1"/><defs><path id="f" d="M2564.6 1390.5h740.5v424.7h-740.5z"/></defs><clipPath id="g"><use xlink:href="#f" overflow="visible"/></clipPath><g clip-path="url(#g)"><path fill="#2A333C" stroke="#E5615B" stroke-width="8.897" stroke-miterlimit="10" d="M2880.5 1931.8c3.8 3.1 9.3 2.6 12.5-1.2l181.7-219.8c3.1-3.8 2.6-9.3-1.2-12.4l-141.2-116.7c-3.8-3.1-9.3-2.6-12.5 1.2l-181.7 219.8c-3.1 3.8-2.6 9.3 1.2 12.5l141.2 116.6z"/><path fill="#E5615B" d="M2771.1 1783.9l136.5-165.2 42.7-4 76.9 63.5-175.1 212-77-63.6z"/><path fill="#AA5050" d="M2895.1 1862.3l112.8-136.5 58.9-5.6-166.1 201z"/><path fill="#AD5251" d="M2994.175 1679.2l-147.36 178.285-44.785-37.016 147.362-178.287z"/><g fill="#2A333C"><path d="M3014.5 1754.8c4.2 3.4 10.3 2.9 13.8-1.3 3.4-4.2 2.8-10.3-1.3-13.7-4.2-3.4-10.3-2.8-13.7 1.3-3.5 4.2-2.9 10.3 1.2 13.7zM2981.4 1785.8c3.4 2.8 8.4 2.3 11.2-1.1 2.8-3.4 2.3-8.4-1.1-11.2-3.4-2.8-8.4-2.3-11.2 1.1-2.8 3.3-2.3 8.4 1.1 11.2zM2924.9 1863.3c4.2 3.4 4.7 9.6 1.3 13.7-3.4 4.2-9.6 4.7-13.7 1.3-4.1-3.4-4.7-9.6-1.3-13.7 3.4-4.2 9.6-4.8 13.7-1.3zM2949 1824.9c3.4 2.8 3.9 7.8 1.1 11.2-2.8 3.4-7.8 3.9-11.2 1.1-3.4-2.8-3.9-7.8-1.1-11.2 2.8-3.4 7.8-3.9 11.2-1.1z"/></g><path fill="#2A333C" d="M2963.5 1670.9c-9.1-7.5-20.8-9.9-31.5-7.5l10.7-12.9c10.1.5 20.1 4.2 28.5 11.1 8.4 6.9 13.9 16.1 16.3 25.9l-10.7 12.9c.3-10.9-4.2-21.9-13.3-29.5zM2908.9 1736.9c-8.4-6.9-13.9-16.1-16.3-25.9l10.7-12.9c-.4 11 4.2 22 13.3 29.6 9.1 7.5 20.8 9.9 31.5 7.5l-10.7 12.9c-10.1-.6-20.1-4.2-28.5-11.2zM2916.6 1727.6c-9.1-7.5-13.6-18.6-13.3-29.6l12.5-15.1c-8.3 12.3-6.1 29.2 5.6 38.8 11.7 9.7 28.7 8.7 39.2-1.8l-12.5 15.1c-10.7 2.5-22.4.2-31.5-7.4z"/><path fill="none" stroke="#E5615B" stroke-width="5.338" stroke-miterlimit="10" d="M2916.6 1727.6c-9.1-7.5-13.6-18.6-13.3-29.6l12.5-15.1c-8.3 12.3-6.1 29.2 5.6 38.8 11.7 9.7 28.7 8.7 39.2-1.8l-12.5 15.1c-10.7 2.5-22.4.2-31.5-7.4z"/><path fill="#2A333C" d="M2958.6 1676.8c-11.7-9.7-28.7-8.7-39.2 1.8l12.5-15.1c10.7-2.4 22.4-.1 31.5 7.5 9.1 7.5 13.6 18.6 13.3 29.6l-12.5 15.1c8.4-12.4 6.1-29.3-5.6-38.9z"/><path fill="none" stroke="#E5615B" stroke-width="5.338" stroke-miterlimit="10" d="M2958.6 1676.8c-11.7-9.7-28.7-8.7-39.2 1.8l12.5-15.1c10.7-2.4 22.4-.1 31.5 7.5 9.1 7.5 13.6 18.6 13.3 29.6l-12.5 15.1c8.4-12.4 6.1-29.3-5.6-38.9z"/><path fill="#F05B53" d="M2939.3 1718.4c-1.6-.1-3.2-.3-4.8-.8l-1 5.7c-2.6-.7-5.1-1.8-7.4-3.4l3.7-4.5c-.7-.4-1.3-.9-2-1.4-.6-.5-1.2-1.1-1.8-1.7l-3.7 4.5c-2-2-3.5-4.2-4.7-6.6l5.4-2c-.8-1.4-1.3-3-1.7-4.6l-5.4 2c-.7-2.6-1-5.4-.8-8.1l5.7 1c.1-1.6.3-3.2.8-4.8l-5.7-1c.7-2.6 1.8-5.1 3.4-7.4l4.5 3.7c.4-.7.9-1.4 1.4-2 .5-.6 1.1-1.2 1.7-1.8l-4.5-3.7c2-2 4.2-3.5 6.6-4.7l2 5.4c1.5-.8 3-1.3 4.6-1.7l-2-5.4c2.6-.7 5.3-.9 8.1-.8l-1 5.7c1.6.1 3.2.3 4.8.8l1-5.7c2.6.7 5.1 1.8 7.4 3.4l-3.7 4.5c.7.4 1.4.9 2 1.4.6.5 1.2 1.1 1.8 1.7l3.7-4.5c2 2 3.5 4.2 4.7 6.6l-5.4 2c.8 1.5 1.3 3 1.7 4.6l5.4-2c.7 2.6 1 5.4.8 8.1l-5.7-1c-.1 1.6-.3 3.2-.8 4.8l5.7 1c-.7 2.6-1.8 5.1-3.4 7.4l-4.5-3.7c-.4.7-.9 1.4-1.4 2-.5.6-1.1 1.2-1.7 1.8l4.5 3.7c-2 2-4.2 3.5-6.6 4.7l-2-5.4c-1.4.8-3 1.3-4.6 1.7l2 5.4c-2.6.7-5.4 1-8.1.8l1-5.7z"/><path fill="#2A333C" d="M2960.6 1720l3.6-4.4c8.3-12.3 6.1-29.2-5.6-38.9s-28.7-8.7-39.2 1.8l-3.6 4.4c-8.3 12.3-6.1 29.2 5.6 38.8 11.7 9.8 28.7 8.8 39.2-1.7zm-22.3 4.1l1-5.7c-1.6-.1-3.2-.3-4.8-.8l-1 5.7c-2.6-.7-5.1-1.8-7.4-3.4l3.7-4.5c-.7-.4-1.3-.9-2-1.4-.6-.5-1.2-1.1-1.8-1.7l-3.7 4.5c-2-2-3.5-4.2-4.7-6.6l5.4-2c-.8-1.4-1.3-3-1.7-4.6l-5.4 2c-.7-2.6-1-5.4-.8-8.1l5.7 1c.1-1.6.3-3.2.8-4.8l-5.7-1c.7-2.6 1.8-5.1 3.4-7.4l4.5 3.7c.4-.7.9-1.4 1.4-2 .5-.6 1.1-1.2 1.7-1.8l-4.5-3.7c2-2 4.2-3.5 6.6-4.7l2 5.4c1.5-.8 3-1.3 4.6-1.7l-2-5.4c2.6-.7 5.3-.9 8.1-.8l-1 5.7c1.6.1 3.2.3 4.8.8l1-5.7c2.6.7 5.1 1.8 7.4 3.4l-3.7 4.5c.7.4 1.4.9 2 1.4.6.5 1.2 1.1 1.8 1.7l3.7-4.5c2 2 3.5 4.2 4.7 6.6l-5.4 2c.8 1.5 1.3 3 1.7 4.6l5.4-2c.7 2.6 1 5.4.8 8.1l-5.7-1c-.1 1.6-.3 3.2-.8 4.8l5.7 1c-.7 2.6-1.8 5.1-3.4 7.4l-4.5-3.7c-.4.7-.9 1.4-1.4 2-.5.6-1.1 1.2-1.7 1.8l4.5 3.7c-2 2-4.2 3.5-6.6 4.7l-2-5.4c-1.4.8-3 1.3-4.6 1.7l2 5.4c-2.6.7-5.4 1-8.1.8zM2802.1 1820.6l16.8-20.3c-.4 11 4.1 22 13.3 29.6 9.1 7.5 20.8 9.9 31.5 7.5l-16.8 20.3-44.8-37.1zM2879 1773.1c-9.1-7.5-20.8-9.9-31.5-7.5l22.9-27.7c9.5 2.2 18.7 6.6 26.8 13.2 8.1 6.7 14.1 14.8 18 23.8l-22.9 27.7c.4-10.9-4.2-22-13.3-29.5zM2874.2 1778.9c-11.7-9.7-28.7-8.7-39.2 1.8l12.5-15.1c10.7-2.4 22.4-.1 31.5 7.5 9.1 7.5 13.6 18.6 13.3 29.6l-12.5 15.1c8.3-12.3 6.1-29.2-5.6-38.9z"/><path fill="none" stroke="#E5615B" stroke-width="5.338" stroke-miterlimit="10" d="M2874.2 1778.9c-11.7-9.7-28.7-8.7-39.2 1.8l12.5-15.1c10.7-2.4 22.4-.1 31.5 7.5 9.1 7.5 13.6 18.6 13.3 29.6l-12.5 15.1c8.3-12.3 6.1-29.2-5.6-38.9z"/><path fill="#2A333C" d="M2832.2 1829.8c-9.1-7.5-13.6-18.6-13.3-29.6l12.5-15.1c-8.3 12.3-6.1 29.2 5.6 38.8 11.7 9.7 28.7 8.7 39.2-1.8l-12.5 15.1c-10.7 2.5-22.4.1-31.5-7.4z"/><path fill="none" stroke="#E5615B" stroke-width="5.338" stroke-miterlimit="10" d="M2832.2 1829.8c-9.1-7.5-13.6-18.6-13.3-29.6l12.5-15.1c-8.3 12.3-6.1 29.2 5.6 38.8 11.7 9.7 28.7 8.7 39.2-1.8l-12.5 15.1c-10.7 2.5-22.4.1-31.5-7.4z"/><path fill="#F05B53" d="M2854.8 1820.5c-1.6-.1-3.2-.3-4.8-.8l-1 5.7c-2.6-.7-5.1-1.8-7.4-3.4l3.7-4.5c-.7-.4-1.3-.9-2-1.4-.6-.5-1.2-1.1-1.8-1.7l-3.7 4.5c-2-2-3.5-4.2-4.7-6.6l5.4-2c-.8-1.4-1.3-3-1.7-4.6l-5.4 2c-.7-2.6-1-5.4-.8-8.1l5.7 1c.1-1.6.3-3.2.8-4.8l-5.7-1c.7-2.6 1.8-5.1 3.4-7.4l4.5 3.7c.4-.7.9-1.4 1.4-2 .5-.6 1.1-1.2 1.7-1.8l-4.5-3.7c2-2 4.2-3.5 6.6-4.7l2 5.4c1.5-.8 3-1.3 4.6-1.7l-2-5.4c2.6-.7 5.4-.9 8.1-.8l-1 5.7c1.6.1 3.2.3 4.8.8l1-5.7c2.6.7 5.1 1.8 7.4 3.4l-3.7 4.5c.7.4 1.3.9 2 1.4.6.5 1.2 1.1 1.8 1.7l3.7-4.5c2 2 3.5 4.2 4.7 6.6l-5.4 2c.8 1.5 1.3 3 1.7 4.6l5.4-2c.7 2.6 1 5.4.8 8.1l-5.7-1c-.1 1.6-.3 3.2-.8 4.8l5.7 1c-.7 2.6-1.8 5.1-3.4 7.4l-4.5-3.7c-.4.7-.9 1.4-1.4 2-.5.6-1.1 1.2-1.7 1.8l4.5 3.7c-2 2-4.2 3.5-6.6 4.7l-2-5.4c-1.5.8-3 1.3-4.6 1.7l2 5.4c-2.6.7-5.4 1-8.1.8l1-5.7z"/><path fill="#2A333C" d="M2876.2 1822.1l3.6-4.4c8.3-12.3 6.1-29.2-5.6-38.9s-28.7-8.7-39.2 1.8l-3.6 4.4c-8.3 12.3-6.1 29.2 5.6 38.8 11.7 9.8 28.7 8.8 39.2-1.7zm-22.3 4.1l1-5.7c-1.6-.1-3.2-.3-4.8-.8l-1 5.7c-2.6-.7-5.1-1.8-7.4-3.4l3.7-4.5c-.7-.4-1.3-.9-2-1.4-.6-.5-1.2-1.1-1.8-1.7l-3.7 4.5c-2-2-3.5-4.2-4.7-6.6l5.4-2c-.8-1.4-1.3-3-1.7-4.6l-5.4 2c-.7-2.6-1-5.4-.8-8.1l5.7 1c.1-1.6.3-3.2.8-4.8l-5.7-1c.7-2.6 1.8-5.1 3.4-7.4l4.5 3.7c.4-.7.9-1.4 1.4-2 .5-.6 1.1-1.2 1.7-1.8l-4.5-3.7c2-2 4.2-3.5 6.6-4.7l2 5.4c1.5-.8 3-1.3 4.6-1.7l-2-5.4c2.6-.7 5.4-.9 8.1-.8l-1 5.7c1.6.1 3.2.3 4.8.8l1-5.7c2.6.7 5.1 1.8 7.4 3.4l-3.7 4.5c.7.4 1.3.9 2 1.4.6.5 1.2 1.1 1.8 1.7l3.7-4.5c2 2 3.5 4.2 4.7 6.6l-5.4 2c.8 1.5 1.3 3 1.7 4.6l5.4-2c.7 2.6 1 5.4.8 8.1l-5.7-1c-.1 1.6-.3 3.2-.8 4.8l5.7 1c-.7 2.6-1.8 5.1-3.4 7.4l-4.5-3.7c-.4.7-.9 1.4-1.4 2-.5.6-1.1 1.2-1.7 1.8l4.5 3.7c-2 2-4.2 3.5-6.6 4.7l-2-5.4c-1.5.8-3 1.3-4.6 1.7l2 5.4c-2.7.8-5.4 1-8.1.8z"/></g><circle fill="#2A333C" cx="2662.6" cy="1254.6" r="32.2"/><circle fill="none" stroke="#E5615B" stroke-width="5.18" stroke-linecap="round" stroke-miterlimit="10" cx="2662.6" cy="1254.6" r="32.2"/><path fill="none" stroke="#E5615B" stroke-width="5.18" stroke-linecap="round" stroke-miterlimit="10" d="M2662.6 1268v47.5"/><path fill="#2A333C" stroke="#E5625B" stroke-width="1.29" stroke-miterlimit="10" d="M2427.3 450.9v-22.3c0-1.6-1.3-2.3-2.9-2.3-1.6 0-2.9.7-2.9 2.3v22.3c.9 0 1.8.1 2.8.1 1 0 2.1-.1 3-.1z"/><path fill="#2A333C" d="M2430.6 454.9v-1.3c0-3.5-2.9-2.6-6.4-2.6-3.5 0-6.4-1-6.4 2.6v1.3h12.8z"/><path fill="none" stroke="#E5625B" stroke-width="1.29" stroke-miterlimit="10" d="M2430.6 454.9v-1.3c0-3.5-2.9-2.6-6.4-2.6-3.5 0-6.4-1-6.4 2.6v1.3h12.8zM2424.3 426.4c.8 0 1.5.2 2 .5v-5.5c0-1.1-.6-3.2-2-3.2-1.3 0-2 2.1-2 3.2v5.5c.6-.4 1.3-.5 2-.5zM2427.3 430.1h-5.9M2427.3 434.7h-5.9"/><path fill="#C05B5B" d="M2424.3 508.9c4.8 0 8.6-3.9 8.6-8.6v-18h-17.2v18c-.1 4.8 3.8 8.6 8.6 8.6zm8.6-34.7h-17.2v2.4h17.2v-2.4zm0-16.9c0-4.8-3.9-3.4-8.6-3.4-4.8 0-8.6-1.3-8.6 3.4v10.3h17.2v-10.3zm0 12.3h-17.2v2.6h17.2v-2.6zm0 9h-17.2v1.7h17.2v-1.7zM2424.3 508.9c-1.6 0-3.1-.5-4.4-1.2l2 13.2h4.9l2-13.3c-1.3.8-2.9 1.3-4.5 1.3zM2419.2 501.1c0-2.8 10.2-2.8 10.2 0s-2.3 5.1-5.1 5.1-5.1-2.2-5.1-5.1z"/><path fill="none" stroke="#E5625B" stroke-width="8" stroke-miterlimit="10" d="M2554.8 1500.3M2181.7 1976.2v-378.7"/><path fill="#2A333C" stroke="#E5625B" stroke-width="3.748" stroke-miterlimit="10" d="M2190.2 2193.5c-2.5-.1-5.3-.3-8.3-.3-3.2 0-6.1.2-8.7.3"/><path fill="#2A333C" d="M2163.4 2181.8v3.9c0 10.2 8.3 7.4 18.5 7.4s18.5 2.8 18.5-7.4v-3.9h-37z"/><path fill="none" stroke="#E5625B" stroke-width="3.748" stroke-miterlimit="10" d="M2163.4 2181.8v3.9c0 10.2 8.3 7.4 18.5 7.4s18.5 2.8 18.5-7.4v-3.9h-37z"/><path fill="#C05B5B" d="M2181.9 2024.9c-13.8 0-25 11.2-25 25v52.3h50v-52.3c.1-13.8-11.1-25-25-25zm-25 100.8h50v-6.8h-50v6.8zm0 49.3c0 13.8 11.2 10 25 10s25 3.8 25-10v-29.9h-50v29.9zm0-35.8h50v-7.6h-50v7.6zm0-26.2h50v-4.9h-50v4.9zM2181.9 2024.9c4.7 0 9 1.4 12.7 3.6l-5.9-38.4h-14.1l-5.9 38.6c3.9-2.4 8.4-3.8 13.2-3.8zM2196.6 2047.6c0 8.2-29.7 8.2-29.7 0s6.7-14.9 14.9-14.9c8.1 0 14.8 6.7 14.8 14.9z"/><path fill="none" stroke="#E5615B" stroke-width="3" stroke-linecap="round" stroke-linejoin="round" stroke-miterlimit="10" d="M2248.3 1502.9c9.1-2.8 18.8-4.4 28.9-4.4M2180 1595.8"/><path fill="#2A333C" d="M2193 2327.8c0 66 43.1 128 109.9 157.9 38 17 78.7 25 128 25s90-7.9 128-25c66.7-29.9 109.8-91.9 109.8-157.9 0-7.8-.6-15.8-1.8-23.6-8.7-57.1-38.6-107.8-60.5-144.9-12.8-21.7-22.9-38.9-23.5-48.5-.1-1.4-.1-2.7-.1-4.1 0-18.9 7.2-36.9 14.8-55.9 7.6-19.1 15.5-38.8 15.5-59.5 0-22.7-9.6-43.7-29.3-64.2-34.4-35.7-102.8-42.1-134.1-40.4h-37.9c-31.2-1.6-99.5 4.7-133.9 40.4-19.7 20.5-29.3 41.5-29.3 64.2 0 20.7 7.9 40.4 15.5 59.5 7.6 19 14.8 37 14.8 55.9 0 1.3 0 2.7-.1 4.1-.5 9.6-10.7 26.8-23.4 48.5-21.8 37.1-51.7 87.8-60.5 144.9-1.3 7.8-1.9 15.7-1.9 23.6z"/><path fill="#C05B5B" d="M2665.6 2327.8c0 67.5-45.2 126.9-108 155.1-34.7 15.5-74.7 24.7-126.7 24.7-52.1 0-92.1-9.1-126.8-24.7-62.8-28.1-108-87.5-108-155 0-7.6.6-15.4 1.8-23.2 13.9-90.8 82.4-166.2 84-193.7.1-1.4.1-2.8.1-4.2 0-39.2-30.3-75.3-30.3-115.4 0-19.5 7.2-39.9 28.5-62 31.9-33.1 97.2-41.3 131.7-39.5h38.1c34.5-1.8 99.8 6.3 131.7 39.5 21.3 22.1 28.5 42.5 28.5 62 0 40.1-30.3 76.2-30.3 115.4 0 1.4 0 2.8.1 4.2 1.6 27.4 70.1 102.9 84 193.7 1 7.7 1.6 15.5 1.6 23.1m6.2 0c0-8-.6-16.1-1.8-24.1-8.8-57.7-38.9-108.7-60.9-146-12.1-20.5-22.5-38.2-23-47.1-.1-1.3-.1-2.6-.1-3.9 0-18.3 7.1-36 14.6-54.8 7.7-19.3 15.7-39.3 15.7-60.7 0-23.5-9.9-45.2-30.2-66.3-35.1-36.5-104.4-43-136.3-41.4H2412c-31.9-1.6-101.2 4.9-136.3 41.4-20.3 21.1-30.2 42.8-30.2 66.3 0 21.3 8 41.3 15.7 60.7 7.5 18.8 14.6 36.5 14.6 54.7 0 1.3 0 2.6-.1 3.9-.5 8.9-10.9 26.6-23 47.1-22 37.3-52 88.3-60.9 146-1.2 8-1.8 16.1-1.8 24.1 0 67.2 43.8 130.3 111.7 160.7 38.4 17.2 79.5 25.2 129.3 25.2 49.8 0 90.8-8 129.3-25.2 67.7-30.3 111.5-93.4 111.5-160.6z"/><path fill="#70C8DE" stroke="#fff" stroke-width="25.593" stroke-miterlimit="10" d="M2430.8 1995.2c-40 0-72.4 32.4-72.4 72.4 0 40 32.4 72.4 72.4 72.4 40 0 72.4-32.4 72.4-72.4 0-40-32.4-72.4-72.4-72.4z"/><path fill="#2A333C" d="M2203.8 2327.8c0 61.7 40.6 119.8 103.4 147.9 34.6 15.5 71.5 23.2 115.8 23.9v-602.1h-11.7c-34.4-1.8-96.3 6.6-125.7 37.1-17.9 18.6-26.3 36.6-26.3 56.6 0 18.6 7.2 36.5 14.7 55.5 7.7 19.2 15.6 39 15.6 59.9 0 1.6 0 3.1-.1 4.7-.7 12.2-10.9 29.5-24.9 53.4-21.4 36.3-50.7 86-59.1 141-1.1 7.4-1.7 14.8-1.7 22.1z"/><path fill="#C05B5B" d="M2415.3 1905.4v586.3c-39.7-1.5-73.3-8.9-104.8-23-60-26.9-98.8-82.2-98.8-140.8 0-6.9.5-13.9 1.6-20.8 8.2-53.5 37-102.5 58.1-138.2 15.2-25.8 25.2-42.8 26-56.9.1-1.7.1-3.4.1-5.1 0-22.5-8.2-43-16.1-62.8-7.3-18.2-14.2-35.4-14.2-52.6 0-17.9 7.7-34.1 24.1-51.2 27.4-28.4 87.9-36.4 119.7-34.7h4.3"/><path fill="#2A333C" d="M2430.8 2133.4c-36.3 0-65.9-29.5-65.9-65.9 0-17.6 6.9-34.1 19.3-46.6 12.4-12.4 29-19.3 46.6-19.3 36.3 0 65.8 29.5 65.8 65.8.1 36.5-29.5 66-65.8 66z"/><path fill="#FABEAA" d="M2430.8 2006.4c33.8 0 61.2 27.4 61.2 61.2 0 33.8-27.4 61.2-61.2 61.2-33.8 0-61.2-27.4-61.2-61.2 0-33.9 27.4-61.2 61.2-61.2m0-9.4c-18.8 0-36.5 7.3-49.9 20.6-13.3 13.3-20.7 31-20.7 49.9 0 38.9 31.6 70.5 70.5 70.5s70.5-31.6 70.5-70.5c.1-38.8-31.5-70.5-70.4-70.5z"/><path fill="#2A333C" d="M2435.7 1897.6h11.7c2.9-.1 5.9-.2 9.1-.2 37.2 0 90.1 9.8 116.6 37.3 18.2 18.9 26.5 37.2 26.3 57.5-.2 18.3-7.3 35.9-14.7 54.6-8.2 20.6-16.7 41.9-15.4 64.6.7 12.2 10.9 29.5 24.9 53.4 21.4 36.3 50.7 86 59.1 141 5.3 34.9-2.1 69.8-21.4 100.9-18.4 29.5-46.9 54.1-80.3 69-34.6 15.5-71.5 23.1-115.8 23.9l-.1-602z"/><path fill="#934444" d="M2456.4 1905.2c38.5 0 87.8 10.8 111 34.9 16.7 17.3 24.3 33.8 24.1 52-.2 16.9-7 33.8-14.2 51.8-8.5 21.4-17.4 43.5-16 68 .8 14.1 10.8 31.1 26 56.9 21.1 35.7 49.9 84.7 58.1 138.2 5.1 33-2 66.1-20.3 95.6-17.6 28.2-44.9 51.7-76.9 66-31.5 14.1-65.1 21.5-104.8 23v-586.3h4.3c2.8-.1 5.7-.1 8.7-.1m0-15.6c-3.4 0-6.5.1-9.5.2h-19v617.7c52.1 0 92.1-9.1 126.8-24.7 69.9-31.3 118-101.3 106.2-178.2-13.9-90.8-82.4-166.2-84-193.7-3.4-60 68.4-112.4 1.7-181.6-29.1-30.3-86.2-39.7-122.2-39.7z"/><path fill="#2A333C" stroke="#E5625B" stroke-width="9.334" stroke-miterlimit="10" d="M2502.1 2293.5s4.7-.8 6.8 2.1c2.1 2.8 5.5 7.9 5.5 7.9s4.8 4.4 0 11.4c0 0-3.4 5.1-5.5 7.9-2.1 2.8-6.8 2.1-6.8 2.1s-55-3.1-71.2-3.1-71.3 3.1-71.3 3.1-4.7.8-6.8-2.1c-2.1-2.8-5.5-7.9-5.5-7.9s-4.8-4.4 0-11.4c0 0 3.4-5.1 5.5-7.9 2.1-2.8 6.8-2.1 6.8-2.1s47.9 3.1 71.3 3.1c32.6 0 71.2-3.1 71.2-3.1z"/><path fill="#2A333C" d="M2385.7 1174.1h89.5v1138.3h-89.5z"/><g stroke="#E5625B" stroke-miterlimit="10"><circle fill="none" stroke-width="3.111" cx="2367.4" cy="1181.1" r="7"/><circle fill="none" stroke-width="3.111" cx="2367.4" cy="1218.4" r="7"/><path fill="none" stroke-width="3.111" d="M2370.5 1248.8c-3.9 0-7 3.1-7 7s3.1 7 7 7 7-3.1 7-7-3.1-7-7-7z"/><path fill="#2A333C" stroke-width="6.223" d="M2436.1 1317.8s1.3-12.7 18.5-18.4c17.2-5.7 21.6-3.8 22.9-28 1.3-24.2 6.4-128.5 6.4-128.5s2.5-15.9-7-22.9c-9.5-7-26.7-18.4-26.7-18.4M2425.4 1317.8s-1.3-12.7-18.5-18.4c-17.2-5.7-21.6-3.8-22.9-28-1.3-24.2-6.4-128.5-6.4-128.5s-2.5-15.9 7-22.9c9.5-7 26.7-18.5 26.7-18.5"/><circle fill="none" stroke-width="3.111" cx="2494.3" cy="1181.1" r="7"/><circle fill="none" stroke-width="3.111" cx="2494.3" cy="1218.4" r="7"/><path fill="none" stroke-width="3.111" d="M2491.1 1248.8c3.9 0 7 3.1 7 7s-3.1 7-7 7-7-3.1-7-7 3.2-7 7-7z"/></g><path fill="none" stroke="#E5625B" stroke-width="2.334" stroke-linecap="round" stroke-linejoin="round" stroke-miterlimit="10" d="M2461.8 2306.1V1264.3l14.4-5.1M2449.3 2312.3V1233l25.9-9.2M2412 2312.3V1233l-25.9-9.2M2399.5 2306.1V1264.3l-14.5-5.1M2424.4 2312.3V523.7M2436.9 2312.3V932.6"/><path fill="#2A333C" d="M2967.8 2825.4c10.3-17.9 16.1-38.7 16.1-60.7v-12c0-67.7-55.4-123.1-123.1-123.1h-104.4c-67.7 0-123.1-48.7-123.1-108.3 0-59.6-55.4-108.3-123.1-108.3h-195.1c-67.7 0-123.1-42.1-123.1-93.5s-55.4-93.5-123.1-93.5h-159.2c-67.7 0-123.1 42.1-123.1 93.5s-55.4 93.5-123.1 93.5h-101.3c-67.7 0-123.1 55.4-123.1 123.1V2763c0 22.7 6.2 44.1 17.1 62.4h1511.6z"/><path fill="none" stroke="#E5625B" stroke-width="8" stroke-miterlimit="10" d="M1260.4 1965.4v-307M2480.8 1376.9v984.7c0 55-45 100-100 100h-253.7c-55 0-100 45-100 100v57.5c0 55-45 100-100 100h-566.7c-55 0-100-45-100-100v-392.6"/><path fill="#fff" d="M1538.9 1230.1c-15.4 0-28.8 15.2-36 31.4h72c-7.2-16.2-20.6-31.4-36-31.4z"/><path fill-rule="evenodd" clip-rule="evenodd" fill="#2A333C" d="M1467 1181.4h12.6v16.6H1467v-16.6zm100-31.5v48.1h-42.4v-48.1h42.4zm-45.9 454.8h-36.7V1306h126.4v86l-6.2 212.7h-35.2v11.2h-48.3v-11.2zm68.9-390.9v81.1h-100.1v-86.7H1590v5.6z"/><path fill-rule="evenodd" clip-rule="evenodd" fill="#2A333C" stroke="#E5615B" stroke-width="5.454" stroke-miterlimit="10" d="M1595.2 1198V1208.3h-105.3v86.7H1610.8v11.1h-126.4v298.7h36.7v11.2h-87.3v-310h-6.4v-11.1h20.1v-86.7h-5.2V1198h56v-48.1h26.3v48.1h70.6zm-25.8 406.7h35.2v11.2h-35.2v-11.2z"/><path fill-rule="evenodd" clip-rule="evenodd" fill="#E5615B" d="M1498.8 1316.9h14.6v21h-14.6zM1519.6 1316.9h14.8v20.8h-14.8zM1540.4 1316.9h14.6v20.8h-14.6zM1561.1 1316.9h14.8v20.8h-14.8zM1582.1 1316.9h14.8v20.8h-14.8zM1499.5 1360.9h14.6v21h-14.6zM1520.3 1360.8h14.7v21h-14.7zM1541 1360.8h14.6v21H1541zM1561.8 1360.8h14.7v21h-14.7zM1582.6 1360.8h14.8v21h-14.8zM1499.5 1404.5h14.6v21h-14.6zM1520.3 1404.5h14.7v20.8h-14.7zM1541 1404.5h14.6v20.8H1541zM1561.8 1404.5h14.7v20.8h-14.7zM1582.6 1404.5h14.8v20.8h-14.8zM1499.5 1448.3h14.6v20.8h-14.6zM1520.3 1448.1h14.7v20.9h-14.7zM1541 1448.1h14.6v20.9H1541zM1561.8 1448.1h14.7v20.9h-14.7zM1582.6 1448.1h14.8v20.9h-14.8zM1499.5 1491.9h14.6v20.9h-14.6zM1520.3 1491.9h14.7v20.8h-14.7zM1541 1491.9h14.6v20.8H1541zM1561.8 1491.9h14.7v20.8h-14.7zM1582.6 1491.9h14.8v20.8h-14.8zM1499.5 1535.6h14.6v20.8h-14.6zM1520.3 1535.6h14.7v20.6h-14.7zM1541 1535.6h14.6v20.6H1541zM1561.8 1535.6h14.7v20.6h-14.7zM1582.6 1535.6h14.8v20.6h-14.8zM1499.1 1579.3h24.1v20.8h-24.1zM1527.3 1578.3h41.9v36.5h-41.9zM1573 1600l24.2-.4v-20.8l-24.2.2zM1504 1222.3h14.6v21H1504zM1524.6 1222.3h14.8v21h-14.8zM1545.4 1222.3h14.8v21h-14.8zM1566.3 1222.3h14.6v21h-14.6zM1504 1266.1h14.6v21H1504zM1524.6 1266.1h14.8v21h-14.8zM1545.4 1266.1h14.8v21h-14.8zM1566.3 1266.1h14.6v21h-14.6zM1548.6 1164.7h14.8v32.5h-14.8zM1534.3 1164.7h10.2v14.8h-10.2z"/><path fill-rule="evenodd" clip-rule="evenodd" fill="#2A333C" stroke="#E5615B" stroke-width="5.454" stroke-miterlimit="10" d="M1526.2 1562h2.8v-29.6h-2.8z"/><path fill="#934444" d="M2528.7 824.5s.1 0 0 0H2646.4c25.7 0 46.6-20.9 46.6-46.6 0-25.7-20.9-46.6-46.6-46.6-9 0-17.5 2.6-24.6 7-11.6-12.3-28-20-46.2-20-29.6 0-54.5 20.3-61.5 47.7-2.5-.7-5.2-1.1-8-1.1-16.5 0-29.8 13.3-29.8 29.8s13.3 29.8 29.8 29.8h22.6z"/><path fill="#C05B5B" d="M2646.4 731.3c-5.2 0-10.3.9-14.9 2.5-.4 2.3-.6 4.6-.6 7 0 23.4 18.9 42.3 42.3 42.3 7.2 0 13.9-1.8 19.9-4.9v-.2c0-25.9-20.9-46.7-46.7-46.7z"/><path fill="#AB9EBA" d="M2646.2 731.3M2645.9 731.3"/><path fill="#C05B5B" d="M2621.8 738.3c-11.6-12.3-28-20-46.2-20-8.6 0-16.8 1.7-24.2 4.8-4.9 8-7.7 17.5-7.7 27.6 0 15.7 9.7 28 21.4 33.5 15 7.1 33.2 3 38.6-19.5 3.8-15.9 16.3-28.4 32.1-32.2-5 1.2-9.7 3.2-14 5.8z"/><path fill="#AB9EBA" d="M2641.2 731.6c.2 0 .3 0 .5-.1-.2 0-.4.1-.5.1z"/><path fill="#C05B5B" d="M2494.1 798.2c16.1-1.3 20.1-32.9 20.1-32.9-1.7-.5-3.4-.7-5.3-.7-11.1 0-20.1 9-20.1 20.1.1 5.1 2.1 9.9 5.3 13.5z"/><g fill="none" stroke="#C05B5B" stroke-width="9.035" stroke-linecap="round" stroke-miterlimit="10"><path d="M247.1 998.8c0-11.2 9.1-20.4 20.4-20.4 11.2 0 20.4 9.1 20.4 20.4 0 11.2-9.1 20.4-20.4 20.4v17l-96.7 32.6M266.1 1036.1l96.1 32.6"/></g><path fill="#E5615B" d="M366.5 1065.2H167.1L52.9 1177.8l67.1 68.7 22.5-22.5.4-.5v214.7c0 22.2 18 40.2 40.2 40.2h167.2c22.2 0 40.2-18 40.2-40.2v-214.7l.4.5 22.5 22.5 67.1-68.7-114-112.6z"/><path fill="#2A333C" d="M317.1 1065.2c-.1 27.7-22.6 50.1-50.3 50.1-27.7 0-50.2-22.5-50.3-50.1h-14.2c.1 35.5 29 64.3 64.5 64.3s64.4-28.8 64.5-64.3h-14.2z"/><path fill="#AD5251" d="M266.8 1115.3c27.7 0 50.2-22.5 50.3-50.1H216.4c.2 27.7 22.7 50.1 50.4 50.1z"/><path fill="none" stroke="#2A333C" stroke-width="2.259" stroke-linecap="round" stroke-miterlimit="10" d="M74.8 1173.8l88.3-88.4"/><defs><path id="h" d="M366.4 1065.2H167L52.8 1177.8l67.1 68.7 22.5-22.5.4-.5v214.7c0 22.2 18 40.2 40.2 40.2h167.2c22.2 0 40.2-18 40.2-40.2v-214.7l.4.5 22.5 22.5 67.1-68.7-114-112.6z"/></defs><clipPath id="i"><use xlink:href="#h" overflow="visible"/></clipPath><g clip-path="url(#i)"><path fill="#2A333C" d="M329.7 1283.8l-65.1-111.3-65 111.3z"/><path fill="none" stroke="#2A333C" stroke-width="1.129" stroke-miterlimit="10" d="M234.6 1223.9l-162.3 42.4"/><path fill="#AD5251" d="M287.3 1211.3l167.9 26v41.4l-153.4-42.6z"/><path opacity=".4" fill="#1A1A1A" d="M297.1 1227.9l151.9 41.6-3.4 6.3-143.8-39.7z"/><path opacity=".2" fill="#1A1A1A" d="M291.8 1219l153.2 33.7-3.4 14.3-144.5-39.1z"/></g><path fill="none" stroke="#E5615B" stroke-width="1.727" stroke-miterlimit="10" d="M267.5 978.4v-1177"/><path fill="none" stroke="#E5615B" stroke-width="6.907" stroke-linecap="round" stroke-miterlimit="10" d="M598.5 1475.9v194.5c0 23.8 19.3 43 43 43h306.9"/><path fill="none" stroke="#E5615B" stroke-width="6.907" stroke-linecap="round" stroke-miterlimit="10" d="M726.2 1456.5c0 10.7-8.7 19.4-19.4 19.4H599.2c-10.7 0-19.4-8.7-19.4-19.4s8.7-19.4 19.4-19.4h107.6c10.7 0 19.4 8.7 19.4 19.4z"/><path fill="#2A333C" d="M1014.7 1603.6H695.4"/><path fill="none" stroke="#E5615B" stroke-width="6.907" stroke-linecap="round" stroke-miterlimit="10" d="M1014.7 1603.6H695.4M707.5 1475.9v127.7M603.5 1437.1v-52.3M696.2 1437.1V1417M696.2 1397.7v1.4"/><path fill="#2A333C" d="M559.7 1303.8V1157c0-7.2 5.8-13 13-13s13 5.8 13 13v125.3"/><path fill="none" stroke="#E5615B" stroke-width="6.907" stroke-linecap="round" stroke-miterlimit="10" d="M559.7 1303.8V1157c0-7.2 5.8-13 13-13s13 5.8 13 13v125.3M632.1 1293.3"/><path fill="none" stroke="#E5615B" stroke-width="6.907" stroke-linecap="round" stroke-miterlimit="10" d="M682.6 1280.4c0 7.2-5.8 13-13 13s-13-5.8-13-13v-57.6c0-7.2 5.8-13 13-13s13 5.8 13 13v57.6zM632.1 1222.8M601.3 1266.3v-43.5c0-7.2 5.8-13 13-13s13 5.8 13 13v40.7"/><path fill="none" stroke="#E5615B" stroke-width="6.907" stroke-linecap="round" stroke-linejoin="round" stroke-miterlimit="10" d="M719.7 1301.1V1157c0-7.2-5.8-13-13-13s-13 5.8-13 13v85.9h-11.1"/><path fill="none" stroke="#E5615B" stroke-width="6.907" stroke-linecap="round" stroke-miterlimit="10" d="M719.9 1297.5v68.1c0 10.3-8.4 18.7-18.7 18.7h-31.5"/><path fill="none" stroke="#E5615B" stroke-width="6.907" stroke-linecap="round" stroke-linejoin="round" stroke-miterlimit="10" d="M641 1299M597.8 1330.4l32.2-32.2c8.3-8.3 8.3-21.8 0-30.1s-21.8-8.3-30.1 0l-41.3 41.3 1.1 31.8c0 23.8 19.3 43 43 43h35.8"/><path fill="none" stroke="#E5615B" stroke-width="6.907" stroke-linecap="round" stroke-miterlimit="10" d="M629.4 1231.4h24.9"/><path fill="#E5615B" d="M616.9 1456.5c0 3.6-2.9 6.5-6.5 6.5s-6.5-2.9-6.5-6.5 2.9-6.5 6.5-6.5 6.5 3 6.5 6.5zM646.4 1456.5c0 3.6-2.9 6.5-6.5 6.5s-6.5-2.9-6.5-6.5 2.9-6.5 6.5-6.5c3.6.1 6.5 3 6.5 6.5zM675.8 1456.5c0 3.6-2.9 6.5-6.5 6.5s-6.5-2.9-6.5-6.5 2.9-6.5 6.5-6.5 6.5 3 6.5 6.5zM705.2 1456.5c0 3.6-2.9 6.5-6.5 6.5s-6.5-2.9-6.5-6.5 2.9-6.5 6.5-6.5c3.6.1 6.5 3 6.5 6.5z"/><path fill="#2A333C" d="M3402.9 894.2h24.8c5.5 0 7.5 3.8 4.5 8.4l-30.4 46.2c-3 4.6-1 8.4 4.5 8.4h4.3c5.5 0 7.4 3.7 4.2 8.1l-73.7 102.4c-3.2 4.5-4.9 3.7-3.8-1.7l12.2-59.5c1.1-5.4-2.5-9.8-8-9.8h-17.8c-5.5 0-8.4-4.2-6.4-9.3l25.1-64.4"/><path fill="none" stroke="#E5625B" stroke-width="8" stroke-linecap="round" stroke-miterlimit="10" d="M3402.9 894.2h24.8c5.5 0 7.5 3.8 4.5 8.4l-30.4 46.2c-3 4.6-1 8.4 4.5 8.4h4.3c5.5 0 7.4 3.7 4.2 8.1l-73.7 102.4c-3.2 4.5-4.9 3.7-3.8-1.7l12.2-59.5c1.1-5.4-2.5-9.8-8-9.8h-17.8c-5.5 0-8.4-4.2-6.4-9.3l25.1-64.4"/><path fill="#2A333C" d="M2533.2 962.3M2533.2 1015.6M2526.5 1002.3M2533.2 1082.5M2533.2 1029.2M2526.5 1042.5M2526.5 1082.4M2539.9 1082.4"/><circle fill="#2A333C" stroke="#E5625B" stroke-width="3" stroke-miterlimit="10" cx="2584.7" cy="1560.5" r="7.9"/><path fill="none" stroke="#E5625B" stroke-width="2.334" stroke-linecap="round" stroke-linejoin="round" stroke-miterlimit="10" d="M2584.7 1558.5V418.1"/><g stroke="#E5625B" stroke-miterlimit="10"><ellipse fill="#2A333C" stroke-width="3" cx="1264.1" cy="1472" rx="7.9" ry="10.4"/><path fill="none" stroke-width="2.334" stroke-linecap="round" stroke-linejoin="round" d="M1264.1 1141.9V-198.6M1264.1 1472v-135.3"/></g><path fill="#934444" d="M1478.3 685.7c-28 9.6-45.6 30.6-43.5 67.7 2.2 39.3 55.4 89.8 75.5 105.3h1.8V691.1c-10.6-10.9-32.8-5.8-33.8-5.4z"/><path fill="#2A333C" stroke="#E5625B" stroke-width="8" stroke-linecap="round" stroke-miterlimit="10" d="M1545.9 685.7c28 9.6 45.5 30.6 43.5 67.7-2.2 39.3-55.4 89.8-75.5 105.3h-1.8V691.1c10.5-10.9 32.7-5.8 33.8-5.4zM1483.2 684c-23.9 9.7-38.8 30.9-37.1 68.4 1.9 39.7 47.3 90.7 64.4 106.4h1.5V689.5c-8.9-11-27.8-5.9-28.8-5.5z"/><path fill="#E5615B" d="M1540.9 684c23.9 9.7 38.8 30.9 37.1 68.4-1.9 39.7-47.3 90.7-64.4 106.4h-1.5V689.5c9-11 27.9-5.9 28.8-5.5zM1494 682.7c-15 9.7-24.4 31.2-23.3 68.9 1.2 40 29.7 91.3 40.4 107.1h.9V688.2c-5.6-11-17.4-5.9-18-5.5z"/><path fill="#2A333C" stroke="#E5625B" stroke-width="8" stroke-linecap="round" stroke-miterlimit="10" d="M1530.2 682.7c15 9.7 24.4 31.2 23.3 68.9-1.2 40-29.7 91.3-40.4 107.1h-.9V688.2c5.5-11 17.4-5.9 18-5.5z"/><radialGradient id="j" cx="1415.669" cy="1704.835" r="20.162" gradientTransform="matrix(1.035 0 0 .861 47.68 -581.265)" gradientUnits="userSpaceOnUse"><stop offset=".036"/><stop offset=".131" stop-color="#313131"/><stop offset=".247" stop-color="#676767"/><stop offset=".365" stop-color="#969696"/><stop offset=".481" stop-color="#BCBCBC"/><stop offset=".597" stop-color="#D9D9D9"/><stop offset=".71" stop-color="#eee"/><stop offset=".822" stop-color="#FBFBFB"/><stop offset=".927" stop-color="#fff"/></radialGradient><path fill="url(#j)" d="M1534.5 884.3c0 10-9.7 18.1-21.7 18.1s-21.7-8.1-21.7-18.1c0-10 9.7-15.1 21.7-15.1 12-.1 21.7 5.1 21.7 15.1z"/><path fill="#B3B2B3" d="M1502.3 875.3h20.4v19h-20.4z"/><path fill="#657C82" d="M1502.3 875.3h20.4v19h-20.4z"/><path fill="#C05B5B" d="M1502.3 875.3h20.5v19h-20.5z"/><ellipse fill="#E7E6E6" cx="1506.4" cy="847.6" rx=".6" ry=".8"/><ellipse fill="#2E2E2E" cx="1506.4" cy="847.5" rx=".6" ry=".7"/><ellipse fill="#B3B2B3" cx="1501.7" cy="848.4" rx=".5" ry=".7"/><ellipse fill="#1A1A1A" cx="1501.8" cy="848.3" rx=".4" ry=".6"/><ellipse fill="#989897" cx="1522.8" cy="848.4" rx=".5" ry=".6"/><ellipse fill="#2E2E2E" cx="1522.9" cy="848.2" rx=".4" ry=".6"/><ellipse fill="#E7E6E6" cx="1518.3" cy="847.6" rx=".8" ry=".9"/><ellipse fill="#4E4E4E" cx="1518.2" cy="847.5" rx=".7" ry=".7"/><ellipse fill="#B3B2B3" cx="1521.5" cy="877.3" rx=".6" ry=".7"/><ellipse fill="#4E4E4E" cx="1521.5" cy="877.2" rx=".5" ry=".5"/><ellipse fill="#B3B2B3" cx="1516.3" cy="877.3" rx=".6" ry=".7"/><ellipse fill="#4E4E4E" cx="1516.2" cy="877.2" rx=".5" ry=".5"/><ellipse fill="#B3B2B3" cx="1509.3" cy="877.3" rx=".6" ry=".7"/><ellipse fill="#4E4E4E" cx="1509.3" cy="877.2" rx=".5" ry=".5"/><ellipse fill="#B3B2B3" cx="1503.2" cy="877.3" rx=".6" ry=".7"/><ellipse fill="#4E4E4E" cx="1503.2" cy="877.2" rx=".5" ry=".5"/><linearGradient id="k" gradientUnits="userSpaceOnUse" x1="1516.933" y1="846.907" x2="1517.544" y2="876.936"><stop offset=".097" stop-color="#989897"/><stop offset=".179" stop-color="#B1B2B1"/><stop offset=".28" stop-color="#C9CACA"/><stop offset=".393" stop-color="#DCDDDD"/><stop offset=".525" stop-color="#E9EAEB"/><stop offset=".69" stop-color="#F1F2F3"/><stop offset="1" stop-color="#F3F4F5"/></linearGradient><path fill="url(#k)" d="M1518.1 847.8l-2 29.2h.2l2-29.2c0 .1-.1.1-.2 0z"/><linearGradient id="l" gradientUnits="userSpaceOnUse" x1="1507.569" y1="847.098" x2="1508.179" y2="877.126"><stop offset=".097" stop-color="#989897"/><stop offset=".179" stop-color="#B1B2B1"/><stop offset=".28" stop-color="#C9CACA"/><stop offset=".393" stop-color="#DCDDDD"/><stop offset=".525" stop-color="#E9EAEB"/><stop offset=".69" stop-color="#F1F2F3"/><stop offset="1" stop-color="#F3F4F5"/></linearGradient><path fill="url(#l)" d="M1506.7 847.9c-.1 0-.2 0-.2.1l2.7 29.1h.2l-2.7-29.2z"/><linearGradient id="m" gradientUnits="userSpaceOnUse" x1="1798.602" y1="669.886" x2="1799.212" y2="699.914" gradientTransform="matrix(.998 .059 -.059 .998 -252.996 72.367)"><stop offset=".097" stop-color="#989897"/><stop offset=".179" stop-color="#B1B2B1"/><stop offset=".28" stop-color="#C9CACA"/><stop offset=".393" stop-color="#DCDDDD"/><stop offset=".525" stop-color="#E9EAEB"/><stop offset=".69" stop-color="#F1F2F3"/><stop offset="1" stop-color="#F3F4F5"/></linearGradient><path fill="url(#m)" d="M1503.2 877.1l-1.3-28.7h-.3l1.4 28.7z"/><linearGradient id="n" gradientUnits="userSpaceOnUse" x1="-3897.825" y1="1006.548" x2="-3897.215" y2="1036.576" gradientTransform="matrix(-.998 .059 .059 .998 -2429.099 72.367)"><stop offset=".097" stop-color="#989897"/><stop offset=".179" stop-color="#B1B2B1"/><stop offset=".28" stop-color="#C9CACA"/><stop offset=".393" stop-color="#DCDDDD"/><stop offset=".525" stop-color="#E9EAEB"/><stop offset=".69" stop-color="#F1F2F3"/><stop offset="1" stop-color="#F3F4F5"/></linearGradient><path fill="url(#n)" d="M1521.3 877.1l1.3-28.7h.3l-1.4 28.7z"/><path fill="#934444" d="M1362.9 557h-125.5c-27.5 0-49.7-22.3-49.7-49.7 0-27.5 22.3-49.7 49.7-49.7 9.6 0 18.6 2.7 26.2 7.5 12.3-13.1 29.8-21.3 49.3-21.3 31.6 0 58.1 21.6 65.6 50.9 2.7-.8 5.6-1.2 8.5-1.2 17.5 0 31.8 14.2 31.8 31.8 0 17.5-14.2 31.8-31.8 31.8h-24.1z"/><path fill="#C05B5B" d="M1237.4 457.6c5.6 0 10.9.9 15.9 2.6.4 2.4.6 4.9.6 7.5 0 24.9-20.2 45.1-45.1 45.1-7.7 0-14.9-1.9-21.2-5.3v-.2c.1-27.4 22.4-49.7 49.8-49.7z"/><path fill="#AB9EBA" d="M1237.7 457.6M1238 457.6"/><path fill="#C05B5B" d="M1263.7 465.1c12.3-13.1 29.8-21.3 49.3-21.3 9.2 0 17.9 1.8 25.8 5.1 5.2 8.6 8.2 18.6 8.2 29.4 0 16.7-10.3 29.8-22.8 35.7-16 7.5-35.4 3.2-41.1-20.8-4-16.9-17.3-30.3-34.3-34.3 5.3 1.3 10.3 3.4 14.9 6.2z"/><path fill="#AB9EBA" d="M1243 457.9c-.2 0-.3 0-.5-.1.2.1.4.1.5.1z"/><path fill="#C05B5B" d="M1399.8 528.9c-17.1-1.4-21.4-35.1-21.4-35.1 1.8-.5 3.7-.7 5.6-.7 11.8 0 21.4 9.6 21.4 21.4 0 5.5-2.1 10.6-5.6 14.4z"/><path fill="none" stroke="#E5615B" stroke-width="6.907" stroke-linecap="round" stroke-miterlimit="10" d="M1035.1 1714h66s66 45 66 100v134.7c0 55 45 100 100 100h172.3"/><path fill="#F9C0B4" d="M2060.1 471.1c5.3 8.8 8.4 19 8.4 30 0 32-26 58-58 58-11 0-21.3-3.1-30-8.4 10.2 16.8 28.6 28 49.7 28 32 0 58-26 58-58-.1-21-11.3-39.5-28.1-49.6z"/><path fill="#2A333C" stroke="#E5615B" stroke-width="6.907" stroke-linecap="round" stroke-miterlimit="10" d="M970.3 1713.4h14.9"/><path fill-rule="evenodd" clip-rule="evenodd" fill="#2A333C" d="M1101.4 741.6h58.5c1.3-3.3 2-6.9 2-10.7 0-13.9-9.4-25.6-22.2-29.1v-1.1c0-12.7-10.3-23-23-23-1.9 0-3.8.2-5.6.7-7.7-7.8-18.5-12.6-30.3-12.6-18.5 0-34.2 11.7-40.2 28.1-4.3-3.6-9.8-5.8-15.9-5.8-7.9 0-14.9 3.7-19.4 9.4-5.3-8.5-14.8-14.2-25.6-14.2-12.5 0-23.3 7.6-27.8 18.5-4.7-3.1-10.4-4.9-16.5-4.9-16.6 0-30.1 13.5-30.1 30.1 0 5.2 1.3 10.2 3.7 14.5h146.5"/><path fill="none" stroke="#E5615B" stroke-width="5.18" stroke-linecap="round" stroke-miterlimit="10" d="M1101.4 741.6h58.5c1.3-3.3 2-6.9 2-10.7 0-13.9-9.4-25.6-22.2-29.1v-1.1c0-12.7-10.3-23-23-23-1.9 0-3.8.2-5.6.7-7.7-7.8-18.5-12.6-30.3-12.6-18.5 0-34.2 11.7-40.2 28.1-4.3-3.6-9.8-5.8-15.9-5.8-7.9 0-14.9 3.7-19.4 9.4-5.3-8.5-14.8-14.2-25.6-14.2-12.5 0-23.3 7.6-27.8 18.5-4.7-3.1-10.4-4.9-16.5-4.9-16.6 0-30.1 13.5-30.1 30.1 0 5.2 1.3 10.2 3.7 14.5h146.5"/><path fill-rule="evenodd" clip-rule="evenodd" fill="#2A333C" d="M3443.4 871.3h58.5c1.3-3.3 2-6.9 2-10.7 0-13.9-9.4-25.6-22.2-29.1v-1.1c0-12.7-10.3-23-23-23-1.9 0-3.8.2-5.6.7-7.7-7.8-18.5-12.6-30.3-12.6-18.5 0-34.2 11.7-40.2 28.1-4.3-3.6-9.8-5.8-15.9-5.8-7.9 0-14.9 3.7-19.4 9.4-5.3-8.5-14.8-14.2-25.6-14.2-12.5 0-23.3 7.6-27.8 18.5-4.7-3.1-10.4-4.9-16.5-4.9-16.6 0-30.1 13.5-30.1 30.1 0 5.2 1.3 30.2 3.7 34.5h146.5"/><path fill="none" stroke="#E5625B" stroke-width="8" stroke-linecap="round" stroke-miterlimit="10" d="M3443.4 871.3h58.5c1.3-3.3 2-6.9 2-10.7 0-13.9-9.4-25.6-22.2-29.1v-1.1c0-12.7-10.3-23-23-23-1.9 0-3.8.2-5.6.7-7.7-7.8-18.5-12.6-30.3-12.6-18.5 0-34.2 11.7-40.2 28.1-4.3-3.6-9.8-5.8-15.9-5.8-7.9 0-14.9 3.7-19.4 9.4-5.3-8.5-14.8-14.2-25.6-14.2-12.5 0-23.3 7.6-27.8 18.5-4.7-3.1-10.4-4.9-16.5-4.9-16.6 0-30.1 13.5-30.1 30.1 0 5.2 1.3 30.2 3.7 34.5h146.5"/><path fill-rule="evenodd" clip-rule="evenodd" fill="#2A333C" d="M2308.5 670.2l1-3.3c6.1-20.5 25.4-34.9 46.8-34.9 7.5 0 15 1.8 21.7 5.1 6-9.7 16.5-15.7 28.1-15.7 11.1 0 21.3 5.4 27.4 14.6 15.1 1 27.2 13.8 27.2 29 0 .9 0 1.8-.1 2.8l-.2 2.3h-151.9z"/><path fill="#E5615B" d="M2406.1 624c11 0 20.6 5.8 26 14.6 14.4.3 26 12 26 26.5 0 .9 0 1.7-.1 2.5h-146c5.7-19.1 23.4-33 44.3-33 8.3 0 16 2.2 22.7 6 5.1-9.9 15.3-16.6 27.1-16.6m0-5.2c-11.7 0-22.4 5.6-29 15-6.5-2.9-13.6-4.4-20.8-4.4-11.3 0-22 3.6-31 10.4-8.7 6.6-15.2 15.9-18.3 26.3l-2 6.7h157.6l.4-4.7c.1-1.1.2-2.1.2-3 0-8.4-3.2-16.3-9.1-22.2-5.2-5.3-11.9-8.5-19.2-9.3-6.7-9.3-17.2-14.8-28.8-14.8z"/><circle fill="#E5615B" cx="2268.8" cy="843.6" r="61.7"/><path fill="#2A333C" d="M2289.6 1038c0 11.6-9.4 20.9-20.9 20.9-11.6 0-20.9-9.4-20.9-20.9"/><path fill="none" stroke="#E5615B" stroke-width="6.907" stroke-linecap="round" stroke-miterlimit="10" d="M2289.6 1038c0 11.6-9.4 20.9-20.9 20.9-11.6 0-20.9-9.4-20.9-20.9"/><path fill="#2A333C" d="M2214.4 808.2"/><circle fill="#2A333C" cx="2227.8" cy="808.2" r="3.3"/><path fill="#2A333C" d="M2227.8 808.2"/><circle fill="#2A333C" cx="2241.1" cy="808.2" r="3.3"/><path fill="#2A333C" d="M2241.1 808.2"/><circle fill="#2A333C" cx="2254.4" cy="808.2" r="3.3"/><path fill="#2A333C" d="M2254.4 808.2"/><circle fill="#2A333C" cx="2267.8" cy="808.2" r="3.3"/><path fill="#2A333C" d="M2267.8 808.2"/><circle fill="#2A333C" cx="2281.1" cy="808.2" r="3.3"/><path fill="#2A333C" d="M2281.1 808.2"/><circle fill="#2A333C" cx="2294.5" cy="808.2" r="3.3"/><path fill="#2A333C" d="M2294.5 808.2"/><circle fill="#2A333C" cx="2307.8" cy="808.2" r="3.3"/><path fill="#2A333C" d="M2307.8 808.2M2201.1 834.9"/><circle fill="#2A333C" cx="2214.4" cy="834.9" r="3.3"/><path fill="#2A333C" d="M2214.4 834.9"/><circle fill="#2A333C" cx="2227.8" cy="834.9" r="3.3"/><path fill="#2A333C" d="M2227.8 834.9"/><circle fill="#2A333C" cx="2241.1" cy="834.9" r="3.3"/><path fill="#2A333C" d="M2241.1 834.9"/><circle fill="#2A333C" cx="2254.4" cy="834.9" r="3.3"/><path fill="#2A333C" d="M2254.4 834.9"/><circle fill="#2A333C" cx="2267.8" cy="834.9" r="3.3"/><path fill="#2A333C" d="M2267.8 834.9"/><circle fill="#2A333C" cx="2281.1" cy="834.9" r="3.3"/><path fill="#2A333C" d="M2281.1 834.9"/><circle fill="#2A333C" cx="2294.5" cy="834.9" r="3.3"/><path fill="#2A333C" d="M2294.5 834.9"/><circle fill="#2A333C" cx="2307.8" cy="834.9" r="3.3"/><path fill="#2A333C" d="M2307.8 834.9"/><circle fill="#2A333C" cx="2321.1" cy="834.9" r="3.3"/><path fill="#2A333C" d="M2201.1 861.6M2201.1 888.3M2201.1 914.9"/><circle fill="#2A333C" cx="2247.8" cy="794.9" r="3.3"/><path fill="#2A333C" d="M2247.8 794.9"/><circle fill="#2A333C" cx="2261.1" cy="794.9" r="3.3"/><path fill="#2A333C" d="M2261.1 794.9"/><circle fill="#2A333C" cx="2274.4" cy="794.9" r="3.3"/><path fill="#2A333C" d="M2274.4 794.9"/><circle fill="#2A333C" cx="2287.8" cy="794.9" r="3.3"/><path fill="#2A333C" d="M2287.8 794.9M2301.1 794.9"/><circle fill="#2A333C" cx="2221.1" cy="821.6" r="3.3"/><path fill="#2A333C" d="M2221.1 821.6"/><circle fill="#2A333C" cx="2234.4" cy="821.6" r="3.3"/><path fill="#2A333C" d="M2234.4 821.6"/><circle fill="#2A333C" cx="2247.8" cy="821.6" r="3.3"/><path fill="#2A333C" d="M2247.8 821.6"/><circle fill="#2A333C" cx="2261.1" cy="821.6" r="3.3"/><path fill="#2A333C" d="M2261.1 821.6"/><circle fill="#2A333C" cx="2274.4" cy="821.6" r="3.3"/><path fill="#2A333C" d="M2274.4 821.6"/><circle fill="#2A333C" cx="2287.8" cy="821.6" r="3.3"/><path fill="#2A333C" d="M2287.8 821.6"/><circle fill="#2A333C" cx="2301.1" cy="821.6" r="3.3"/><path fill="#2A333C" d="M2301.1 821.6"/><circle fill="#2A333C" cx="2314.5" cy="821.6" r="3.3"/><path fill="#2A333C" d="M2214.4 875.1"/><circle fill="#2A333C" cx="2227.8" cy="875.1" r="3.3"/><path fill="#2A333C" d="M2227.8 875.1"/><circle fill="#2A333C" cx="2241.1" cy="875.1" r="3.3"/><path fill="#2A333C" d="M2241.1 875.1"/><circle fill="#2A333C" cx="2254.4" cy="875.1" r="3.3"/><path fill="#2A333C" d="M2254.4 875.1"/><circle fill="#2A333C" cx="2267.8" cy="875.1" r="3.3"/><path fill="#2A333C" d="M2267.8 875.1"/><circle fill="#2A333C" cx="2281.1" cy="875.1" r="3.3"/><path fill="#2A333C" d="M2281.1 875.1"/><circle fill="#2A333C" cx="2294.5" cy="875.1" r="3.3"/><path fill="#2A333C" d="M2294.5 875.1"/><circle fill="#2A333C" cx="2307.8" cy="875.1" r="3.3"/><path fill="#2A333C" d="M2307.8 875.1"/><circle fill="#2A333C" cx="2214.4" cy="848.4" r="3.3"/><path fill="#2A333C" d="M2214.4 848.4"/><circle fill="#2A333C" cx="2227.8" cy="848.4" r="3.3"/><path fill="#2A333C" d="M2227.8 848.4"/><circle fill="#2A333C" cx="2241.1" cy="848.4" r="3.3"/><path fill="#2A333C" d="M2241.1 848.4"/><circle fill="#2A333C" cx="2254.4" cy="848.4" r="3.3"/><path fill="#2A333C" d="M2254.4 848.4"/><circle fill="#2A333C" cx="2267.8" cy="848.4" r="3.3"/><path fill="#2A333C" d="M2267.8 848.4"/><circle fill="#2A333C" cx="2281.1" cy="848.4" r="3.3"/><path fill="#2A333C" d="M2281.1 848.4"/><circle fill="#2A333C" cx="2294.5" cy="848.4" r="3.3"/><path fill="#2A333C" d="M2294.5 848.4"/><circle fill="#2A333C" cx="2307.8" cy="848.4" r="3.3"/><path fill="#2A333C" d="M2307.8 848.4"/><circle fill="#2A333C" cx="2321.1" cy="848.4" r="3.3"/><circle fill="#2A333C" cx="2247.8" cy="888.4" r="3.3"/><path fill="#2A333C" d="M2247.8 888.4"/><circle fill="#2A333C" cx="2261.1" cy="888.4" r="3.3"/><path fill="#2A333C" d="M2261.1 888.4"/><circle fill="#2A333C" cx="2274.4" cy="888.4" r="3.3"/><path fill="#2A333C" d="M2274.4 888.4"/><circle fill="#2A333C" cx="2287.8" cy="888.4" r="3.3"/><path fill="#2A333C" d="M2287.8 888.4M2301.1 888.4"/><circle fill="#2A333C" cx="2221.1" cy="861.8" r="3.3"/><path fill="#2A333C" d="M2221.1 861.8"/><circle fill="#2A333C" cx="2234.4" cy="861.8" r="3.3"/><path fill="#2A333C" d="M2234.4 861.8"/><circle fill="#2A333C" cx="2247.8" cy="861.8" r="3.3"/><path fill="#2A333C" d="M2247.8 861.8"/><circle fill="#2A333C" cx="2261.1" cy="861.8" r="3.3"/><path fill="#2A333C" d="M2261.1 861.8"/><circle fill="#2A333C" cx="2274.4" cy="861.8" r="3.3"/><path fill="#2A333C" d="M2274.4 861.8"/><circle fill="#2A333C" cx="2287.8" cy="861.8" r="3.3"/><path fill="#2A333C" d="M2287.8 861.8"/><circle fill="#2A333C" cx="2301.1" cy="861.8" r="3.3"/><path fill="#2A333C" d="M2301.1 861.8"/><circle fill="#2A333C" cx="2314.5" cy="861.8" r="3.3"/><path fill="#2A333C" d="M2207.7 901.6M2234.4 901.6"/><circle fill="#2A333C" cx="2247.8" cy="901.6" r="3.3"/><path fill="#2A333C" d="M2247.8 901.6"/><circle fill="#2A333C" cx="2261.1" cy="901.6" r="3.3"/><path fill="#2A333C" d="M2261.1 901.6"/><circle fill="#2A333C" cx="2274.4" cy="901.6" r="3.3"/><path fill="#2A333C" d="M2274.4 901.6"/><circle fill="#2A333C" cx="2287.8" cy="901.6" r="3.3"/><path fill="#2A333C" d="M2287.8 901.6M2301.1 901.6"/><circle fill="none" cx="2268.8" cy="843.6" r="61.7"/><path fill="#2A333C" d="M2247.7 894.6h42.1V1038h-42.1z"/><path fill="none" stroke="#E5615B" stroke-width="6.907" stroke-linecap="round" stroke-miterlimit="10" d="M2247.7 894.6h42.1V1038h-42.1z"/><path fill="#E5615B" d="M1716.7 2406.2c0 111.2-90.2 201.4-201.4 201.4s-201.4-90.2-201.4-201.4 90.1-201.4 201.4-201.4c111.2.1 201.4 90.2 201.4 201.4z"/><path fill="#2A333C" d="M1691.5 2413c0 90.6-73.4 164-164 164-90.5 0-164-73.4-164-164 0-90.5 73.4-164 164-164 90.6.1 164 73.5 164 164z" opacity=".15"/><path fill="#2A333C" d="M1710 2406.2c0 107.5-87.2 194.7-194.7 194.7-107.5 0-194.7-87.2-194.7-194.7 0-107.5 87.2-194.7 194.7-194.7 107.5 0 194.7 87.2 194.7 194.7z"/><path fill="#C05B5B" d="M1568.9 2406.2c0 29.6-24 53.6-53.6 53.6s-53.6-24-53.6-53.6 24-53.6 53.6-53.6 53.6 24 53.6 53.6z"/><path fill="#2A333C" d="M1528.2 2406.2c0 7.1-5.8 12.9-12.9 12.9s-12.9-5.8-12.9-12.9c0-7.1 5.8-12.9 12.9-12.9s12.9 5.8 12.9 12.9z"/><path fill="none" stroke="#E5615B" stroke-width="5.087" stroke-miterlimit="10" d="M1515.3 2497.4c-50.3 0-91.1-40.8-91.1-91.1M1515.3 2517.8c-61.6 0-111.5-49.9-111.5-111.5M1515.3 2538.2c-72.9 0-131.9-59.1-131.9-131.9M1515.3 2558.6c-84.1 0-152.3-68.2-152.3-152.3M1515.3 2579c-95.4 0-172.7-77.3-172.7-172.7" opacity=".8"/><g stroke="#E5625B" stroke-width="5.107" stroke-miterlimit="10"><path fill="#AD5252" d="M1600 2663c-.8 0-1.5-.7-1.5-1.5V2643c0-.8.7-1.5 1.5-1.5h44.9c.8 0 1.5.7 1.5 1.5v18.5c0 .8-.7 1.5-1.5 1.5H1600z"/><path fill="#2A333C" d="M1529.1 2663c-.8 0-1.5-.7-1.5-1.5V2643c0-.8.7-1.5 1.5-1.5h44.9c.8 0 1.5.7 1.5 1.5v18.5c0 .8-.7 1.5-1.5 1.5h-44.9z"/><path fill="#AD5252" d="M1387.2 2663c-.8 0-1.5-.7-1.5-1.5V2643c0-.8.7-1.5 1.5-1.5h44.9c.8 0 1.5.7 1.5 1.5v18.5c0 .8-.7 1.5-1.5 1.5h-44.9z"/><path fill="#2A333C" d="M1458.1 2663c-.8 0-1.5-.7-1.5-1.5V2643c0-.8.7-1.5 1.5-1.5h44.9c.8 0 1.5.7 1.5 1.5v18.5c0 .8-.7 1.5-1.5 1.5h-44.9z"/></g><circle fill="#C05B5B" cx="1700.9" cy="2223.2" r="9.3"/><path fill="#C05B5B" d="M1710.2 2576c0 5.2-4.2 9.3-9.3 9.3-5.2 0-9.3-4.2-9.3-9.3 0-5.2 4.2-9.3 9.3-9.3 5.1 0 9.3 4.1 9.3 9.3z"/><path fill="#2A333C" d="M1695.4 2162.8c-1 0-1.8-.8-1.8-1.8v-126.5c0-1 .8-1.8 1.8-1.8h11c1 0 1.8.8 1.8 1.8V2161c0 1-.8 1.8-1.8 1.8h-11z" opacity=".1"/><path fill="none" stroke="#E5615B" stroke-width="5.087" stroke-miterlimit="10" d="M1500 2246.5c95.4 0 172.7 77.3 172.7 172.7" opacity=".8"/><path fill-rule="evenodd" clip-rule="evenodd" fill="#2A333C" d="M1179.6 1009.4l1-3.3c6.1-20.5 25.4-34.9 46.8-34.9 7.5 0 15 1.8 21.7 5.1 6-9.7 16.5-15.7 28.1-15.7 11.1 0 21.3 5.4 27.4 14.6 15.1 1 27.2 13.8 27.2 29 0 .9 0 1.8-.1 2.8l-.2 2.3h-151.9z"/><path fill="#E5615B" d="M1277.2 963.2c11 0 20.6 5.8 26 14.6 14.4.3 26 12 26 26.5 0 .9 0 1.7-.1 2.5h-146c5.7-19.1 23.4-33 44.3-33 8.3 0 16 2.2 22.7 6 5.1-9.9 15.3-16.6 27.1-16.6m0-5.2c-11.7 0-22.4 5.6-29 15-6.5-2.9-13.6-4.4-20.8-4.4-11.3 0-22 3.6-31 10.4-8.7 6.6-15.2 15.9-18.3 26.3l-2 6.7h157.6l.4-4.7c.1-1.1.2-2.1.2-3 0-8.4-3.2-16.3-9.1-22.2-5.2-5.3-11.9-8.5-19.2-9.3-6.6-9.3-17.2-14.8-28.8-14.8zM897.5 1748.9c-6-49.5-48.2-87.9-99.4-87.9s-93.4 38.4-99.4 87.9h198.8z"/><circle fill="#2A333C" cx="790.1" cy="1678.3" r="8.8"/><path fill="#2A333C" d="M749.3 1718.2c0 4.9-3.9 8.8-8.8 8.8s-8.8-3.9-8.8-8.8 3.9-8.8 8.8-8.8 8.8 3.9 8.8 8.8zM810.6 1728.9c0 3.5-2.9 6.4-6.4 6.4-3.5 0-6.4-2.9-6.4-6.4 0-3.5 2.9-6.4 6.4-6.4 3.5 0 6.4 2.8 6.4 6.4z"/><circle fill="#2A333C" cx="773.5" cy="1710.3" r="4.6"/><circle fill="#2A333C" cx="835.4" cy="1722.5" r="4.9"/><circle fill="#2A333C" cx="815.9" cy="1702.3" r="4.9"/><circle fill="#2A333C" cx="848.5" cy="1709.4" r="4.9"/><path fill="none" stroke="#F3816F" stroke-width="7" stroke-linecap="round" stroke-linejoin="round" stroke-miterlimit="10" d="M694.4 1770.6c-3.6 3.6-5.8 8.6-5.8 14.1 0 11 8.9 19.9 19.9 19.9h179.2c11 0 19.9-8.9 19.9-19.9 0-11-8.9-19.9-19.9-19.9h-84.8H819 714.8l34.9 22.4 83.1-21.2"/><path fill="#E5615B" d="M698.8 1817.1h198.8c0 11.7-9.5 32.4-21.2 32.4H719.9c-11.7 0-21.1-32.4-21.1-32.4z"/><path fill="#2A333C" d="M761.8 1818.5c0 9.6-7.8 17.3-17.3 17.3-9.6 0-17.3-7.8-17.3-17.3M815.9 1818.5c0 9.6-7.8 17.3-17.3 17.3-9.6 0-17.3-7.8-17.3-17.3M870.1 1818.5c0 9.6-7.8 17.3-17.3 17.3-9.6 0-17.3-7.8-17.3-17.3"/><path fill="none" stroke="#E5615B" stroke-width="6.907" stroke-linecap="round" stroke-miterlimit="10" d="M646.4 1854.9h461.8"/><path fill="#AD5251" d="M3447 1447c-5.5-50.8-48.5-90.4-100.8-90.4s-95.5 39.5-100.9 90.4c-.4 3.6-.6 7.3-.6 11.1 0 56.2 45.5 101.6 101.6 101.6 56.1 0 101.4-45.4 101.4-101.6-.1-3.8-.3-7.4-.7-11.1zm-145-11c0-24.4 19.7-44.2 44.2-44.2 24.4 0 44.2 19.7 44.2 44.2 0 3.8-.5 7.6-1.4 11.1.9 3.5 1.4 7.2 1.4 11.1 0 24.4-19.8 44.2-44.2 44.2-24.5 0-44.2-19.8-44.2-44.2 0-3.8.5-7.5 1.4-11.1-.9-3.5-1.4-7.3-1.4-11.1z"/><path fill="#E5615B" d="M3346.2 1334.5c-56.1 0-101.6 45.4-101.6 101.4 0 3.8.2 7.5.6 11.1 5.5 50.9 48.6 90.4 100.9 90.4 52.3 0 95.3-39.5 100.8-90.4.4-3.6.6-7.3.6-11.1.1-56-45.3-101.4-101.3-101.4zm42.7 112.6c-4.9 19-22.2 33.1-42.7 33.1-20.6 0-37.8-14.1-42.7-33.1-.9-3.5-1.4-7.3-1.4-11.1 0-24.4 19.7-44.2 44.2-44.2 24.4 0 44.2 19.7 44.2 44.2-.1 3.8-.6 7.6-1.6 11.1z"/><path fill="#AD5251" d="M3390.4 1436c0 3.8-.5 7.6-1.4 11.1-4.9-19-22.2-33.1-42.7-33.1-20.6 0-37.9 14.1-42.7 33.1-.9-3.5-1.4-7.3-1.4-11.1 0-24.4 19.7-44.2 44.2-44.2 24.2 0 44 19.7 44 44.2z"/><path fill="#E5615B" d="M3322.9 1567.8c0 6.2-5 11.3-11.3 11.3-6.2 0-11.3-5-11.3-11.3V1525c0-6.2 5-11.3 11.3-11.3 6.2 0 11.3 5 11.3 11.3v42.8z"/><path fill="#AD5251" d="M3346.1 1506.2c-13.9 0-27.2-4.4-38.3-12.8-2.8-2.1-3.3-6-1.2-8.8 2.1-2.8 6-3.3 8.8-1.2 8.9 6.7 19.5 10.3 30.7 10.3 11.6 0 22.5-3.8 31.5-10.9 2.7-2.1 6.7-1.7 8.8 1.1 2.1 2.7 1.7 6.7-1.1 8.8-11.2 8.9-24.8 13.5-39.2 13.5zM3298.4 1373.3c-1.9 0-3.7-.8-5-2.4-2.1-2.7-1.7-6.7 1.1-8.8 15.2-11.9 33.4-18.1 52.7-18.1 5.5 0 11.1.5 16.5 1.6 3.4.7 5.6 4 5 7.4-.7 3.4-4 5.6-7.4 5-4.6-.9-9.3-1.4-14.1-1.4-16.5 0-32 5.4-44.9 15.5-1.2.8-2.6 1.2-3.9 1.2zM3394.7 1372.4c-1.3 0-2.6-.4-3.8-1.3-3.6-2.8-7.6-5.2-11.7-7.2-3.1-1.5-4.4-5.3-2.9-8.4 1.5-3.1 5.3-4.4 8.4-2.9 4.8 2.4 9.4 5.2 13.7 8.4 2.8 2.1 3.3 6 1.2 8.8-1.1 1.8-3 2.6-4.9 2.6z"/><path fill="none" stroke="#2A333C" stroke-width="33" stroke-miterlimit="10" d="M3346.2 1275.5v184.7"/><path fill="none" stroke="#E5625B" stroke-width="8" stroke-miterlimit="10" d="M3346.2 1171.1v299.6"/><path fill="#2A333C" stroke="#E5625B" stroke-width="2.721" stroke-miterlimit="10" d="M3350.5 1166.7V1134c0-2.4-1.9-3.3-4.3-3.3s-4.3 1-4.3 3.3v32.7c1.3 0 2.7.2 4.2.2 1.6-.1 3.1-.2 4.4-.2z"/><path fill="#2A333C" d="M3355.5 1172.6v-2c0-5.2-4.2-3.8-9.4-3.8s-9.4-1.4-9.4 3.8v2h18.8z"/><path fill="none" stroke="#E5625B" stroke-width="2.721" stroke-miterlimit="10" d="M3355.5 1172.6v-2c0-5.2-4.2-3.8-9.4-3.8s-9.4-1.4-9.4 3.8v2h18.8zM3346.2 1130.6c1.1 0 2.1.2 2.9.7v-8.1c0-1.6-.9-4.8-2.9-4.8s-2.9 3.2-2.9 4.8v8.1c.8-.4 1.8-.7 2.9-.7zM3350.5 1136.2h-8.6M3350.5 1142.9h-8.6"/><path fill="#C05B5B" d="M3346.1 1251.9c7 0 12.6-5.7 12.6-12.6v-26.5h-25.3v26.5c.1 6.9 5.7 12.6 12.7 12.6zm12.7-51h-25.3v3.5h25.3v-3.5zm0-24.9c0-7-5.7-5.1-12.6-5.1s-12.6-1.9-12.6 5.1v15.1h25.3V1176zm0 18.1h-25.3v3.8h25.3v-3.8zm0 13.3h-25.3v2.5h25.3v-2.5zM3346.1 1251.9c-2.4 0-4.5-.7-6.4-1.8l3 19.4h7.1l3-19.5c-2 1.2-4.2 1.9-6.7 1.9zM3338.7 1240.4c0-4.2 15-4.2 15 0 0 4.1-3.4 7.5-7.5 7.5s-7.5-3.3-7.5-7.5z"/><path fill="#F3816F" d="M796.8 841.7h-68.7c-6.6 0-12 5.4-12 12s5.4 12 12 12h68.7v-24z"/><path fill="#C05B5B" d="M830.3 801.5h-21.9c-6.4 0-11.5 5.2-11.5 11.5v80.7c0 6.4 5.2 11.5 11.5 11.5h21.9V801.5z"/><path fill="none" stroke="#E5615B" stroke-width="2.59" stroke-miterlimit="10" d="M830.3 801.5h-21.9c-6.4 0-11.5 5.2-11.5 11.5v80.7c0 6.4 5.2 11.5 11.5 11.5h21.9V801.5z"/><path fill="#E5615B" d="M830.3 905.3h126.8c22.3 0 40.4-18.1 40.4-40.3v-23.1c0-22.3-18.1-40.3-40.4-40.3H830.3v103.7z"/><path fill="none" stroke="#E5615B" stroke-width="2.59" stroke-miterlimit="10" d="M830.3 905.3h126.8c22.3 0 40.4-18.1 40.4-40.3v-23.1c0-22.3-18.1-40.3-40.4-40.3H830.3v103.7z"/><g opacity=".2" fill="#2A333C"><path d="M856.4 841.1c-5.1 0-9.2-4.1-9.2-9.2s4.1-9.2 9.2-9.2h97.8c5.1 0 9.2 4.1 9.2 9.2s-4.1 9.2-9.2 9.2h-97.8zM856.4 885.4c-5.1 0-9.2-4.1-9.2-9.2s4.1-9.2 9.2-9.2h97.8c5.1 0 9.2 4.1 9.2 9.2s-4.1 9.2-9.2 9.2h-97.8z"/></g><path fill="#E5615B" d="M916.9 894.5c-3.2 0-5.7 2.6-5.7 5.7v1.4l-4.5 4.4s4.5 1.1 4.5 7.5v185.1c0 3.2 2.6 5.7 5.7 5.7 3.2 0 5.7-2.6 5.7-5.7V900.2c0-3.1-2.6-5.7-5.7-5.7zM947.5 902.5h-4c-.4-3.9-3.7-6.9-7.7-6.9-4.3 0-7.7 3.5-7.7 7.7V937c0 4.3 3.5 7.7 7.7 7.7 4.3 0 7.7-3.5 7.7-7.7v-24.7s.2-6.9 6.8-6.9l-2.8-2.9zM928.1 912.2c0 1.5-1.2 2.8-2.8 2.8-1.5 0-2.8-1.2-2.8-2.8v-12.6c0-1.5 1.2-2.8 2.8-2.8 1.5 0 2.8 1.2 2.8 2.8v12.6z"/><path fill="none" stroke="#2A333C" stroke-width="1.727" stroke-linecap="round" stroke-miterlimit="10" d="M913.9 1094.9V917M930.7 938.3v-30.5"/><path fill="none" stroke="#F3816F" stroke-width="6.669" stroke-miterlimit="10" d="M828.8 2584v-565.4M934.7 2563.4l-211.8-524.2M718.4 2561.5l220.9-520.4M566.7 2407.2l524.2-211.8M568.6 2190.8l520.4 221M628.9 2501.2l399.8-399.8M546.1 2301.3h565.4M628.9 2101.4l399.8 399.8M628.9 2101.4l399.8 399.8"/><circle fill="#2A333C" cx="828.8" cy="2301.3" r="31.6"/><circle fill="none" stroke="#E5615B" stroke-width="6.669" stroke-miterlimit="10" cx="828.8" cy="2301.3" r="96.3"/><path fill="none" stroke="#E5625B" stroke-width="17.15" stroke-miterlimit="10" d="M928.7 2455.1c-28.7 18.7-63 29.5-99.8 29.5-37.8 0-72.9-11.4-102.1-31"/><circle fill="none" stroke="#E5625B" stroke-width="8" stroke-miterlimit="10" cx="828.8" cy="2301.3" r="282.7"/><path fill="none" stroke="#E5625B" stroke-width="10" stroke-linecap="round" stroke-miterlimit="10" d="M283.2 1836.4v-168.7c0-55 45-100 100-100h172.9M1215.4 2668h-74.3c-40.9 0-96.4-39.2-123.4-87.1l-39.9-70.7c-27-47.9-71.3-126.3-98.3-174.2l-1.5-2.7c-27-47.9-71.8-48.2-99.5-.7l-1.4 2.4c-27.7 47.5-73 125.3-100.7 172.8l-43 73.7c-27.7 47.5-95.3 86.4-150.3 86.4h-99.9c-55 0-100-45-100-100v-478.5"/><path fill="#F3816F" d="M799.6 1993.8c2.7 13.7 14.7 24 29.2 24 14.4 0 26.5-10.3 29.2-24h-58.4z"/><path fill="#2A333C" d="M828.8 2013.5c-10.3 0-19.4-6.2-23.3-15.3h46.7c-4 9-13.1 15.3-23.4 15.3z"/><path fill="#F3816F" d="M934.7 2037c2.7 13.7 14.7 24 29.2 24 14.4 0 26.5-10.3 29.2-24h-58.4z"/><path fill="#2A333C" d="M963.9 2056.6c-10.3 0-19.4-6.2-23.3-15.3h46.7c-4 9.1-13.1 15.3-23.4 15.3z"/><path fill="#F3816F" d="M1028.7 2101.4c2.7 13.7 14.7 24 29.2 24 14.4 0 26.5-10.3 29.2-24h-58.4z"/><path fill="#2A333C" d="M1057.9 2121.1c-10.3 0-19.4-6.2-23.3-15.3h46.7c-4 9-13.1 15.3-23.4 15.3z"/><path fill="#F3816F" d="M1090.9 2193c2.7 13.7 14.7 24 29.2 24 14.4 0 26.5-10.3 29.2-24h-58.4z"/><path fill="#2A333C" d="M1120.1 2212.7c-10.3 0-19.4-6.2-23.3-15.3h46.7c-4 9.1-13.1 15.3-23.4 15.3z"/><path fill="#F3816F" d="M1111.5 2297c2.7 13.7 14.7 24 29.2 24 14.4 0 26.5-10.3 29.2-24h-58.4z"/><path fill="#2A333C" d="M1140.7 2316.6c-10.3 0-19.4-6.2-23.3-15.3h46.7c-4 9.1-13.1 15.3-23.4 15.3z"/><path fill="#F3816F" d="M1088.2 2407.2c2.7 13.7 14.7 24 29.2 24s26.5-10.3 29.2-24h-58.4z"/><path fill="#2A333C" d="M1117.3 2426.9c-10.3 0-19.4-6.2-23.3-15.3h46.7c-4 9-13.1 15.3-23.4 15.3z"/><path fill="#F3816F" d="M1028.7 2496.2c2.7 13.7 14.7 24 29.2 24 14.4 0 26.5-10.3 29.2-24h-58.4z"/><path fill="#2A333C" d="M1057.9 2515.8c-10.3 0-19.4-6.2-23.3-15.3h46.7c-4 9.1-13.1 15.3-23.4 15.3z"/><path fill="#F3816F" d="M928.7 2563.4c2.7 13.7 14.7 24 29.2 24 14.4 0 26.5-10.3 29.2-24h-58.4z"/><path fill="#2A333C" d="M957.8 2583.1c-10.3 0-19.4-6.2-23.3-15.3h46.7c-4 9.1-13.1 15.3-23.4 15.3z"/><path fill="#F3816F" d="M799.6 2584c2.7 13.7 14.7 24 29.2 24 14.4 0 26.5-10.3 29.2-24h-58.4z"/><path fill="#2A333C" d="M828.8 2603.7c-10.3 0-19.4-6.2-23.3-15.3h46.7c-4 9-13.1 15.3-23.4 15.3z"/><path fill="#F3816F" d="M660 2563.4c2.7 13.7 14.7 24 29.2 24 14.4 0 26.5-10.3 29.2-24H660z"/><path fill="#2A333C" d="M689.2 2583.1c-10.3 0-19.4-6.2-23.3-15.3h46.7c-4 9.1-13.1 15.3-23.4 15.3z"/><path fill="#F3816F" d="M568.6 2503.8c2.7 13.7 14.7 24 29.2 24 14.4 0 26.5-10.3 29.2-24h-58.4z"/><path fill="#2A333C" d="M597.8 2523.5c-10.3 0-19.4-6.2-23.3-15.3h46.7c-4 9.1-13.2 15.3-23.4 15.3z"/><path fill="#F3816F" d="M511.1 2407.2c2.7 13.7 14.7 24 29.2 24 14.4 0 26.5-10.3 29.2-24h-58.4z"/><path fill="#2A333C" d="M540.3 2426.9c-10.3 0-19.4-6.2-23.3-15.3h46.7c-4 9-13.1 15.3-23.4 15.3z"/><path fill="#F3816F" d="M487.8 2304.7c2.7 13.7 14.7 24 29.2 24 14.4 0 26.5-10.3 29.2-24h-58.4z"/><path fill="#2A333C" d="M516.9 2324.3c-10.3 0-19.4-6.2-23.3-15.3h46.7c-4 9.1-13.1 15.3-23.4 15.3z"/><path fill="#F3816F" d="M511.1 2193c2.7 13.7 14.7 24 29.2 24 14.4 0 26.5-10.3 29.2-24h-58.4z"/><path fill="#2A333C" d="M540.3 2212.7c-10.3 0-19.4-6.2-23.3-15.3h46.7c-4 9.1-13.1 15.3-23.4 15.3z"/><path fill="#F3816F" d="M568.6 2101.4c2.7 13.7 14.7 24 29.2 24 14.4 0 26.5-10.3 29.2-24h-58.4z"/><path fill="#2A333C" d="M597.8 2121.1c-10.3 0-19.4-6.2-23.3-15.3h46.7c-4 9-13.2 15.3-23.4 15.3z"/><path fill="#F3816F" d="M660 2037c2.7 13.7 14.7 24 29.2 24 14.4 0 26.5-10.3 29.2-24H660z"/><path fill="#2A333C" d="M689.2 2056.6c-10.3 0-19.4-6.2-23.3-15.3h46.7c-4 9.1-13.1 15.3-23.4 15.3z"/><path fill="none" stroke="#934444" stroke-width="6.907" stroke-linecap="round" stroke-miterlimit="10" d="M1832 1949.8h-371.5M2017.2 2168H1908M1728.6 1904h-186.8M1666.7 1975.2h-345M1398.5 2169.9h-37.2M1666.4 2169.9h-245.8M2006 2048.5h-137.3M2014.2 2092h-75.8"/><path fill="#E5615B" d="M2039.8 2069.5c0 14.6-11.9 26.5-26.5 26.5s-26.5-11.9-26.5-26.5 11.9-26.5 26.5-26.5 26.5 11.9 26.5 26.5z"/><path fill="none" stroke="#F3816F" stroke-width="15" stroke-miterlimit="10" d="M2101.6 2071.6c0 49.9-40.5 90.4-90.4 90.4-49.9 0-90.4-40.5-90.4-90.4 0-49.9 40.5-90.4 90.4-90.4 49.9 0 90.4 40.4 90.4 90.4zM1756.1 2071.6c0 49.9-40.5 90.4-90.4 90.4-49.9 0-90.4-40.5-90.4-90.4 0-49.9 40.5-90.4 90.4-90.4 50 0 90.4 40.4 90.4 90.4z"/><path fill="none" stroke="#E5615B" stroke-width="15" stroke-linecap="round" stroke-linejoin="round" stroke-miterlimit="10" d="M1945 1949.8h-197.7l-79.5 119.7H1814z"/><path fill="none" stroke="#E5615B" stroke-width="15" stroke-miterlimit="10" d="M2013.2 2069.5l-77.1-139s-10.2-19-2.2-30.2c8-11.2 10.6-20.4-13.9-20.4h-49M1814 2069.5l-85.4-162.5M1708.5 1904h69.3"/><path fill="none" stroke="#934444" stroke-width="6.907" stroke-linecap="round" stroke-miterlimit="10" d="M1917.8 2092h-31.7M1665.7 2048.5h-153.6"/><path fill="none" stroke="#934444" stroke-width="12.961" stroke-linecap="round" stroke-linejoin="round" stroke-miterlimit="10" d="M1665.7 2089.2h-83.9"/><path fill="none" stroke="#934444" stroke-width="6.907" stroke-linecap="round" stroke-miterlimit="10" d="M1561.2 2089.2h-31.7"/><path fill="none" stroke="#F3816F" stroke-width="12.961" stroke-linecap="round" stroke-linejoin="round" stroke-miterlimit="10" d="M1810.2 2096.1h-101.1"/><path fill="none" stroke="#E5615B" stroke-width="17.15" stroke-miterlimit="10" d="M1839.8 2069.5c0 15.8-12.8 28.7-28.7 28.7-15.8 0-28.7-12.8-28.7-28.7 0-15.8 12.8-28.7 28.7-28.7 15.9.1 28.7 12.9 28.7 28.7z"/><path fill="#E5615B" d="M1694.3 2069.5c0 14.6-11.9 26.5-26.5 26.5s-26.5-11.9-26.5-26.5 11.9-26.5 26.5-26.5 26.5 11.9 26.5 26.5z"/><path fill="#AD5251" d="M1982.7 2338c0 54.2-43.8 98-98 98-36 0-67.4-19.4-84.5-48.3-8.6-14.5-13.5-31.5-13.5-49.6 0-7.9.9-15.6 2.8-23 10.3-43 49.1-75 95.2-75 12.6 0 24.7 2.4 35.7 6.7 29.5 11.6 52 37 59.5 68.3 1.9 7.3 2.8 15 2.8 22.9z"/><path fill="#E5615B" d="M1933.9 2296.4c0 54.1-43.8 98-98 98-12.6 0-24.7-2.4-35.7-6.7-8.6-14.5-13.5-31.5-13.5-49.6 0-7.9.9-15.6 2.8-23 10.3-43 49.1-75 95.2-75 12.6 0 24.7 2.4 35.7 6.7 4.7 8.2 8.4 17.1 10.7 26.6 1.9 7.3 2.8 15 2.8 23z"/><path fill="#2A333C" d="M1993.3 2361.6c3.3 0 4.9 2.5 3.5 5.5l-109.7 244.6c-1.3 3-3.6 3-4.9 0l-109.7-244.6c-1.4-3 .2-5.5 3.5-5.5h217.3z"/><path fill="none" stroke="#E5615B" stroke-width="4.317" stroke-miterlimit="10" d="M1993.3 2361.6c3.3 0 4.9 2.5 3.5 5.5l-109.7 244.6c-1.3 3-3.6 3-4.9 0l-109.7-244.6c-1.4-3 .2-5.5 3.5-5.5h217.3z"/><path fill="#E5615B" d="M1967.7 2362.3l-23 23-23-23 .7-.7h-15.2l.7.7-23 23-23-23 .7-.7h-15.2l.7.7-23 23-23-23 .7-.7h-15.2l.7.7-12 12 4.3 9.6 14.7-14.7 23 23-23 23-1.1-1.1 11.3 25.1 12.9 12.9-4.9 4.9 4.3 9.6 7.5-7.5 23 23-16.3 16.3 4.3 9.6 19-18.9 23 23-23 23-12.3-12.3 11.9 26.5.4-.4 23 23-9.1 9.2 4.3 9.6 11.8-11.8 11.8 11.8 4.3-9.6-9.1-9.2 23.1-23 .4.4 11.9-26.5-12.3 12.3-23.1-23 23.1-23 18.9 18.9 4.3-9.6-16.3-16.3 23-23 7.5 7.5 4.3-9.6-4.9-4.9 12.8-12.8 11.3-25.2-1.1 1.1-23-23 23-23 14.7 14.7 4.3-9.6-12-12 .7-.7H1967l.7.7zm-53 7l23 23-23 23-23.1-23 23.1-23zm-7 53l-23 23-23-23 23-23 23 23zm-53-53l23 23-23 23-23-23 23-23zm-53 53l23-23 23 23-23 23-23-23zm30 30l23-23 23 23-23 23.1-23-23.1zm76 89.9l-23 23-23-23.1 23-23 23 23.1zm-23-36.9l-23-23 23-23 23 23-23 23zm30-30l-23.1-23.1 23.1-23 23 23-23 23.1zm53-53l-23 23-23-23 23-23 23 23z"/><path opacity=".2" fill="#1A1A1A" d="M1999.3 2361.6l-114.6 255.6 54.5-255.6z"/><path fill="#2A333C" stroke="#E5615B" stroke-width="4.317" stroke-miterlimit="10" d="M2465.2 2536.8c3.8 10.2-1.9 21.1-11.5 25.4-107 44.5-221.1 44.5-328.1 0-9.6-4.3-15.3-15.2-11.5-25.4 3.7-9.3 14.3-13.2 23.7-9.1 99.4 41.1 204.4 41.1 303.7 0 9.4-4.1 19.9-.2 23.7 9.1z"/><path fill="none" stroke="#F69131" stroke-width="2.59" stroke-linecap="round" stroke-linejoin="round" stroke-miterlimit="10" d="M2289.6 2576.2"/><path fill="#E5615B" d="M2421.1 2575.4c0 25.8-24.2 46.6-54 46.6H2205c-29.8 0-54-20.9-54-46.6 0-25.8 24.2-46.6 54-46.6h162.1c29.8-.1 54 20.8 54 46.6z"/><g fill="none" stroke="#E5615B" stroke-width="5.18" stroke-linecap="round" stroke-linejoin="round" stroke-miterlimit="10"><path d="M2444.6 2537c1.6-.6-1 .8.6.1M2420.4 2546.6c6-2.1 11.8-4.2 17.7-6.6"/></g><path fill="#2A333C" d="M2239.6 2532.9v37.2c0 4 3.3 7.3 7.3 7.3s7.3-3.3 7.3-7.3v-14.2c0-4 3.3-7.3 7.3-7.3s7.3 3.3 7.3 7.3v41.1c0 5.4 4.4 9.8 9.8 9.8s9.8-4.4 9.8-9.8v-31.2c0-3 2.5-5.5 5.5-5.5s5.5 2.5 5.5 5.5v25c0 3 2.5 5.5 5.5 5.5s5.5-2.5 5.5-5.5V2546.2c0-3 2.5-5.5 5.5-5.5s5.5 2.5 5.5 5.5v63.2c0 3 2.5 5.5 5.5 5.5s5.5-2.5 5.5-5.5V2533h-92.8z"/><path fill="none" stroke="#E5615B" stroke-width="1.727" stroke-linecap="round" stroke-miterlimit="10" d="M2325.3 2607.5v-61.4M2302.7 2589.2v-23.1M2272.2 2597.3v-39.7M2242.4 2569.2v-29"/><circle fill="#2A333C" cx="851.3" cy="1531.3" r="36.1"/><circle fill="none" stroke="#E5615B" stroke-width="5.18" stroke-linecap="round" stroke-miterlimit="10" cx="851.3" cy="1531.3" r="36.1"/><path fill="none" stroke="#E5615B" stroke-width="5.18" stroke-linecap="round" stroke-miterlimit="10" d="M851.3 1546.3v53.3"/><circle fill="#2A333C" cx="943.8" cy="1531.3" r="36.1"/><circle fill="none" stroke="#E5615B" stroke-width="5.18" stroke-linecap="round" stroke-miterlimit="10" cx="943.8" cy="1531.3" r="36.1"/><path fill="none" stroke="#E5615B" stroke-width="5.18" stroke-linecap="round" stroke-miterlimit="10" d="M943.8 1546.3v53.3"/><defs><path id="o" d="M2514.2 1552.2l-649.8 84.1-8.9-67.1-413.4 41.2v-179.6l-304.9 43-79.3-612.2 1366.4-146.2"/></defs><clipPath id="p"><use xlink:href="#o" overflow="visible"/></clipPath><g clip-path="url(#p)"><path fill="#C05B5B" d="M1268.1 2133.4h-14.3l-17.4-38.7h31.7z"/><path fill="#2A333C" stroke="#E5625B" stroke-width="3" stroke-linecap="round" stroke-linejoin="round" stroke-miterlimit="10" d="M1312.9 2142l-25.6-7.3v-24.5l28-2.5z"/><path fill="#C05B5B" d="M1510.9 2177.9c0 1.1-.9 2-2 2h-105c-1.1 0-2-.9-2-2v-51.5c0-1.1.9-2 2-2h59.2c1.1 0 2.7.6 3.5 1.4l42.9 39.7c.8.7 1.5 2.3 1.5 3.4v9zM1449 2133.4h14.4l17.3-38.7H1449z"/><path fill="#2A333C" stroke="#E5625B" stroke-width="3" stroke-linecap="round" stroke-linejoin="round" stroke-miterlimit="10" d="M1404.3 2142l25.5-7.3v-24.5l-27.9-2.5z"/><path fill="none" stroke="#2A333C" stroke-width="2" stroke-linecap="round" stroke-linejoin="round" stroke-miterlimit="10" d="M1252.6 2130.5s5.1-2.6 9.3 2.5M1243.5 2139.5s5.1-2.6 9.3 2.5M1234.5 2148.6s5.1-2.6 9.3 2.5"/><path fill="#C05B5B" d="M1723.3 2068.3h42.9v61.5h-42.9zM1860.7 2068.3h42.9v61.5h-42.9z"/><path fill="#2A333C" stroke="#E5625B" stroke-width="3" stroke-linecap="round" stroke-linejoin="round" stroke-miterlimit="10" d="M1691.6 1643.9l21.1 456.8 60.4 7.3 16-359.8s15.5 4.5 24.8 4.5 24.2-4.5 24.2-4.5l19 359.8 56.5-7.3 18.7-456.8h-240.7z"/><path fill="#C05B5B" d="M1989.7 1331.3c-12.5-29.2-75.2-54.3-119.4-70.9l.5-9.7h-113.7l.5 9.7c-44.2 16.6-107 41.7-119.4 70.9-29.2 68.5-22.7 358.1-22.7 358.1l45.8 7.3 12.7-285.9 10.4 325.2h23l94.1-24.4h25.1l94.8 24.4h22.3l10.4-325.2 12.7 284.9 45.8-7.3c-.2-.1 6.3-288.6-22.9-357.1z"/><defs><path id="q" d="M1989.7 1331.3c-12.5-29.2-75.2-54.3-119.4-70.9l.5-9.7h-113.7l.5 9.7c-44.2 16.6-107 41.7-119.4 70.9-29.7 69.6-22.3 376.5-22.7 358.1l45.8 7.3 12.7-285.9 10.4 325.2h23l94.1-24.4h25.1l94.8 24.4h22.3l10.4-325.2 12.7 284.9 45.8-7.3c-.2-.1 6.3-288.6-22.9-357.1z"/></defs><clipPath id="r"><use xlink:href="#q" overflow="visible"/></clipPath><g clip-path="url(#r)" fill="none" stroke="#2A333C" stroke-linecap="round" stroke-linejoin="round" stroke-miterlimit="10"><path stroke-width="2" d="M1512.3 1287.8h553.1M1512.3 1337.9h553.1M1512.3 1387.9h553.1M1512.3 1438h553.1M1512.3 1488h553.1M1512.3 1538.1h553.1M1512.3 1588.2h553.1M1512.3 1638.2h553.1M1512.3 1688.3h553.1"/><path stroke-width=".5" d="M1512.3 1251.2h553.1M1512.3 1301.2h553.1M1512.3 1351.3h553.1M1512.3 1401.3h553.1M1512.3 1451.4h553.1M1512.3 1501.5h553.1M1512.3 1551.5h553.1M1512.3 1601.6h553.1M1512.3 1651.6h553.1"/><path stroke-width="2" d="M1989.1 1211.5v553.1M1939 1211.5v553.1M1889 1211.5v553.1M1838.9 1211.5v553.1M1788.9 1211.5v553.1M1738.8 1211.5v553.1M1688.8 1211.5v553.1M1638.7 1211.5v553.1M1588.6 1211.5v553.1"/></g><path fill="#934444" d="M1877.7 1299.6c-.5 0-1-.1-1.4-.4l-63.7-42.4c-.7-.5-1.1-1.2-1.1-2.1v-4c0-1.4 1.1-2.5 2.5-2.5h56.8c1.2 0 2.3.9 2.5 2.1l6.9 46.4c.1 1-.3 1.9-1.1 2.5-.5.3-.9.4-1.4.4zM1870.8 1250.7l6.9 46.4-63.7-42.4v-4h56.8m0-5H1814c-2.8 0-5 2.2-5 5v4c0 1.7.8 3.2 2.2 4.2l63.7 42.4c.8.6 1.8.8 2.8.8.9 0 1.9-.3 2.7-.8 1.7-1.1 2.6-3 2.3-5l-6.9-46.4c-.5-2.4-2.6-4.2-5-4.2zM1750.2 1299.6c-.5 0-.9-.1-1.3-.4-.8-.5-1.3-1.5-1.1-2.5l6.9-46.4c.2-1.2 1.2-2.1 2.5-2.1h56.8c1.4 0 2.5 1.1 2.5 2.5v3.9c0 .8-.4 1.6-1.1 2.1l-63.7 42.5c-.5.3-1 .4-1.5.4zM1813.9 1250.7v3.9l-63.7 42.5 6.9-46.4h56.8m0-5h-56.8c-2.5 0-4.6 1.8-4.9 4.3l-6.9 46.4c-.3 2 .6 3.9 2.3 5 .8.5 1.7.8 2.7.8 1 0 1.9-.3 2.8-.8l63.7-42.5c1.4-.9 2.2-2.5 2.2-4.2v-3.9c-.1-2.9-2.3-5.1-5.1-5.1zM1805.8 1279.3h16.4v433.6h-16.4z"/><path fill="#2A333C" d="M1819.2 1310.1c0 2.7-2.2 4.9-4.9 4.9s-4.9-2.2-4.9-4.9 2.2-4.9 4.9-4.9 4.9 2.2 4.9 4.9zM1819.2 1360.2c0 2.7-2.2 4.9-4.9 4.9s-4.9-2.2-4.9-4.9 2.2-4.9 4.9-4.9 4.9 2.2 4.9 4.9zM1819.2 1410.2c0 2.7-2.2 4.9-4.9 4.9s-4.9-2.2-4.9-4.9 2.2-4.9 4.9-4.9c2.7.1 4.9 2.2 4.9 4.9zM1819.2 1460.3c0 2.7-2.2 4.9-4.9 4.9s-4.9-2.2-4.9-4.9 2.2-4.9 4.9-4.9 4.9 2.2 4.9 4.9zM1819.2 1510.3c0 2.7-2.2 4.9-4.9 4.9s-4.9-2.2-4.9-4.9 2.2-4.9 4.9-4.9c2.7.1 4.9 2.3 4.9 4.9zM1819.2 1560.4c0 2.7-2.2 4.9-4.9 4.9s-4.9-2.2-4.9-4.9 2.2-4.9 4.9-4.9 4.9 2.2 4.9 4.9zM1819.2 1610.5c0 2.7-2.2 4.9-4.9 4.9s-4.9-2.2-4.9-4.9 2.2-4.9 4.9-4.9 4.9 2.2 4.9 4.9zM1819.2 1660.5c0 2.7-2.2 4.9-4.9 4.9s-4.9-2.2-4.9-4.9 2.2-4.9 4.9-4.9 4.9 2.2 4.9 4.9z"/><path fill="#C05B5B" d="M1814.3 989.3c-42.4 0-76.2 34.4-76.2 76.8v130.3c0 42.4 33.8 76.8 76.2 76.8 42.4 0 76.2-34.4 76.2-76.8v-130.3c0-42.4-33.8-76.8-76.2-76.8z"/><path fill="#F9C0B4" d="M1748.5 1141.5v28.1c0 10.9 8.8 19.7 19.7 19.7 10.8 0 19.6-8.8 19.7-19.6l14.2.1 12.5 12.5 11.6-12.6h14c0 10.9 8.8 19.7 19.7 19.7 10.9 0 19.7-8.8 19.7-19.7V1054c-46 81.9-131.1 87.5-131.1 87.5z"/><path fill="#2A333C" d="M1834.1 1216.3c0 4.3-3.5 7.7-7.7 7.7h-24.7c-4.3 0-7.7-3.5-7.7-7.7 0-4.3 3.5-7.7 7.7-7.7h24.7c4.2 0 7.7 3.5 7.7 7.7z"/><path fill="#2A333C" stroke="#2A333C" stroke-width=".489" stroke-miterlimit="10" d="M1866.1 1120c0 4.4-3.5 7.9-7.9 7.9s-7.9-3.5-7.9-7.9c0-4.3 3.5-7.9 7.9-7.9 4.3 0 7.9 3.6 7.9 7.9z"/><g fill="#C05B5B"><path d="M1856.3 1413.4v52.8l33.2 20.9 33.2-20.9v-52.8zM1856.3 1401.9h66.4v11.5h-66.4z"/></g><circle fill="#2A333C" cx="1889.5" cy="1432.6" r="4.9"/><path fill="#F9C0B4" d="M1625.7 1698.7c1.4 39.7 11.8 58.7 31.9 60.6v-54.8l-31.9-5.8zM2004.9 1698.7c-1.4 39.7-11.8 58.7-31.9 60.6v-54.8l31.9-5.8z"/><path fill="#2A333C" d="M1657.6 2177.9c0 1.1.9 2 2 2h105c1.1 0 2-.9 2-2v-51.5c0-1.1-.9-2-2-2h-59.2c-1.1 0-2.7.6-3.5 1.4l-42.9 39.7c-.8.7-1.5 2.3-1.5 3.4v9z"/><path fill="none" stroke="#E5625B" stroke-width="4" stroke-linecap="round" stroke-linejoin="round" stroke-miterlimit="10" d="M1657.6 2177.9c0 1.1.9 2 2 2h105c1.1 0 2-.9 2-2v-51.5c0-1.1-.9-2-2-2h-59.2c-1.1 0-2.7.6-3.5 1.4l-42.9 39.7c-.8.7-1.5 2.3-1.5 3.4v9z"/><path fill="none" stroke="#E5625B" stroke-width="2" stroke-linecap="round" stroke-linejoin="round" stroke-miterlimit="10" d="M1703.9 2130.5s5.1-2.6 9.3 2.5M1694.9 2139.5s5.1-2.6 9.3 2.5M1685.8 2148.6s5.1-2.6 9.3 2.5"/><path fill="#2A333C" d="M1969.7 2177.9c0 1.1-.9 2-2 2h-105c-1.1 0-2-.9-2-2v-51.5c0-1.1.9-2 2-2h59.2c1.1 0 2.7.6 3.5 1.4l42.9 39.7c.8.7 1.5 2.3 1.5 3.4v9z"/><path fill="none" stroke="#E5625B" stroke-width="4" stroke-linecap="round" stroke-linejoin="round" stroke-miterlimit="10" d="M1969.7 2177.9c0 1.1-.9 2-2 2h-105c-1.1 0-2-.9-2-2v-51.5c0-1.1.9-2 2-2h59.2c1.1 0 2.7.6 3.5 1.4l42.9 39.7c.8.7 1.5 2.3 1.5 3.4v9z"/><path fill="none" stroke="#E5625B" stroke-width="2" stroke-linecap="round" stroke-linejoin="round" stroke-miterlimit="10" d="M1923.4 2130.5s-5.1-2.6-9.3 2.5M1932.5 2139.5s-5.1-2.6-9.3 2.5M1941.5 2148.6s-5.1-2.6-9.3 2.5"/><path fill="none" stroke="#2A333C" stroke-width="2" stroke-linecap="round" stroke-linejoin="round" stroke-miterlimit="10" d="M1465.7 2130.5s-5.1-2.6-9.3 2.5M1474.7 2139.5s-5.1-2.6-9.3 2.5M1483.8 2148.6s-5.1-2.6-9.3 2.5"/><path fill="#AA5050" d="M1445 1402l-176.7 37.6v-44.9l176.7-37.6z"/><text transform="matrix(1 -.213 0 1 1287.714 1431.453)" fill="#2A333C" font-family="'OpenSans-Extrabold'" font-size="48.775">F#CK!</text></g><path fill="#E5615B" d="M1864.4 1752.6l-561.2 75.3v-196.7l561.2-75.3zM2232.5 1781.3l-464.6 62.6v-196.7l464.6-62.6z"/><path fill="#2A333C" stroke="#E5625B" stroke-width="5.107" stroke-miterlimit="10" d="M2613.4 1731.4l-409.6 54v-196.7l409.6-54zM1442.1 1607.4l-356.1 51v-175.5l356.1-51.1z"/><text transform="matrix(1 -.135 0 1 1830.738 1793.597)" fill="#2A333C" font-family="'Montserrat-Regular'" font-size="126" letter-spacing="-2">FOLK</text><path fill="none" stroke="#2A333C" stroke-width="3" stroke-miterlimit="10" d="M1864.4 1555.9l-96.5 91.3"/><text transform="matrix(1 -.135 0 1 1345.896 1781.999)" fill="#2A333C" font-family="'Montserrat-Regular'" font-size="126" letter-spacing="-2">INDIE</text><path fill="#934444" d="M1864.4 1555.9l-96.5 91.3 96.5-15.2z"/><text transform="matrix(1.009 -.122 0 1 1120.103 1612.081)" fill="#E5615B" font-family="'Montserrat-Regular'" font-size="126" letter-spacing="-2">2014</text><text transform="matrix(1.009 -.122 0 1 2256.315 1729.614)" fill="#E5615B" font-family="'Montserrat-Regular'" font-size="126" letter-spacing="-2">FEST</text><path fill="#2A333C" d="M2601.6 1536.1l-833.7 112.7 13.7-14.9 2.7-2.2 817.3-110.4z" opacity=".2"/><path fill="#F9C0B4" d="M1860.3 512.5l8.6 15.8 15.8 8.6-15.8 8.7-8.6 15.8-8.6-15.8-15.8-8.7 15.8-8.6zM1962.6 430.1l4.8 8.9 8.9 4.8-8.9 4.8-4.8 8.9-4.9-8.9-8.8-4.8 8.8-4.8zM2127.6 617.7l3.8 7 7.1 3.9-7.1 3.8-3.8 7-3.8-7-7.1-3.8 7.1-3.9zM2187.3 427.8l3.9 7.1 7 3.8-7 3.8-3.9 7.1-3.8-7.1-7-3.8 7-3.8z"/><path fill="#E5615B" stroke="#E5615B" stroke-width="1.308" stroke-linecap="round" stroke-linejoin="round" stroke-miterlimit="10" d="M154.8 1811.6l41 12.8-41 12.7M388.7 1811.6l41 12.8-41 12.7"/><g fill="none" stroke="#E5615B" stroke-width="8" stroke-linecap="round" stroke-miterlimit="10"><path d="M169.4 1930.4v-18c0-3.4 2.8-6.2 6.2-6.2h54.7M169.4 2023.6v-64M311 1906.2h65.1c3.4 0 6.2 2.8 6.2 6.2v18.6"/></g><path fill="none" stroke="#E5615B" stroke-width="8" stroke-linecap="round" stroke-miterlimit="10" d="M213.2 1933.7l43.6-43.6c2.4-2.4 7.2-4.4 10.6-4.4h17c3.4 0 8.2 2 10.6 4.4l16 16"/><g fill="none" stroke="#E5615B" stroke-width="8" stroke-linecap="round" stroke-miterlimit="10"><path d="M322 1945.1h54.1c3.4 0 6.2 2.8 6.2 6.2v73.1c0 3.4-2.8 6.2-6.2 6.2h-57.3M333.2 1945.1h42.9c3.4 0 6.2 2.8 6.2 6.2v73.1c0 3.4-2.8 6.2-6.2 6.2h-42.4"/></g><path fill="none" stroke="#E5615B" stroke-width="8" stroke-linecap="round" stroke-miterlimit="10" d="M169.4 1945.1h52.3"/><g fill="none" stroke="#E5615B" stroke-width="8" stroke-linecap="round" stroke-miterlimit="10"><path d="M318.8 2030.6c-21.4 23.7-58 25.6-81.7 4.1-23.7-21.4-25.6-58-4.1-81.7 21.4-23.7 58-25.6 81.7-4.1 12.5 11.3 18.9 26.7 19.1 42.3M318.8 2030.6c-21.4 23.7-58 25.6-81.7 4.1-23.7-21.4-25.6-58-4.1-81.7 21.4-23.7 58-25.6 81.7-4.1 12.5 11.3 18.9 26.7 19.1 42.3"/></g><path fill="none" stroke="#E5615B" stroke-width="8" stroke-linecap="round" stroke-miterlimit="10" d="M260.4 1875.5h31M313.4 1991.8c0 20.7-16.8 37.4-37.4 37.4-20.7 0-37.4-16.8-37.4-37.4 0-20.7 16.8-37.4 37.4-37.4M179.1 1838.2v67.9M366 1838.2v67.9"/><path fill-rule="evenodd" clip-rule="evenodd" fill="#2A333C" stroke="#E5615B" stroke-width="4.317" stroke-miterlimit="10" d="M3101.6 1115.3v-21.7l21.1-30.1v-46.2c.7 0 1.4-.1 1.9-.3l1.6 48.2 56.3 28.4v21.7h-80.9zm100.5 160.6v186.7h3.4v9.9h-76.6v-9.9h-32.1v-262.1h105.3v75.4zm-100.5-85.2v-66.5H3189.4v66.5h-87.8zm-18.6 9.7v262.1h-85.8V1286l85.8-85.6z"/><path fill-rule="evenodd" clip-rule="evenodd" fill="#2A333C" d="M2997.2 1462.6h85.8v-262.1l-85.8 85.6v176.5zm204.9-271.9v9.7h-105.3v262.1h32.1v9.9h-171v-9.9h3.1V1286l95.1-95.3v-75.3h6.9v-21.7l56-28.4 1.5-48.1c-.5-.4-1-.8-1.5-1.3-1-.9-1.5-2.1-1.5-3.5s.5-2.6 1.5-3.6c.9-.9 2.1-1.4 3.5-1.4 1.3 0 2.6.4 3.6 1.4.9 1.1 1.3 2.3 1.3 3.6 0 1.4-.5 2.6-1.3 3.5-.5.5-1.1.9-1.6 1.2-.5.2-1.2.3-1.9.3v46.2l-21.1 30.1v21.7H3189.3v8.9H3101.5v66.5h100.6z"/><path fill="none" stroke="#E5615B" stroke-width="5.18" stroke-linecap="round" stroke-miterlimit="10" d="M2997.2 1462.6h85.8v-262.1l-85.8 85.6v176.5zm204.9-271.9v9.7h-105.3v262.1h32.1v9.9h-171v-9.9h3.1V1286l95.1-95.3v-75.3h6.9v-21.7l56-28.4 1.5-48.1c-.5-.4-1-.8-1.5-1.3-1-.9-1.5-2.1-1.5-3.5s.5-2.6 1.5-3.6c.9-.9 2.1-1.4 3.5-1.4 1.3 0 2.6.4 3.6 1.4.9 1.1 1.3 2.3 1.3 3.6 0 1.4-.5 2.6-1.3 3.5-.5.5-1.1.9-1.6 1.2-.5.2-1.2.3-1.9.3v46.2l-21.1 30.1v21.7H3189.3v8.9H3101.5v66.5h100.6z"/><path fill-rule="evenodd" clip-rule="evenodd" fill="#F3816F" d="M3106.9 1247.7h12.8v18.4h-12.8zM3125.3 1247.7h12.8v18.2h-12.8zM3161.6 1247.7h13v18.2h-13zM3180 1247.7h12.8v18.2H3180zM3106.9 1286h12.8v18.4h-12.8zM3125.3 1285.9h12.8v18.4h-12.8zM3161.6 1285.9h13v18.4h-13zM3180 1285.9h12.8v18.4H3180zM3106.9 1324.3h12.8v18.4h-12.8zM3125.3 1324.3h12.8v18.2h-12.8zM3161.6 1324.3h13v18.2h-13zM3180 1324.3h12.8v18.2H3180zM3106.9 1362.6h12.8v18.4h-12.8zM3125.3 1362.5h12.8v18.4h-12.8zM3161.6 1362.5h13v18.4h-13zM3180 1362.5h12.8v18.4H3180zM3106.9 1400.8h12.8v18.4h-12.8zM3125.3 1400.8h12.8v18.2h-12.8zM3161.6 1400.8h13v18.2h-13zM3180 1400.8h12.8v18.2H3180zM3106.9 1457.6l21.2-.2v-18.3l-21.2.1zM3131.5 1439.1h36.9v31.9h-36.9zM3171.7 1439.2v18.4l21.1-.2v-18.3zM3005.2 1292.3h13.6v19.2h-13.6zM3024.5 1292.1h13.4v19.3h-13.4zM3062 1292h13.5v19.3H3062zM3005.2 1325.6h13.5v19.2h-13.5zM3024.4 1325.5h13.4v19.2h-13.4zM3062.3 1325.5h13.4v19.2h-13.4zM3005.2 1358.6h13.5v19.2h-13.5zM3024.4 1358.4h13.4v19.2h-13.4zM3062.3 1358.4h13.4v19.2h-13.4zM3005.2 1391.4h13.5v19.3h-13.5zM3024.4 1391.4h13.4v19.2h-13.4zM3062.3 1391.4h13.4v19h-13.4zM3005.2 1424.3h13.5v19.3h-13.5zM3024.4 1424.2h13.4v19.3h-13.4zM3062.3 1424.2h13.4v19.2h-13.4zM3062.3 1259.2h13.4v19.2h-13.4z"/><path fill-rule="evenodd" clip-rule="evenodd" fill="#F07722" d="M2970.6 1443h13.4v27.6h-13.4z"/><path fill-rule="evenodd" clip-rule="evenodd" fill="#F3816F" d="M3145.5 1209.3h7.7v209.9h-7.7zM3046.4 1259.7h7.7v183.9h-7.7z"/><path fill-rule="evenodd" clip-rule="evenodd" fill="#934444" d="M2827.1 1473.6V1295h8.7v-16.7h34.8v16.7h-5.6v178.6h-37.9zm22.5-170.1h-11.2c-.1 0-.1.1-.1.2v17.5c0 .2 0 .3.1.3h11.2c.1 0 .2-.1.2-.3v-17.5c0-.1-.1-.2-.2-.2zm0 28.2h-11.2c-.1 0-.1 0-.1.1v17.6c0 .1 0 .1.1.1h11.2c.1 0 .2-.1.2-.2v-17.5s-.1-.1-.2-.1z"/><path fill-rule="evenodd" clip-rule="evenodd" fill="#F3816F" d="M2849.8 1321.2c0 .2-.1.3-.2.3h-11.2c-.1 0-.1-.1-.1-.3v-17.5c0-.1 0-.2.1-.2h11.2c.1 0 .2.1.2.2v17.5zm22.3.4c-.2 0-.2-.1-.2-.3v-17.5c0-.1.1-.2.2-.2.2-.1.6-.1 1.2-.1h77.7c1.3.1 1.9.2 1.9.3v17.5c0 .1-.6.3-1.9.3h-78.9zm0 28c-.2 0-.2 0-.2-.1v-17.6c0-.1.1-.1.2-.1.2-.2.6-.2 1.2-.2h77.7c1.3.1 1.9.2 1.9.3v17.5c0 .1-.3.2-.9.2h-79.9zm-22.3-.3c0 .2-.1.2-.2.2h-11.2c-.1 0-.1 0-.1-.1v-17.6c0-.1 0-.1.1-.1h11.2c.1 0 .2 0 .2.1v17.5zm38.4 27.6c-.1.1-.2.1-.3.1h-15.7c-.2 0-.2-.1-.2-.2v-17.6c0-.2.1-.2.2-.2h79.7c.6 0 .9.1 1.1.2v17.4c0 .1-.6.3-1.9.3h-62.9zm-16.1 28.2c-.2 0-.2-.1-.2-.2v-17.5c0-.2.1-.2.2-.2.2-.1.6-.1 1.2-.1h77.7c1.3.1 1.9.2 1.9.3v17.4c0 .1-.6.3-1.9.3h-78.9zm16.1 27.2c-.1.2-.2.2-.3.2h-15.7c-.2 0-.2-.1-.2-.3v-17.6c0-.1.1-.2.2-.2h79c1.2.1 1.8.1 1.8.2v17.5c0 .1-.3.2-.9.2h-63.9zm-15.9 8.2h37.8v18.2h-37.8c-.3 0-.4-.1-.4-.3v-17.5c0-.3.2-.4.4-.4zm80.7.3v17.5c0 .2-.7.3-2.1.3h-14.2v-18.2h15.8c.3.1.5.2.5.4z"/><path fill-rule="evenodd" clip-rule="evenodd" fill="#2A333C" d="M2864.9 1441V1294.9h5.6v-16.7h72.5v16.7h16.3v178.6h-94.4V1441zm87.5-119.4c.4 0 .6-.1.6-.3v-17.5c0-.2-.2-.3-.6-.3H2873.3c-.6 0-1 0-1.2.1-.2 0-.2.1-.2.2v17.5c0 .2.1.3.2.3H2952.4zm-79 9.9c-.6 0-1 .1-1.2.2-.2 0-.2 0-.2.1v17.6c0 .1.1.1.2.1h80.2c.4 0 .6-.1.6-.2v-17.5c0-.2-.2-.3-.6-.3h-79zm-1.3 27.4c-.2 0-.2.1-.2.2v17.6c0 .2.1.2.2.2h15.7c.2 0 .3 0 .3-.1h64.3c.4 0 .6-.1.6-.3v-17.4c-.1-.2-.3-.2-.6-.2h-80.3zm1.3 28.2c-.6 0-1 0-1.2.1-.2 0-.2.1-.2.2v17.5c0 .2.1.2.2.2H2952.5c.4 0 .6-.1.6-.3v-17.4c0-.2-.2-.3-.6-.3H2873.4zm-1.3 27.3c-.2 0-.2.1-.2.2v17.6c0 .2.1.3.2.3h15.7c.2 0 .3-.1.3-.2h64.2c.4 0 .6-.1.6-.2v-17.5c0-.1-.2-.2-.6-.2h-80.2zm0 44.3h38v-18.2h-38c-.1 0-.2.1-.2.3v17.5c0 .2.1.4.2.4zm64.5-18.2v18.2h14.2c1.4 0 2.1-.1 2.1-.3v-17.5c0-.2-.2-.3-.6-.3h-15.7z"/><path fill="none" stroke="#E5615B" stroke-width="5.18" stroke-linecap="round" stroke-miterlimit="10" d="M2864.9 1441V1294.9h5.6v-16.7h72.5v16.7h16.3v178.6h-94.4V1441zm87.5-119.4c.4 0 .6-.1.6-.3v-17.5c0-.2-.2-.3-.6-.3H2873.3c-.6 0-1 0-1.2.1-.2 0-.2.1-.2.2v17.5c0 .2.1.3.2.3H2952.4zm-79 9.9c-.6 0-1 .1-1.2.2-.2 0-.2 0-.2.1v17.6c0 .1.1.1.2.1h80.2c.4 0 .6-.1.6-.2v-17.5c0-.2-.2-.3-.6-.3h-79zm-1.3 27.4c-.2 0-.2.1-.2.2v17.6c0 .2.1.2.2.2h15.7c.2 0 .3 0 .3-.1h64.3c.4 0 .6-.1.6-.3v-17.4c-.1-.2-.3-.2-.6-.2h-80.3zm1.3 28.2c-.6 0-1 0-1.2.1-.2 0-.2.1-.2.2v17.5c0 .2.1.2.2.2H2952.5c.4 0 .6-.1.6-.3v-17.4c0-.2-.2-.3-.6-.3H2873.4zm-1.3 27.3c-.2 0-.2.1-.2.2v17.6c0 .2.1.3.2.3h15.7c.2 0 .3-.1.3-.2h64.2c.4 0 .6-.1.6-.2v-17.5c0-.1-.2-.2-.6-.2h-80.2zm0 44.3h38v-18.2h-38c-.1 0-.2.1-.2.3v17.5c0 .2.1.4.2.4zm64.5-18.2v18.2h14.2c1.4 0 2.1-.1 2.1-.3v-17.5c0-.2-.2-.3-.6-.3h-15.7z"/><path fill-rule="evenodd" clip-rule="evenodd" fill="#F3816F" d="M2915.5 1440.5c-.1 0-.2.2-.2.5v28.7c0 .3.1.4.2.4h15.5c.3 0 .5-.2.5-.4V1441c0-.3-.1-.5-.5-.5h-15.5z"/></g></svg>