<svg xmlns="http://www.w3.org/2000/svg"  style="display:none;">
	<style type="text/css">
		* { color: #E6615B; }
	</style>
	<symbol id="indie-main-logo" viewBox="0 0 1296.2 294.9">
		<polyline fill="none" style="stroke:currentColor;" stroke-width="6" stroke-miterlimit="10" points="883.6,232.7 447.6,291.5 447.6,94.8 883.6,36 883.6,98.3 "/>
		<polygon fill="none" style="stroke:currentColor;" stroke-width="6" stroke-miterlimit="10" points="447.6,94.8 544.1,81.8 544.1,3.4 3,78.8 3,275.5 447.6,213.1 "/>
		<polygon fill="none" style="stroke:currentColor;" stroke-width="6" stroke-miterlimit="10" points="1293.2,237.1 883.6,291.1 883.6,94.4 1293.2,40.4 "/>
		<g>
			<g>
				<path style="fill:currentColor;" d="M527,152.7v25.5l40.1-5.4V186l-40.1,5.4v36.2l-14.9,2v-88.2l59.2-8l-0.1,13.4L527,152.7z"/>
				<path style="fill:currentColor;" d="M668.2,164.4c0,25.2-20.4,47.5-46.7,51c-26.3,3.5-46.7-13.2-46.7-38.4c0-25.3,20.4-47.2,46.7-50.8C647.8,122.7,668.2,139.2,668.2,164.4z M589.8,175c0,17.5,14.5,29.4,31.8,27.1S653,184,653,166.5s-14.1-29.2-31.4-26.9C604.2,141.9,589.8,157.5,589.8,175z"/>
				<path style="fill:currentColor;" d="M734.6,186.1v13.5l-53,7.1v-88.2l14.9-2v74.7L734.6,186.1z"/>
				<path style="fill:currentColor;" d="M776.2,155.1l-15,18.5V196l-14.9,2v-88.2l14.9-2v45.6l42.1-51.3l17.5-2.4l-34.1,42.3l36.4,45.6l-17.9,2.4L776.2,155.1z"/>
			</g>
		</g>
		<line fill="none" style="stroke:currentColor;" stroke-width="6" stroke-miterlimit="10" x1="544.1" y1="3.4" x2="447.6" y2="94.8"/>
		<g>
			<path style="fill:currentColor;" d="M66.2,210v-88.2l14.9-2V208L66.2,210z"/>
			<path style="fill:currentColor;" d="M163.6,196.9l-47-56.9v63.3l-14.9,2V117l14.6-2l47.2,57v-63.4l14.6-2v88.2L163.6,196.9z"/>
			<path style="fill:currentColor;" d="M235.2,99c26.5-3.6,45.6,12.4,45.6,38c0,25.5-19.3,46.7-46,50.3l-35.8,4.8v-88.2L235.2,99z M213.9,176.7l21.7-2.9c17.1-2.3,30.2-16.8,30.2-34.7c0-18-13.5-29.1-30.9-26.7l-21,2.8V176.7z"/>
			<path style="fill:currentColor;" d="M294.2,179.3V91.1l14.9-2v88.2L294.2,179.3z"/>
			<path style="fill:currentColor;" d="M344.6,97.6v23.8l43.1-5.8V129l-43.1,5.8v24.3l49.6-6.7v13.4l-64.5,8.7V86.3l63-8.5v13.4L344.6,97.6z"/>
		</g>
		<line fill="none" style="stroke:currentColor;" stroke-width="6" stroke-miterlimit="10" x1="544.1" y1="79.6" x2="544.1" y2="3.4"/>
		<path fill="none" style="stroke:currentColor;" stroke-width="6" stroke-miterlimit="10" d="M447.6,94.8"/>
		<g>
			<g>
				<path style="fill:currentColor;" d="M963.8,154.2v25.5l40.4-4.9V188l-40.4,4.9V229l-15,1.8v-88.2l59.8-7.2l-0.1,13.4L963.8,154.2z"/>
				<path style="fill:currentColor;" d="M1034.3,145.7v23.8l43.5-5.2v13.4l-43.5,5.2v24.3l50.1-6v13.4l-65.1,7.9v-88.2l63.6-7.7v13.4L1034.3,145.7z"/>
				<path style="fill:currentColor;" d="M1160.6,125.5l-6.2,13.9c-9.7-4.6-19.3-5.9-26.1-5c-8.8,1.1-14.5,5-14.5,10.9c0,19.3,48.1,3.1,47.9,34.9c0,15.8-14,27.1-33.6,29.5c-14,1.7-27.2-2.4-36.4-9.6l6.5-13.6c9.2,7.2,20.6,10.4,30.1,9.2c10.4-1.3,16.7-5.9,16.7-12.7c0-19.7-48.1-2.9-48.1-34.3c0-15.1,13.1-26.2,32.4-28.5C1141,118.8,1152.3,121.1,1160.6,125.5z"/>
				<path style="fill:currentColor;" d="M1209.3,124.6v74.8l-15,1.8v-74.8l-28.1,3.4v-13.4l71.3-8.6v13.4L1209.3,124.6z"/>
			</g>
		</g>
	</symbol>
</svg>