<?xml version="1.0" encoding="utf-8"?>
<!-- Generator: Adobe Illustrator 16.0.0, SVG Export Plug-In . SVG Version: 6.00 Build 0)  -->
<!DOCTYPE svg PUBLIC "-//W3C//DTD SVG 1.1//EN" "http://www.w3.org/Graphics/SVG/1.1/DTD/svg11.dtd">
<svg version="1.1" id="Gray_with_tag" xmlns="http://www.w3.org/2000/svg" xmlns:xlink="http://www.w3.org/1999/xlink" x="0px"
	 y="0px" width="424.8px" height="108px" viewBox="0 0 424.8 108" enable-background="new 0 0 424.8 108" xml:space="preserve">
<polygon fill="#FFFFFF" points="214.053,91.171 217.771,91.171 217.771,81.985 214.053,81.985 214.053,80.705 223.292,80.705 
	223.292,81.985 219.559,81.985 219.559,91.171 223.292,91.171 223.292,92.468 214.053,92.468 "/>
<polygon fill="#FFFFFF" points="227.813,80.705 230.559,80.705 240.494,91.256 240.494,80.705 242.2,80.705 242.2,92.465 
	239.455,92.465 229.517,81.919 229.517,92.465 227.813,92.465 "/>
<polygon fill="#FFFFFF" points="252.705,82.156 246.349,82.156 246.349,80.705 260.854,80.705 260.854,82.156 254.496,82.156 
	254.496,92.468 252.705,92.468 "/>
<polygon fill="#FFFFFF" points="264.95,80.705 277.413,80.705 277.413,82.14 266.739,82.14 266.739,85.904 276.742,85.904 
	276.742,87.337 266.739,87.337 266.739,91.018 277.425,91.018 277.425,92.465 264.95,92.465 "/>
<path fill="#FFFFFF" d="M282,80.705h12.118l2.099,2.098v2.421l-2.115,2.113l2.489,5.131h-1.927l-2.301-4.806h-8.574v4.806H282
	V80.705z M292.942,86.211l1.483-1.481V83.3l-1.225-1.229h-9.412v4.14H292.942z"/>
<path fill="#FFFFFF" d="M306.822,80.705h2.49l7.09,11.76h-1.977l-1.958-3.304h-8.864l-1.96,3.304h-1.911L306.822,80.705z
	 M304.456,87.745h7.158l-3.579-6.032L304.456,87.745z"/>
<polygon fill="#FFFFFF" points="319.581,90.029 319.581,83.143 322.018,80.705 331.989,80.705 334.104,82.819 334.104,84.472 
	332.397,84.472 332.397,83.399 331.155,82.154 322.854,82.154 321.371,83.639 321.371,89.534 322.854,91.02 331.155,91.02 
	332.397,89.776 332.397,88.597 334.104,88.597 334.104,90.354 331.989,92.465 322.018,92.465 "/>
<polygon fill="#FFFFFF" points="344.03,82.156 337.671,82.156 337.671,80.705 352.178,80.705 352.178,82.156 345.817,82.156 
	345.817,92.468 344.03,92.468 "/>
<polygon fill="#FFFFFF" points="356.104,91.171 359.818,91.171 359.818,81.985 356.104,81.985 356.104,80.705 365.342,80.705 
	365.342,81.985 361.608,81.985 361.608,91.171 365.342,91.171 365.342,92.468 356.104,92.468 "/>
<polygon fill="#FFFFFF" points="368.973,80.705 370.902,80.705 376.678,91.394 382.457,80.705 384.281,80.705 378.008,92.465 
	375.245,92.465 "/>
<polygon fill="#FFFFFF" points="388.257,80.705 400.72,80.705 400.72,82.14 390.046,82.14 390.046,85.904 400.051,85.904 
	400.051,87.337 390.046,87.337 390.046,91.018 400.73,91.018 400.73,92.465 388.257,92.465 "/>
<polygon fill="#FFFFFF" points="17.144,61.3 17.144,54.479 38.319,54.479 38.319,56.969 39.845,58.491 75.541,58.491 76.745,57.289 
	76.745,50.15 75.943,49.349 26.449,49.349 17.467,40.363 17.467,25.521 27.65,15.337 88.217,15.337 97.601,24.721 97.601,31.539 
	76.424,31.539 76.424,28.89 74.899,27.366 39.845,27.366 38.641,28.569 38.641,35.468 39.443,36.269 88.939,36.269 97.922,45.258 
	97.922,60.497 87.733,70.684 26.528,70.684 "/>
<polygon fill="#FFFFFF" points="150.918,58.653 161.581,58.653 147.629,49.51 133.637,58.653 143.856,58.653 143.856,70.684 
	101.687,70.684 101.687,58.653 108.664,58.653 134.256,43.25 110.595,27.366 102.487,27.366 102.487,15.337 143.828,15.337 
	143.828,27.366 133.681,27.366 147.604,35.788 161.556,27.366 151.369,27.366 151.369,15.337 192.732,15.337 192.732,27.366 
	184.508,27.366 158.802,42.615 186.554,58.653 193.535,58.653 193.535,70.684 150.918,70.684 "/>
<polygon fill="#FFFFFF" points="197.3,61.3 197.3,54.479 218.479,54.479 218.479,56.969 220,58.491 255.699,58.491 256.9,57.289 
	256.9,50.15 256.101,49.349 206.604,49.349 197.619,40.363 197.619,25.521 207.807,15.337 268.373,15.337 277.756,24.721 
	277.756,31.539 256.58,31.539 256.58,28.89 255.054,27.366 220,27.366 218.798,28.569 218.798,35.468 219.6,36.269 269.092,36.269 
	278.076,45.258 278.076,60.497 267.893,70.684 206.687,70.684 "/>
<polygon fill="#FFFFFF" points="286.55,27.366 280.373,27.366 280.373,15.337 317.271,15.337 317.271,27.366 306.924,27.366 
	315.508,56.406 329.87,15.337 356.337,15.337 370.617,56.406 379.2,27.366 368.853,27.366 368.853,15.337 402.943,15.337 
	402.943,27.366 396.768,27.366 383.534,70.684 355.216,70.684 341.979,29.775 328.747,70.684 299.785,70.684 "/>
</svg>
