<?xml version="1.0" encoding="utf-8"?>
<!-- Generator: Adobe Illustrator 16.0.0, SVG Export Plug-In . SVG Version: 6.00 Build 0)  -->
<!DOCTYPE svg PUBLIC "-//W3C//DTD SVG 1.1//EN" "http://www.w3.org/Graphics/SVG/1.1/DTD/svg11.dtd">
<svg version="1.1" id="icons" xmlns="http://www.w3.org/2000/svg" xmlns:xlink="http://www.w3.org/1999/xlink" x="0px" y="0px"
	 width="692.042px" height="491.76px" viewBox="0 0 692.042 491.76" enable-background="new 0 0 692.042 491.76"
	 xml:space="preserve">
<g>
	<g>
		<g>
			
				<path fill-rule="evenodd" clip-rule="evenodd" fill="none" stroke="#E6615B" stroke-width="5.822" stroke-linecap="round" stroke-linejoin="round" stroke-miterlimit="10" d="
				M653.629,82.199h-5.837v111.999h22.605 M491.533,65.851h69.603V16.639h29.576v49.212h62.918 M474.012,194.198h133.175V82.199
				H491.533v-0.195 M670.398,209.733h-7.159V414.62h-56.89V209.733"/>
			<g>
				<path fill="none" stroke="#E6615B" stroke-width="3" stroke-linecap="round" stroke-miterlimit="10" d="M514.905,414.62
					c-1.067,0-1.94-0.873-1.94-1.94v-47.771c0-1.067,0.873-1.94,1.94-1.94h41.275c1.067,0,1.94,0.873,1.94,1.94v47.771
					c0,1.067-0.873,1.94-1.94,1.94H514.905z"/>
			</g>
		</g>
		<g>
			<path fill="none" stroke="#E6615B" stroke-width="3" stroke-linecap="round" stroke-miterlimit="10" d="M573.373,322.129
				c0-0.825,0.669-1.494,1.494-1.494h12.373c0.826,0,1.494,0.669,1.494,1.494v26.832c0,0.825-0.668,1.494-1.494,1.494H481.334"/>
			<path fill="none" stroke="#E6615B" stroke-width="3" stroke-linecap="round" stroke-miterlimit="10" d="M481.334,350.456
				c-0.825,0-1.495-0.669-1.495-1.494v-26.832c0-0.825,0.67-1.494,1.495-1.494h12.669c0.825,0,1.494,0.669,1.494,1.494v21.698"/>
			<path fill="none" stroke="#E6615B" stroke-width="3" stroke-linecap="round" stroke-miterlimit="10" d="M503.15,322.129
				c0-0.825,0.668-1.494,1.494-1.494h12.668c0.826,0,1.494,0.669,1.494,1.494v21.698"/>
			<path fill="none" stroke="#E6615B" stroke-width="3" stroke-linecap="round" stroke-miterlimit="10" d="M526.458,322.129
				c0-0.825,0.669-1.494,1.494-1.494h12.669c0.825,0,1.494,0.669,1.494,1.494v21.698"/>
			<path fill="none" stroke="#E6615B" stroke-width="3" stroke-linecap="round" stroke-miterlimit="10" d="M549.767,322.129
				c0-0.825,0.67-1.494,1.495-1.494h12.669c0.824,0,1.494,0.669,1.494,1.494v21.698"/>
		</g>
		<g>
			<path fill="none" stroke="#E6615B" stroke-width="3" stroke-linecap="round" stroke-miterlimit="10" d="M573.373,270.009
				c0-0.825,0.669-1.494,1.494-1.494h12.373c0.826,0,1.494,0.669,1.494,1.494v26.832c0,0.825-0.668,1.494-1.494,1.494H481.334"/>
			<path fill="none" stroke="#E6615B" stroke-width="3" stroke-linecap="round" stroke-miterlimit="10" d="M481.334,298.335
				c-0.825,0-1.495-0.669-1.495-1.494v-26.832c0-0.825,0.67-1.494,1.495-1.494h12.669c0.825,0,1.494,0.669,1.494,1.494v21.698"/>
			<path fill="none" stroke="#E6615B" stroke-width="3" stroke-linecap="round" stroke-miterlimit="10" d="M503.15,270.009
				c0-0.825,0.668-1.494,1.494-1.494h12.668c0.826,0,1.494,0.669,1.494,1.494v21.698"/>
			<path fill="none" stroke="#E6615B" stroke-width="3" stroke-linecap="round" stroke-miterlimit="10" d="M526.458,270.009
				c0-0.825,0.669-1.494,1.494-1.494h12.669c0.825,0,1.494,0.669,1.494,1.494v21.698"/>
			<path fill="none" stroke="#E6615B" stroke-width="3" stroke-linecap="round" stroke-miterlimit="10" d="M549.767,270.009
				c0-0.825,0.67-1.494,1.495-1.494h12.669c0.824,0,1.494,0.669,1.494,1.494v21.698"/>
		</g>
		<g>
			<path fill="none" stroke="#E6615B" stroke-width="3" stroke-linecap="round" stroke-miterlimit="10" d="M573.373,101.652
				c0-0.825,0.669-1.494,1.494-1.494h12.373c0.826,0,1.494,0.669,1.494,1.494v26.832c0,0.825-0.668,1.494-1.494,1.494h-82.596"/>
			<path fill="none" stroke="#E6615B" stroke-width="3" stroke-linecap="round" stroke-miterlimit="10" d="M504.644,129.978
				c-0.826,0-1.494-0.669-1.494-1.494v-26.832c0-0.825,0.668-1.494,1.494-1.494h12.668c0.826,0,1.494,0.669,1.494,1.494v21.698"/>
			<path fill="none" stroke="#E6615B" stroke-width="3" stroke-linecap="round" stroke-miterlimit="10" d="M526.458,101.652
				c0-0.825,0.669-1.494,1.494-1.494h12.669c0.825,0,1.494,0.669,1.494,1.494v21.698"/>
			<path fill="none" stroke="#E6615B" stroke-width="3" stroke-linecap="round" stroke-miterlimit="10" d="M549.767,101.652
				c0-0.825,0.67-1.494,1.495-1.494h12.669c0.824,0,1.494,0.669,1.494,1.494v21.698"/>
		</g>
		<g>
			<path fill="none" stroke="#E6615B" stroke-width="3" stroke-linecap="round" stroke-miterlimit="10" d="M573.373,146.805
				c0-0.825,0.669-1.494,1.494-1.494h12.373c0.826,0,1.494,0.669,1.494,1.494v26.832c0,0.825-0.668,1.494-1.494,1.494h-82.596"/>
			<path fill="none" stroke="#E6615B" stroke-width="3" stroke-linecap="round" stroke-miterlimit="10" d="M504.644,175.131
				c-0.826,0-1.494-0.669-1.494-1.494v-26.832c0-0.825,0.668-1.494,1.494-1.494h12.668c0.826,0,1.494,0.669,1.494,1.494v21.698"/>
			<path fill="none" stroke="#E6615B" stroke-width="3" stroke-linecap="round" stroke-miterlimit="10" d="M526.458,146.805
				c0-0.825,0.669-1.494,1.494-1.494h12.669c0.825,0,1.494,0.669,1.494,1.494v21.698"/>
			<path fill="none" stroke="#E6615B" stroke-width="3" stroke-linecap="round" stroke-miterlimit="10" d="M549.767,146.805
				c0-0.825,0.67-1.494,1.495-1.494h12.669c0.824,0,1.494,0.669,1.494,1.494v21.698"/>
		</g>
		<path fill="none" stroke="#E6615B" stroke-width="3" stroke-linecap="round" stroke-miterlimit="10" d="M564.482,364.39
			c0-0.699,0.566-1.267,1.266-1.267h22.756c0.7,0,1.268,0.567,1.268,1.267v50.229"/>
		<path fill="none" stroke="#E6615B" stroke-width="3" stroke-linecap="round" stroke-miterlimit="10" d="M479.839,364.39
			c0-0.699,0.568-1.267,1.268-1.267h22.756c0.699,0,1.267,0.567,1.267,1.267v50.229"/>
		
			<line fill-rule="evenodd" clip-rule="evenodd" fill="none" stroke="#E6615B" stroke-width="3" stroke-linecap="round" stroke-miterlimit="10" x1="535.542" y1="363.124" x2="535.542" y2="414.62"/>
	</g>
	<g>
		<path fill="none" stroke="#FFFFFF" stroke-width="33" stroke-linecap="round" stroke-miterlimit="10" d="M498.952,414.62
			c5.028,0,7.062-4.54,7.062-4.54c1.123-2.51,2.485-6.77,3.025-9.466l8.035-40.092c0.54-2.696,0.982-7.152,0.982-9.902v-34
			c0-2.75-1.268-6.859-2.815-9.132l-63.807-93.623c-1.548-2.272-5.065-4.132-7.815-4.132h-76.562c-2.75,0-5,2.25-5,5v77.117
			c0,2.75,2.25,5,5,5h118"/>
	</g>
	<g>
		<rect x="403.676" y="296.85" fill="#FEFFFF" width="97.801" height="117.77"/>
		<g>
			<path fill="#FEFFFF" stroke="#E6615B" stroke-width="6" stroke-linecap="round" stroke-miterlimit="10" d="M455.123,439.233
				c-8.351,13.838-23.531,23.092-40.873,23.092c-26.347,0-47.704-21.357-47.704-47.705c0-26.346,21.357-47.704,47.704-47.704
				s47.704,21.358,47.704,47.704"/>
			<path fill="#FFFFFF" stroke="#E6615B" stroke-width="6" stroke-linecap="round" stroke-miterlimit="10" d="M433.952,194.198
				H51.94c-5.028,0-9.104,4.075-9.104,9.104V315.62l10,89.896c0,5.027,4.076,9.104,9.104,9.104"/>
			
				<line fill="none" stroke="#E6615B" stroke-width="6" stroke-linecap="round" stroke-miterlimit="10" x1="61.94" y1="414.62" x2="94.352" y2="414.62"/>
			
				<line fill="none" stroke="#E6615B" stroke-width="6" stroke-linecap="round" stroke-miterlimit="10" x1="461.85" y1="414.62" x2="496.262" y2="414.62"/>
			<polyline fill="none" stroke="#E6615B" stroke-width="6" stroke-linecap="round" stroke-miterlimit="10" points="
				342.004,209.733 342.004,414.62 216.056,414.62 			"/>
			<path fill="none" stroke="#E6615B" stroke-width="6" stroke-linecap="round" stroke-miterlimit="10" d="M234.94,214.098
				c0-2.41,1.954-4.365,4.365-4.365h78.385c2.412,0,4.366,1.955,4.366,4.365v78.387c0,2.41-1.954,4.365-4.366,4.365H68.318"/>
			<path fill="none" stroke="#E6615B" stroke-width="6" stroke-linecap="round" stroke-miterlimit="10" d="M128.758,214.098
				c0-2.41,1.954-4.365,4.365-4.365h78.386c2.411,0,4.365,1.955,4.365,4.365v68.387"/>
			<path fill="none" stroke="#E6615B" stroke-width="6" stroke-linecap="round" stroke-miterlimit="10" d="M68.318,296.85
				c-2.411,0-4.366-1.955-4.366-4.365v-78.387c0-2.41,1.955-4.365,4.366-4.365h37.01c2.411,0,4.366,1.955,4.366,4.365v63.387"/>
			<g>
				<path fill="#FFFFFF" d="M498.952,414.62c5.028,0,7.062-4.54,7.062-4.54c1.123-2.51,2.485-6.77,3.025-9.466l8.035-40.092
					c0.54-2.696,0.982-7.152,0.982-9.902v-34c0-2.75-1.268-6.859-2.815-9.132l-63.807-93.623c-1.548-2.272-5.065-4.132-7.815-4.132
					h-76.562c-2.75,0-5,2.25-5,5v77.117c0,2.75,2.25,5,5,5h118"/>
				<path fill="none" stroke="#E6615B" stroke-width="6" stroke-linecap="round" stroke-miterlimit="10" d="M498.952,414.62
					c5.028,0,7.062-4.54,7.062-4.54c1.123-2.51,2.485-6.77,3.025-9.466l8.035-40.092c0.54-2.696,0.982-7.152,0.982-9.902v-34
					c0-2.75-1.268-6.859-2.815-9.132l-63.807-93.623c-1.548-2.272-5.065-4.132-7.815-4.132h-76.562c-2.75,0-5,2.25-5,5v77.117
					c0,2.75,2.25,5,5,5h118"/>
			</g>
		</g>
	</g>
	<path fill="#FFFFFF" stroke="#E6615B" stroke-width="6" stroke-linecap="round" stroke-miterlimit="10" d="M94.352,414.62
		c0-26.346,21.357-47.704,47.704-47.704s47.704,21.358,47.704,47.704c0,26.348-21.357,47.705-47.704,47.705
		c-14.724,0-27.89-6.67-36.64-17.153"/>
</g>
</svg>
