<svg xmlns="http://www.w3.org/2000/svg" viewBox="0 0 633.5 451.6"><style type="text/css">* { color: #E6615B; }</style><g id="icon"><path fill-rule="evenodd" clip-rule="evenodd" fill="none" stroke-width="5.822" stroke-linecap="round" stroke-linejoin="round" stroke-miterlimit="10" d="M613.8 68.5H608v112h22.6M451.7 52.1h69.6V2.9h29.6v49.2h62.9M434.2 180.5h133.2v-112H451.7v-.2M630.6 196h-7.2v204.9h-56.9V196" stroke="currentColor"/><path fill="none" stroke-width="3" stroke-linecap="round" stroke-miterlimit="10" d="M475.1 400.9c-1.1 0-1.9-.9-1.9-1.9v-47.8c0-1.1.9-1.9 1.9-1.9h41.3c1.1 0 1.9.9 1.9 1.9V399c0 1.1-.9 1.9-1.9 1.9h-41.3z" stroke="currentColor"/><path d="M449.9 196.9v9.9h11.4v-9.9h3.1v23.6h-3.1v-11.1h-11.4v11.1h-3v-23.6h3zM492.7 208.5c0 8.1-4.9 12.4-11 12.4-6.2 0-10.6-4.8-10.6-12 0-7.5 4.7-12.4 11-12.4 6.4 0 10.6 5 10.6 12zm-18.3.4c0 5 2.7 9.6 7.5 9.6s7.6-4.4 7.6-9.8c0-4.7-2.4-9.6-7.5-9.6-5.1-.1-7.6 4.6-7.6 9.8zM503 199.5h-7.2v-2.6h17.5v2.6h-7.2v21H503v-21zM531 209.5h-9.2v8.5H532v2.6h-13.3V197h12.7v2.6h-9.7v7.5h9.2v2.4zM538.8 196.9h3v21h10.1v2.6h-13.1v-23.6z" fill="currentColor"/><path fill="none" stroke-width="3" stroke-linecap="round" stroke-miterlimit="10" d="M533.5 308.4c0-.8.7-1.5 1.5-1.5h12.4c.8 0 1.5.7 1.5 1.5v26.8c0 .8-.7 1.5-1.5 1.5H441.5M441.5 336.7c-.8 0-1.5-.7-1.5-1.5v-26.8c0-.8.7-1.5 1.5-1.5h12.7c.8 0 1.5.7 1.5 1.5v21.7M463.3 308.4c0-.8.7-1.5 1.5-1.5h12.7c.8 0 1.5.7 1.5 1.5v21.7M486.6 308.4c0-.8.7-1.5 1.5-1.5h12.7c.8 0 1.5.7 1.5 1.5v21.7M509.9 308.4c0-.8.7-1.5 1.5-1.5h12.7c.8 0 1.5.7 1.5 1.5v21.7M533.5 256.3c0-.8.7-1.5 1.5-1.5h12.4c.8 0 1.5.7 1.5 1.5v26.8c0 .8-.7 1.5-1.5 1.5H441.5M441.5 284.6c-.8 0-1.5-.7-1.5-1.5v-26.8c0-.8.7-1.5 1.5-1.5h12.7c.8 0 1.5.7 1.5 1.5V278M463.3 256.3c0-.8.7-1.5 1.5-1.5h12.7c.8 0 1.5.7 1.5 1.5V278M486.6 256.3c0-.8.7-1.5 1.5-1.5h12.7c.8 0 1.5.7 1.5 1.5V278M509.9 256.3c0-.8.7-1.5 1.5-1.5h12.7c.8 0 1.5.7 1.5 1.5V278M533.5 87.9c0-.8.7-1.5 1.5-1.5h12.4c.8 0 1.5.7 1.5 1.5v26.8c0 .8-.7 1.5-1.5 1.5h-82.6M464.8 116.2c-.8 0-1.5-.7-1.5-1.5V87.9c0-.8.7-1.5 1.5-1.5h12.7c.8 0 1.5.7 1.5 1.5v21.7M486.6 87.9c0-.8.7-1.5 1.5-1.5h12.7c.8 0 1.5.7 1.5 1.5v21.7M509.9 87.9c0-.8.7-1.5 1.5-1.5h12.7c.8 0 1.5.7 1.5 1.5v21.7M533.5 133.1c0-.8.7-1.5 1.5-1.5h12.4c.8 0 1.5.7 1.5 1.5v26.8c0 .8-.7 1.5-1.5 1.5h-82.6M464.8 161.4c-.8 0-1.5-.7-1.5-1.5v-26.8c0-.8.7-1.5 1.5-1.5h12.7c.8 0 1.5.7 1.5 1.5v21.7M486.6 133.1c0-.8.7-1.5 1.5-1.5h12.7c.8 0 1.5.7 1.5 1.5v21.7M509.9 133.1c0-.8.7-1.5 1.5-1.5h12.7c.8 0 1.5.7 1.5 1.5v21.7M524.6 350.7c0-.7.6-1.3 1.3-1.3h22.8c.7 0 1.3.6 1.3 1.3v50.2M440 350.7c0-.7.6-1.3 1.3-1.3H464c.7 0 1.3.6 1.3 1.3v50.2" stroke="currentColor"/><path fill-rule="evenodd" clip-rule="evenodd" fill="none" stroke-width="3" stroke-linecap="round" stroke-miterlimit="10" stroke="currentColor" d="M495.7 349.4v51.5"/><path fill="none" stroke="#2B333C" stroke-width="33" stroke-linecap="round" stroke-miterlimit="10" d="M459.1 400.9c5 0 5.9-2 7.1-4.6 1.1-2.5 2.5-6.8 3-9.5l8-40.1c.5-2.7 1-7.2 1-9.9v-34c0-2.8-1.3-6.9-2.8-9.1l-63.8-93.6c-1.5-2.3-5.1-4.1-7.8-4.1h-76.6c-2.8 0-5 2.2-5 5v77.1c0 2.8 2.2 5 5 5h118"/><path fill="#2B333C" d="M363.8 283.1h97.8v117.8h-97.8z"/><path fill="#2B333C" stroke-width="6" stroke-linecap="round" stroke-miterlimit="10" d="M415.3 425.5c-8.4 13.8-23.5 23.1-40.9 23.1-26.3 0-47.7-21.4-47.7-47.7 0-26.3 21.4-47.7 47.7-47.7s47.7 21.4 47.7 47.7M394.1 180.5h-382c-5 0-9.1 4.1-9.1 9.1v112.3l10 89.9c0 5 4.1 9.1 9.1 9.1" stroke="currentColor"/><path fill="none" stroke-width="6" stroke-linecap="round" stroke-miterlimit="10" stroke="currentColor" d="M22.1 400.9h32.4M422 400.9h34.4M302.2 196v204.9h-126M195.1 200.4c0-2.4 2-4.4 4.4-4.4h78.4c2.4 0 4.4 2 4.4 4.4v78.4c0 2.4-2 4.4-4.4 4.4H28.5M88.9 200.4c0-2.4 2-4.4 4.4-4.4h78.4c2.4 0 4.4 2 4.4 4.4v68.4M28.5 283.1c-2.4 0-4.4-2-4.4-4.4v-78.4c0-2.4 2-4.4 4.4-4.4h37c2.4 0 4.4 2 4.4 4.4v63.4"/><path fill="#2B333C" d="M459.1 400.9c5 0 7.1-4.5 7.1-4.5 1.1-2.5 2.5-6.8 3-9.5l8-40.1c.5-2.7 1-7.2 1-9.9v-34c0-2.8-1.3-6.9-2.8-9.1l-63.8-93.6c-1.5-2.3-5.1-4.1-7.8-4.1h-76.6c-2.8 0-5 2.2-5 5v77.1c0 2.8 2.2 5 5 5h118"/><path fill="none" stroke-width="6" stroke-linecap="round" stroke-miterlimit="10" d="M459.1 400.9c5 0 7.1-4.5 7.1-4.5 1.1-2.5 2.5-6.8 3-9.5l8-40.1c.5-2.7 1-7.2 1-9.9v-34c0-2.8-1.3-6.9-2.8-9.1l-63.8-93.6c-1.5-2.3-5.1-4.1-7.8-4.1h-76.6c-2.8 0-5 2.2-5 5v77.1c0 2.8 2.2 5 5 5h118" stroke="currentColor"/><path fill="#2B333C" stroke-width="6" stroke-linecap="round" stroke-miterlimit="10" d="M54.5 400.9c0-26.3 21.4-47.7 47.7-47.7 26.3 0 47.7 21.4 47.7 47.7 0 26.3-21.4 47.7-47.7 47.7-14.7 0-27.9-6.7-36.6-17.2" stroke="currentColor"/></g></svg>