<svg xmlns="http://www.w3.org/2000/svg" viewBox="0 0 433.4 178.3"><style type="text/css">* { color: #E6615B; }</style><g id="icon"><path fill="none" stroke-width="6" stroke-linecap="round" stroke-miterlimit="10" d="M50 175.3V28.2c0-4.3 3.5-7.9 7.9-7.9h132.9M190.8 20.3h152.7c4.3 0 7.9 3.5 7.9 7.9v123.5c0 4.3-3.5 7.9-7.9 7.9H74.8M23.1 46.1L4 27c-1.3-1.3-1.3-3.5 0-4.9L23.1 3M23.1 89.1L4 70c-1.3-1.3-1.3-3.5 0-4.9L23.1 46M23.1 132.2L4 113.1c-1.3-1.3-1.3-3.5 0-4.9l19.1-19.1M23.1 175.3L4 156.2c-1.3-1.3-1.3-3.5 0-4.9l19.1-19.1M350.9 175.3H74.8M410.3 132.2l19.1 19.1c1.3 1.3 1.3 3.5 0 4.9l-19.1 19.1M410.3 89.1l19.1 19.1c1.3 1.3 1.3 3.5 0 4.9l-19.1 19.1M410.3 46.1l19.1 19.1c1.3 1.3 1.3 3.5 0 4.9l-19.1 19.1M410.3 3l19.1 19.1c1.3 1.3 1.3 3.5 0 4.9l-19.1 19.1M23.1 3h327.7M371.5 3h38.8M371.5 175.3h38.8M50 175.3H23.1" stroke="currentColor"/><path d="M139.5 123.2L83 141.6v-7.9l27.8-8.8c7.6-2.4 14.5-4.5 21.1-6v-.2c-6.5-1.6-13.7-3.9-21-6.5L83 102.7v-7.8l56.5 20.2v8.1zM83 81.5h56.5v7.3H83v-7.3zM83.7 68.8c-.6-3.5-1.1-8.1-1.1-14 0-7.2 1.7-12.5 4.7-15.8 2.7-3.1 6.8-5 11.8-5 5.1 0 9.1 1.5 12.1 4.4 4.1 3.9 6.2 10.1 6.2 17.3 0 2.2-.1 4.2-.5 5.9h22.6v7.3H83.7zm27.2-7.3c.4-1.6.6-3.6.6-6 0-8.8-4.3-14.2-12.1-14.2-7.5 0-11.1 5.3-11.1 13.3 0 3.2.3 5.6.6 6.9h22zM215.5 135.7l-2.1 6.3h-2.7l6.8-20h3.1l6.8 20h-2.8l-2.1-6.3h-7zm6.5-2.1l-2-5.8c-.4-1.3-.7-2.5-1-3.6-.3 1.2-.6 2.4-1 3.6l-2 5.8h6zM242.3 120.9v17.4c0 1.3 0 2.7.1 3.7h-2.3l-.1-2.5h-.1c-.8 1.6-2.6 2.8-4.9 2.8-3.5 0-6.1-2.9-6.1-7.3 0-4.8 2.9-7.7 6.4-7.7 2.2 0 3.7 1 4.3 2.2h.1v-8.6h2.6zm-2.6 12.5c0-.3 0-.8-.1-1.1-.4-1.7-1.8-3-3.8-3-2.7 0-4.3 2.4-4.3 5.5 0 2.9 1.4 5.3 4.2 5.3 1.8 0 3.4-1.2 3.8-3.1.1-.4.1-.7.1-1.1v-2.5zM246.7 131.5c0-1.5 0-2.7-.1-3.9h2.3l.1 2.3h.1c.8-1.4 2.1-2.6 4.5-2.6 2 0 3.4 1.2 4.1 2.9h.1c.4-.8 1-1.4 1.6-1.9.9-.7 1.8-1 3.2-1 1.9 0 4.7 1.2 4.7 6.2v8.5h-2.6v-8.1c0-2.8-1-4.4-3.1-4.4-1.5 0-2.6 1.1-3.1 2.4-.1.4-.2.8-.2 1.3v8.9h-2.6v-8.6c0-2.3-1-3.9-3-3.9-1.6 0-2.8 1.3-3.2 2.6-.1.4-.2.8-.2 1.3v8.7h-2.6v-10.7zM274.3 123.6c0 .9-.6 1.6-1.7 1.6-.9 0-1.6-.7-1.6-1.6 0-.9.7-1.6 1.6-1.6 1.1-.1 1.7.6 1.7 1.6zm-2.9 18.4v-14.4h2.6V142h-2.6zM281.5 123.5v4.1h3.7v2h-3.7v7.7c0 1.8.5 2.8 2 2.8.7 0 1.2-.1 1.5-.2l.1 2c-.5.2-1.3.4-2.3.4-1.2 0-2.2-.4-2.8-1.1-.7-.8-1-2-1-3.7v-7.8h-2.2v-2h2.2v-3.4l2.5-.8zM311.6 131.7c0 6.9-4.2 10.5-9.3 10.5-5.3 0-9-4.1-9-10.1 0-6.3 3.9-10.5 9.3-10.5 5.5 0 9 4.2 9 10.1zm-15.5.4c0 4.3 2.3 8.1 6.4 8.1 4.1 0 6.4-3.8 6.4-8.3 0-4-2.1-8.1-6.4-8.1-4.3-.1-6.4 3.9-6.4 8.3zM314.9 131.5c0-1.5 0-2.7-.1-3.9h2.3l.1 2.4h.1c.7-1.4 2.4-2.7 4.7-2.7 2 0 5.1 1.2 5.1 6.1v8.6h-2.6v-8.3c0-2.3-.9-4.2-3.3-4.2-1.7 0-3.1 1.2-3.5 2.7-.1.3-.2.8-.2 1.2v8.6h-2.6v-10.5zM332.8 135.2c.1 3.5 2.3 5 4.9 5 1.9 0 3-.3 4-.7l.4 1.9c-.9.4-2.5.9-4.8.9-4.4 0-7.1-2.9-7.1-7.2 0-4.3 2.6-7.7 6.7-7.7 4.7 0 5.9 4.1 5.9 6.8 0 .5-.1.9-.1 1.2h-9.9zm7.6-1.8c0-1.7-.7-4.2-3.6-4.2-2.6 0-3.8 2.4-4 4.2h7.6z" fill="currentColor"/><path fill="none" stroke-width="5.659" stroke-linecap="round" stroke-miterlimit="10" stroke="currentColor" d="M371.5 3v6"/><path fill="none" stroke-width="5.659" stroke-linecap="round" stroke-miterlimit="10" stroke-dasharray="12.3291,12.3291" stroke="currentColor" d="M371.5 21.3v141.8"/><path fill="none" stroke-width="5.659" stroke-linecap="round" stroke-miterlimit="10" stroke="currentColor" d="M371.5 169.3v6"/></g></svg>